<?xml version="1.0" encoding="UTF-8"?>
<svg width="1026px" height="1026px" viewBox="0 0 1026 1026" version="1.1" xmlns="http://www.w3.org/2000/svg" xmlns:xlink="http://www.w3.org/1999/xlink">
    <title>symbols</title>
    <g id="symbols" stroke="none" stroke-width="1" fill="none" fill-rule="evenodd">
        <g id="Group" transform="translate(0.000000, 4.260620)">
            <g>
                <g transform="translate(53.661857, 166.833062)" fill="#A8D4F3" id="puzzle-copy">
                    <g transform="translate(201.500000, 255.000000) rotate(90.000000) translate(-201.500000, -255.000000) ">
                        <path d="M0.116591469,112.563157 C-0.167634637,151.477249 0.157196716,382.119277 0.157196716,435.754959 C0.157196716,451.689328 5.43204341,468.303183 15.9817368,485.596524 C28.9233127,501.865508 48.0348473,510 73.3163406,510 C114.843542,510 222.396702,510 395.975821,510 C403,510 403.000019,510 403,505.034647 C402.999981,500.069294 403.057677,384.747687 403,381.058673 C403,375.631224 401.919002,373.122082 397.490961,370.625552 C393.06292,368.129022 389.053004,368.225287 383.702991,368.129022 C323.862617,367.052289 300.428999,342.13883 300.428999,295.921138 C300.428999,249.703447 343.276216,229.085137 383.702991,229.49965 C387.446861,229.538038 393.664601,229.085137 397.490961,226.690087 C401.317322,224.295038 403,221.390687 403,217.420994 C403,213.376798 403,128.965784 403,113.440446 C403,107.003793 403,107.003793 398.326572,107.003793 C384.276442,107.003793 349.517858,107.003793 294.050822,107.003793 C294.050822,107.003793 292.675537,105.927972 289.924969,103.77633 C285.799115,100.548866 283.227986,93.2401561 283.188839,87.866276 C282.750969,27.7586218 258.858862,0 212.895558,0 C165.312932,0 140.36231,23.4487385 139.786153,87.866276 C139.756003,91.2372374 137.015814,100.639345 133.276898,103.77633 C130.784287,105.867653 129.121535,106.943474 128.288641,107.003793 C87.6126226,107.003793 47.2379819,107.003793 7.1647193,107.003793 C0.116591469,107.003793 0.157196716,107.003793 0.116591469,112.563157 Z" id="Path-2"></path>
                    </g>
                </g>
                <g transform="translate(0.000000, 515.818822)" fill="#FCEAA8" id="puzzle">
                    <path d="M0.116591469,112.563157 C-0.167634637,151.477249 0.157196716,382.119277 0.157196716,435.754959 C0.157196716,451.689328 5.43204341,468.303183 15.9817368,485.596524 C28.9233127,501.865508 48.0348473,510 73.3163406,510 C114.843542,510 222.396702,510 395.975821,510 C403,510 403.000019,510 403,505.034647 C402.999981,500.069294 403.057677,384.747687 403,381.058673 C403,375.631224 401.919002,373.122082 397.490961,370.625552 C393.06292,368.129022 389.053004,368.225287 383.702991,368.129022 C323.862617,367.052289 300.428999,342.13883 300.428999,295.921138 C300.428999,249.703447 343.276216,229.085137 383.702991,229.49965 C387.446861,229.538038 393.664601,229.085137 397.490961,226.690087 C401.317322,224.295038 403,221.390687 403,217.420994 C403,213.376798 403,128.965784 403,113.440446 C403,107.003793 403,107.003793 398.326572,107.003793 C384.276442,107.003793 349.517858,107.003793 294.050822,107.003793 C294.050822,107.003793 292.675537,105.927972 289.924969,103.77633 C285.799115,100.548866 283.227986,93.2401561 283.188839,87.866276 C282.750969,27.7586218 258.858862,0 212.895558,0 C165.312932,0 140.36231,23.4487385 139.786153,87.866276 C139.756003,91.2372374 137.015814,100.639345 133.276898,103.77633 C130.784287,105.867653 129.121535,106.943474 128.288641,107.003793 C87.6126226,107.003793 47.2379819,107.003793 7.1647193,107.003793 C0.116591469,107.003793 0.157196716,107.003793 0.116591469,112.563157 Z" id="Path-2"></path>
                </g>
                <g transform="translate(349.180677, 569.035530)" fill="#FFD6A7" id="puzzle-copy-3">
                    <g transform="translate(201.500000, 255.000000) rotate(-90.000000) translate(-201.500000, -255.000000) ">
                        <path d="M0.116591469,112.563157 C-0.167634637,151.477249 0.157196716,382.119277 0.157196716,435.754959 C0.157196716,451.689328 5.43204341,468.303183 15.9817368,485.596524 C28.9233127,501.865508 48.0348473,510 73.3163406,510 C114.843542,510 222.396702,510 395.975821,510 C403,510 403.000019,510 403,505.034647 C402.999981,500.069294 403.057677,384.747687 403,381.058673 C403,375.631224 401.919002,373.122082 397.490961,370.625552 C393.06292,368.129022 389.053004,368.225287 383.702991,368.129022 C323.862617,367.052289 300.428999,342.13883 300.428999,295.921138 C300.428999,249.703447 343.276216,229.085137 383.702991,229.49965 C387.446861,229.538038 393.664601,229.085137 397.490961,226.690087 C401.317322,224.295038 403,221.390687 403,217.420994 C403,213.376798 403,128.965784 403,113.440446 C403,107.003793 403,107.003793 398.326572,107.003793 C384.276442,107.003793 349.517858,107.003793 294.050822,107.003793 C294.050822,107.003793 292.675537,105.927972 289.924969,103.77633 C285.799115,100.548866 283.227986,93.2401561 283.188839,87.866276 C282.750969,27.7586218 258.858862,0 212.895558,0 C165.312932,0 140.36231,23.4487385 139.786153,87.866276 C139.756003,91.2372374 137.015814,100.639345 133.276898,103.77633 C130.784287,105.867653 129.121535,106.943474 128.288641,107.003793 C87.6126226,107.003793 47.2379819,107.003793 7.1647193,107.003793 C0.116591469,107.003793 0.157196716,107.003793 0.116591469,112.563157 Z" id="Path-2"></path>
                    </g>
                </g>
                <g transform="translate(622.051979, 0.000000)" fill="#67CFB7" id="puzzle-copy-2">
                    <g transform="translate(202.474010, 256.454706) rotate(180.000000) translate(-202.474010, -256.454706) ">
                        <path d="M0.117155049,113.205299 C-0.168444949,152.341385 0.157956573,384.299163 0.157956573,438.240822 C0.157956573,454.266093 5.45830081,470.974726 16.0589893,488.36672 C29.0631222,504.728514 48.2670381,512.909411 73.670737,512.909411 C115.398673,512.909411 223.471723,512.909411 397.889888,512.909411 C404.948021,512.909411 404.94804,512.909411 404.948021,507.915732 C404.948001,502.922053 405.005977,386.942568 404.948021,383.232509 C404.948021,377.774097 403.861797,375.250642 399.412352,372.73987 C394.962907,370.229098 390.933607,370.325912 385.557733,370.229098 C325.428103,369.146222 301.881212,344.090639 301.881212,297.609288 C301.881212,251.127937 344.935544,230.392005 385.557733,230.808883 C389.319701,230.84749 395.567496,230.392005 399.412352,227.983293 C403.257209,225.57458 404.948021,222.653661 404.948021,218.661322 C404.948021,214.594055 404.948021,129.701499 404.948021,114.087592 C404.948021,107.614221 404.948021,107.614221 400.252002,107.614221 C386.133956,107.614221 351.207357,107.614221 295.472204,107.614221 C295.472204,107.614221 294.090272,106.532263 291.326407,104.368346 C287.180611,101.12247 284.597053,93.7720658 284.557716,88.3675291 C284.11773,27.9169771 260.110133,0 213.924652,0 C166.112021,0 141.040793,23.5825072 140.461851,88.3675291 C140.431555,91.757721 137.678121,101.213465 133.921131,104.368346 C131.416471,106.471599 129.745682,107.553558 128.908763,107.614221 C88.0361243,107.614221 47.4663207,107.614221 7.19935211,107.614221 C0.117155049,107.614221 0.157956573,107.614221 0.117155049,113.205299 Z" id="Path-2"></path>
                    </g>
                </g>
            </g>
            <g transform="translate(68.183460, 705.366972)" id="bucket">
                <path d="M60.4555409,71.8555847 L163.019161,72.0582458 C165.910543,72.0639652 168.527485,73.2380769 170.423012,75.1336041 C172.31854,77.0291312 173.492651,79.6460739 173.498371,82.5374554 L173.498371,82.5374554 L173.701116,185.033146 C173.706852,187.932636 172.536794,190.559955 170.64043,192.463836 C168.746945,194.364828 166.129357,195.544575 163.235109,195.553862 L163.235109,195.553862 L60.684676,195.35115 C57.7932946,195.345431 55.1763519,194.171319 53.2808247,192.275792 C51.3852976,190.380265 50.2111859,187.763322 50.2054665,184.87194 L50.2054665,184.87194 L50.0027207,82.3762494 C49.9969852,79.4767601 51.167043,76.8494405 53.0634069,74.9455594 C54.954016,73.0474558 57.5665298,71.8684067 60.4555409,71.8555847 L60.4555409,71.8555847 Z" id="Rectangle" stroke="#F7C400" stroke-width="35" transform="translate(111.851919, 133.704698) rotate(45.000000) translate(-111.851919, -133.704698) "></path>
                <line x1="195.532109" y1="129.414201" x2="69.5805794" y2="5.16525983" id="Path-2" stroke="#F7C400" stroke-width="35" transform="translate(132.556344, 67.289731) rotate(180.477496) translate(-132.556344, -67.289731) "></line>
                <polygon id="Triangle" fill="#F7C400" transform="translate(111.634924, 175.765774) scale(1, -1) translate(-111.634924, -175.765774) " points="111.634924 133.97379 198.411154 217.557758 24.8586938 217.557758"></polygon>
                <g id="Group" transform="translate(195.924312, 160.912791)" fill="#F7C400">
                    <path d="M27.5378442,0 C13.4919394,13.918592 4.80517955,27.1858132 1.47756453,39.8016634 C-1.85005048,52.4175137 0.442912206,63.3284376 8.3564526,72.5344351 C11.2193186,75.5907367 14.2897663,77.8948092 17.5677959,79.4466526 C20.8458254,80.9984959 24.1691749,81.7591123 27.5378442,81.7285017" id="Path-3"></path>
                    <path d="M55.0756883,0 C41.0297836,13.918592 32.3430237,27.1858132 29.0154087,39.8016634 C25.6877937,52.4175137 27.9807564,63.3284376 35.8942968,72.5344351 C38.7571627,75.5907367 41.8276105,77.8948092 45.1056401,79.4466526 C48.3836696,80.9984959 51.707019,81.7591123 55.0756883,81.7285017" id="Path-3-Copy" transform="translate(41.306766, 40.864909) scale(-1, 1) translate(-41.306766, -40.864909) "></path>
                </g>
            </g>
            <g transform="translate(729.413221, 83.739380)" fill="#00937B">
                <path d="M84.7496906,54.8678061 L190.959331,161.002005 C172.960197,179.476416 161.127045,188.713621 155.459876,188.713621 C137.138019,188.713621 132.99985,158.944338 114.282423,165.842975 C104.736534,169.36128 95.1255949,184.625334 85.4085278,200.365536 L83.6926413,203.145867 C74.9168381,217.358265 66.052731,231.418718 57.0701791,237.057873 C37.5428923,249.316904 25.2223015,249.316904 13.1982824,237.057873 C1.17426339,224.798841 -7.56384447,211.584267 9.65271381,188.713621 C26.8692721,165.842975 68.2155092,152.388233 79.9010389,133.219451 C86.4449355,122.484934 78.4999103,116.201285 70.2413897,109.620366 L69.3559943,108.913914 C63.1588702,103.957757 57.0701791,98.7389987 57.0701791,91.2545165 C57.0701791,79.3743861 66.2966829,67.2454826 84.7496906,54.8678061 Z M33.086779,200 C26.1832197,200 20.586779,205.596441 20.586779,212.5 C20.586779,219.403559 26.1832197,225 33.086779,225 C39.9903384,225 45.586779,219.403559 45.586779,212.5 C45.586779,205.596441 39.9903384,200 33.086779,200 Z" id="Path-4"></path>
                <path d="M99.9550798,52.8417187 C97.9153512,50.6188786 99.5417927,48.4608984 101.180655,46.7755979 C107.821447,39.9466328 117.761444,29.5919239 139.445076,8.32517199 C140.674789,7.11910094 141.914446,5.86625432 143.183993,4.58660954 C145.367653,2.38558164 150.241054,0 155.555581,0 C160.870109,0 163.734364,0.985703489 166.726646,2.29292856 C169.718927,3.60015364 204.604323,39.0875926 212.152551,46.7755979 C212.622094,47.8906402 216.26952,50.1919522 215.174727,54.8678061 C214.444866,57.9850421 210.705524,64.7088665 203.956704,75.0392792 C213.644923,68.8716832 220.02399,65.3027697 223.093906,64.3325385 C225.338589,63.6231178 227.474619,63.6231178 229.501996,64.3325385 C237.365598,72.5918843 242.167269,78.2018693 243.907007,81.1624935 C246.516615,85.6034298 245.951898,87.3481354 245.586779,91.7050415 C245.343366,94.6096456 244.253168,97.4231272 242.316186,100.145486 C216.025388,127.89885 201.166058,142.946728 197.738198,145.289119 C197.307651,145.583328 194.41486,147.031861 191.461344,144.837659 C188.507828,142.643458 101.797935,54.8500114 99.9550798,52.8417187 Z" id="Path-5"></path>
            </g>
            <g id="patterns_icon" transform="translate(99.000000, 268.739380)" fill="#76B6CE" fill-rule="nonzero" stroke="#76B6CE">
                <circle id="Oval" cx="25.3846154" cy="25.3846154" r="25.3846154"></circle>
                <circle id="Oval" cx="110" cy="25.3846154" r="25.3846154"></circle>
                <circle id="Oval" cx="194.615385" cy="25.3846154" r="25.3846154"></circle>
                <circle id="Oval" cx="25.3846154" cy="110" r="25.3846154"></circle>
                <circle id="Oval" cx="110" cy="110" r="25.3846154"></circle>
                <circle id="Oval" cx="194.615385" cy="110" r="25.3846154"></circle>
                <circle id="Oval" cx="25.3846154" cy="194.615385" r="25.3846154"></circle>
                <circle id="Oval" cx="110" cy="194.615385" r="25.3846154"></circle>
                <circle id="Oval" cx="194.615385" cy="194.615385" r="25.3846154"></circle>
                <rect id="Rectangle" x="16.7013846" y="125.220615" width="16.9230769" height="54.0269231"></rect>
                <rect id="Rectangle" x="100.968154" y="125.351769" width="16.9230769" height="54.0269231"></rect>
                <rect id="Rectangle" x="100.610231" y="40.1753846" width="16.9230769" height="54.0269231"></rect>
                <rect id="Rectangle" x="185.928769" y="40.7465385" width="16.9230769" height="54.0269231"></rect>
                <rect id="Rectangle" x="41.6705385" y="187.964615" width="53.3076923" height="16.9230769"></rect>
                <rect id="Rectangle" x="126.895154" y="17.4282308" width="53.3076923" height="16.9230769"></rect>
            </g>
            <g transform="translate(468.000000, 795.739380)" stroke="#E75370" stroke-linecap="round" stroke-linejoin="round" stroke-width="25">
                <line x1="146.183656" y1="2.90051619" x2="113.621598" y2="122.565961" id="Line" transform="translate(129.902627, 62.733239) rotate(9.773978) translate(-129.902627, -62.733239) "></line>
                <path d="M63.1359896,0 L11.0489153,52.2585227 C5.20068379,58.1260041 5.2162889,67.623466 11.0837703,73.4716975 C11.2342426,73.6216762 11.3878843,73.7684411 11.5445913,73.911893 L63.1359896,121.139409 L63.1359896,121.139409" id="Line-2"></path>
                <path d="M261.563385,0 L209.476311,52.2585227 C203.62808,58.1260041 203.643685,67.623466 209.511166,73.4716975 C209.661639,73.6216762 209.81528,73.7684411 209.971987,73.911893 L261.563385,121.139409 L261.563385,121.139409" id="Line-2-Copy" transform="translate(229.995391, 60.569704) scale(-1, 1) translate(-229.995391, -60.569704) "></path>
            </g>
        </g>
    </g>
</svg>