<?xml version="1.0" encoding="UTF-8"?>
<svg width="1003px" height="1003px" viewBox="0 0 1003 1003" version="1.1" xmlns="http://www.w3.org/2000/svg" xmlns:xlink="http://www.w3.org/1999/xlink">
    <title>choose_dot</title>
    <g id="choose_dot" stroke="none" stroke-width="1" fill="none" fill-rule="evenodd">
        <g id="dot.circle.and.hand.point.up.left.fill" fill="#FFFFFF" fill-rule="nonzero">
            <path d="M868.50669,829.204323 C991.456596,784.608229 1032.30996,682.83574 984.58793,551.3333 L965.112415,496.826445 C947.165003,447.27497 911.652205,425.548967 884.925999,435.078366 C878.439358,437.746349 876.52923,441.939004 878.439358,448.037695 L887.218153,472.051096 C891.420436,483.485753 887.218153,491.109116 880.723716,493.777099 C873.473024,496.064497 865.450484,492.633789 861.255998,481.199133 L855.525612,465.18968 C844.836689,436.221676 819.256559,424.024294 794.050659,433.172331 C782.215658,437.364986 778.396961,443.84504 782.215658,453.755024 L794.432685,486.535098 C798.634967,497.58917 794.81471,505.593897 788.32807,507.880517 C780.687556,510.548499 772.669694,507.118569 768.851775,496.064497 L757.778487,465.571043 C745.941928,432.409605 720.741485,424.024294 696.304314,432.790968 C685.613051,436.983623 681.413108,444.225624 684.849,453.373661 L708.140874,517.7905 C712.340817,529.607298 708.522899,536.849299 701.649555,539.517281 C694.394965,542.185264 686.758349,538.754556 682.176379,526.938537 L604.283676,312.723963 C596.647061,291.378544 577.55591,282.611871 559.992084,289.091924 C540.900154,296.333925 532.500266,314.629998 540.518128,335.594054 L655.448613,650.054887 C658.121234,657.678251 654.303316,663.776942 649.339321,665.301615 C644.757351,667.20765 639.793356,665.682977 633.302817,659.202924 L556.173386,576.109427 C544.336826,563.530682 532.882292,560.8627 520.281681,565.436718 C500.426479,572.678719 493.171889,590.593429 498.899156,606.602103 C500.808505,612.700794 504.245177,618.037538 507.68107,621.848831 L603.520405,741.534473 C684.467754,842.544237 777.633689,862.367317 868.50669,829.204323 Z" id="Path"></path>
            <path d="M389.185345,778 C445.274075,778 499.454825,765.795981 547.91163,743.295015 L505.940715,691.047141 C470.074717,705.539025 430.774508,713.166537 389.185345,713.166537 C209.09185,713.166537 65.2457945,569.007727 65.2457945,389 C65.2457945,208.992273 208.328346,65.2147219 388.803593,64.8333074 C569.660592,64.8333074 711.980107,208.229132 712.743611,387.856068 C732.583812,384.041922 756.240755,385.567425 777.994496,391.287864 C779.132636,177.719863 603.618608,0 389.185345,0 C176.278311,0 0,176.19436 0,389 C0,601.80564 176.659284,778 389.185345,778 Z M389.567097,506.081337 C453.667947,506.081337 506.704219,453.451893 506.704219,388.61843 C506.704219,324.548107 453.667947,271.918663 389.567097,271.918663 C325.084495,271.918663 272.048223,324.548107 272.048223,388.61843 C272.048223,453.451893 325.084495,506.081337 389.567097,506.081337 Z" id="Shape"></path>
        </g>
    </g>
</svg>