<?xml version="1.0" encoding="UTF-8"?>
<svg width="1026px" height="1026px" viewBox="0 0 1026 1026" version="1.1" xmlns="http://www.w3.org/2000/svg" xmlns:xlink="http://www.w3.org/1999/xlink">
    <title>choose_dot</title>
    <g id="choose_dot" stroke="none" stroke-width="1" fill="none" fill-rule="evenodd">
        <circle id="Oval" stroke="#FFFFFF" stroke-width="30" transform="translate(629.000000, 165.000000) rotate(90.000000) translate(-629.000000, -165.000000) " cx="629" cy="165" r="85"></circle>
        <circle id="Oval-Copy-3" stroke="#FFFFFF" stroke-width="30" transform="translate(629.000000, 397.000000) rotate(90.000000) translate(-629.000000, -397.000000) " cx="629" cy="397" r="85"></circle>
        <circle id="Oval-Copy" stroke="#FFFFFF" stroke-width="30" transform="translate(629.000000, 861.000000) rotate(90.000000) translate(-629.000000, -861.000000) " cx="629" cy="861" r="85"></circle>
        <circle id="Oval-Copy-10" stroke="#FFFFFF" stroke-width="30" transform="translate(629.000000, 629.000000) rotate(90.000000) translate(-629.000000, -629.000000) " cx="629" cy="629" r="85"></circle>
        <circle id="Oval-Copy-5" stroke="#FFFFFF" stroke-width="30" transform="translate(397.000000, 165.000000) rotate(90.000000) translate(-397.000000, -165.000000) " cx="397" cy="165" r="85"></circle>
        <circle id="Oval-Copy-4" stroke="#FFFFFF" stroke-width="30" transform="translate(397.000000, 397.000000) rotate(90.000000) translate(-397.000000, -397.000000) " cx="397" cy="397" r="85"></circle>
        <circle id="Oval-Copy-2" stroke="#FFFFFF" stroke-width="30" transform="translate(397.000000, 861.000000) rotate(90.000000) translate(-397.000000, -861.000000) " cx="397" cy="861" r="85"></circle>
        <circle id="Oval-Copy-11" stroke="#FFFFFF" stroke-width="30" transform="translate(397.000000, 629.000000) rotate(90.000000) translate(-397.000000, -629.000000) " cx="397" cy="629" r="85"></circle>
        <circle id="Oval-Copy-6" stroke="#FFFFFF" stroke-width="30" transform="translate(165.000000, 397.000000) rotate(90.000000) translate(-165.000000, -397.000000) " cx="165" cy="397" r="85"></circle>
        <circle id="Oval-Copy-12" stroke="#FFFFFF" stroke-width="30" transform="translate(165.000000, 629.000000) rotate(90.000000) translate(-165.000000, -629.000000) " cx="165" cy="629" r="85"></circle>
        <circle id="Oval-Copy-7" stroke="#FFFFFF" stroke-width="30" transform="translate(861.000000, 397.000000) rotate(90.000000) translate(-861.000000, -397.000000) " cx="861" cy="397" r="85"></circle>
        <circle id="Oval-Copy-13" stroke="#FFFFFF" stroke-width="30" transform="translate(861.000000, 629.000000) rotate(90.000000) translate(-861.000000, -629.000000) " cx="861" cy="629" r="85"></circle>
        <g id="Group" transform="translate(109.013810, 596.019080)" fill="#FFFFFF" fill-rule="nonzero">
            <g id="hand-tap-filled">
                <path d="M58.2204022,67.2643306 C73.0680314,67.2643306 85.3524166,55.0680314 85.3524166,40.0436267 C85.3524166,25.1959975 73.0680314,13 58.2204022,13 C43.2843852,13 31,25.1959975 31,40.0436267 C31,55.0680314 43.2843852,67.2643306 58.2204022,67.2643306 Z" id="Path"></path>
                <path d="M191.60879,266.662153 C240.10925,249.039504 256.226029,208.823133 237.397757,156.858501 L229.716221,135.31925 C222.636725,115.7383 208.628886,107.152933 198.085732,110.918382 C195.524877,111.972851 194.771685,113.629875 195.524877,116.039577 L198.989049,125.528775 C200.646073,130.047416 198.989049,133.060187 196.428708,134.114656 C193.566577,135.017973 190.403682,133.662741 188.747172,129.144099 L186.487595,122.817796 C182.27023,111.370297 172.178478,106.550379 162.237365,110.165703 C157.568085,111.822213 156.0617,114.383067 157.568085,118.299155 L162.388003,131.252525 C164.045027,135.620527 162.538642,138.783936 159.977787,139.687253 C156.965531,140.741723 153.802636,139.385976 152.296251,135.017973 L147.928248,122.968434 C143.258968,109.864426 133.317855,106.550379 123.678018,110.015065 C119.460654,111.671574 117.80363,114.533706 119.159377,118.148516 L128.347298,143.603854 C130.004321,148.273134 128.497936,151.134752 125.786957,152.189222 C122.924825,153.243691 119.912569,151.887944 118.104907,147.218665 L87.3782489,62.5685597 C84.3654786,54.1338312 76.8345812,50.6696595 69.9057236,53.2300001 C62.3748262,56.0921319 59.0607788,63.3217523 62.2241876,71.6063565 L107.561239,195.869764 C108.615709,198.88202 107.109324,201.292236 105.151537,201.89479 C103.343875,202.647468 101.386088,202.044914 98.8252336,199.484574 L68.3993385,166.648977 C63.7300587,161.67842 59.2114174,160.62395 54.2408605,162.431612 C46.408686,165.29323 43.5470684,172.372726 45.806132,178.698515 C46.5593245,181.108732 47.9150712,183.217157 49.2703037,184.723542 L87.0769719,232.018894 C119.008738,271.933987 155.760423,279.766162 191.60879,266.662153 Z" id="Path" stroke="#FFFFFF" stroke-width="15"></path>
            </g>
        </g>
    </g>
</svg>