<?xml version="1.0" encoding="UTF-8"?>
<svg width="1026px" height="1026px" viewBox="0 0 1026 1026" version="1.1" xmlns="http://www.w3.org/2000/svg" xmlns:xlink="http://www.w3.org/1999/xlink">
    <title>colouring_menu</title>
    <g id="colouring_menu" stroke="none" stroke-width="1" fill="none" fill-rule="evenodd">
        <g id="paintpalette.fill" transform="translate(0.000000, 82.000000)" fill-rule="nonzero">
            <rect id="Rectangle" fill="#000000" opacity="0" x="0" y="0" width="1026" height="861.601469"></rect>
            <path d="M551.118723,853.082507 C730.422531,853.082507 850.102323,789.623505 850.102323,695.925094 C850.102323,612.022036 778.550307,593.281772 778.550307,543.877605 C778.550307,475.733174 1026,462.104287 1026,287.058507 C1026,114.141886 847.546635,0 582.634523,0 C234.672703,0 0,173.767936 0,433.994619 C0,684.425948 222.747609,853.082507 551.118723,853.082507 Z M541.747864,463.80808 C604.356423,463.80808 655.464383,514.91604 655.464383,577.098651 C655.464383,639.705756 604.356423,690.387768 541.747864,690.387768 C479.566707,690.387768 428.458747,639.705756 428.458747,577.098651 C428.458747,514.91604 479.566707,463.80808 541.747864,463.80808 Z M201.451657,344.129741 C240.634523,344.129741 272.151776,375.219592 272.151776,414.403912 C272.151776,453.586779 240.634523,485.954475 201.451657,485.954475 C162.694738,485.954475 130.32617,453.586779 130.32617,414.403912 C130.32617,376.923385 163.972583,344.129741 201.451657,344.129741 Z M364.998291,157.583361 C413.552016,157.583361 454.012727,196.767681 454.012727,245.7459 C454.012727,296.001964 413.977964,335.18483 364.998291,335.18483 C314.742228,335.18483 274.707465,296.001964 274.707465,245.7459 C274.707465,196.767681 314.742228,157.583361 364.998291,157.583361 Z M792.605142,189.100615 C824.548343,189.100615 850.102323,215.506491 850.102323,247.449693 C850.102323,279.817389 824.548343,305.372823 792.605142,305.372823 C760.235992,305.372823 733.830116,279.817389 733.830116,247.449693 C733.830116,215.506491 760.235992,189.100615 792.605142,189.100615 Z M592.005381,124.789426 C632.040144,124.789426 663.555944,156.731465 663.555944,196.341733 C663.555944,235.950547 632.040144,267.892295 592.005381,267.892295 C552.821061,267.892295 519.601469,235.950547 519.601469,196.341733 C519.601469,156.731465 552.821061,124.789426 592.005381,124.789426 Z" id="Shape" fill="#FFFFFF"></path>
        </g>
    </g>
</svg>