<?xml version="1.0" encoding="UTF-8"?>
<svg width="1060px" height="1060px" viewBox="0 0 1060 1060" version="1.1" xmlns="http://www.w3.org/2000/svg" xmlns:xlink="http://www.w3.org/1999/xlink">
    <title>colouring_menu</title>
    <g id="colouring_menu" stroke="none" stroke-width="1" fill="none" fill-rule="evenodd">
        <g id="paintpalette.fill" transform="translate(0.000000, 84.717349)" fill-rule="nonzero">
            <rect id="Rectangle" fill="#000000" opacity="0" x="0" y="0" width="1060" height="890.153565"></rect>
            <path d="M569.381916,881.352297 C754.627566,881.352297 878.273356,815.790366 878.273356,718.986939 C878.273356,632.303468 804.35022,612.942182 804.35022,561.900839 C804.35022,491.49821 1060,477.417685 1060,296.571167 C1060,117.924365 875.632975,0 601.942099,0 C242.449381,0 0,179.526328 0,448.376507 C0,707.10673 230.129109,881.352297 569.381916,881.352297 Z M559.700522,479.177938 C624.383829,479.177938 677.185425,531.979534 677.185425,596.222778 C677.185425,660.904583 624.383829,713.266115 559.700522,713.266115 C495.458781,713.266115 442.657185,660.904583 442.657185,596.222778 C442.657185,531.979534 495.458781,479.177938 559.700522,479.177938 Z M208.127442,355.53365 C248.608766,355.53365 281.170451,387.65377 281.170451,428.136596 C281.170451,468.617919 248.608766,502.058229 208.127442,502.058229 C168.086182,502.058229 134.644971,468.617919 134.644971,428.136596 C134.644971,389.414023 169.406372,355.53365 208.127442,355.53365 Z M377.093751,162.805422 C427.256469,162.805422 469.057983,203.288247 469.057983,253.889526 C469.057983,305.810996 427.696532,346.29232 377.093751,346.29232 C325.172282,346.29232 283.810831,305.810996 283.810831,253.889526 C283.810831,203.288247 325.172282,162.805422 377.093751,162.805422 Z M818.870809,195.367107 C851.872558,195.367107 878.273356,222.648031 878.273356,255.64978 C878.273356,289.09009 851.872558,315.49239 818.870809,315.49239 C785.428997,315.49239 758.148073,289.09009 758.148073,255.64978 C758.148073,222.648031 785.428997,195.367107 818.870809,195.367107 Z M611.623493,128.924748 C652.984944,128.924748 685.545127,161.925295 685.545127,202.848184 C685.545127,243.769571 652.984944,276.769818 611.623493,276.769818 C571.140668,276.769818 536.820231,243.769571 536.820231,202.848184 C536.820231,161.925295 571.140668,128.924748 611.623493,128.924748 Z" id="Shape" fill="#FFFFFF"></path>
        </g>
    </g>
</svg>