<?xml version="1.0" encoding="UTF-8"?><!--Generator: Apple Native CoreSVG 175.5-->
<!DOCTYPE svg
    PUBLIC "-//W3C//DTD SVG 1.1//EN"
    "http://www.w3.org/Graphics/SVG/1.1/DTD/svg11.dtd">
<svg height="22.0996" version="1.1" width="25.6821" xmlns="http://www.w3.org/2000/svg">
    <g>
        <path
            d="M22.2168 21.2305C25.3613 20.0879 26.4062 17.4805 25.1855 14.1113L24.6875 12.7148C24.2285 11.4453 23.3203 10.8887 22.6367 11.1328C22.4707 11.2012 22.4219 11.3086 22.4707 11.4648L22.6953 12.0801C22.8027 12.373 22.6953 12.5684 22.5293 12.6367C22.3438 12.6953 22.1387 12.6074 22.0312 12.3145L21.8848 11.9043C21.6113 11.1621 20.957 10.8496 20.3125 11.084C20.0098 11.1914 19.9121 11.3574 20.0098 11.6113L20.3223 12.4512C20.4297 12.7344 20.332 12.9395 20.166 12.998C19.9707 13.0664 19.7656 12.9785 19.668 12.6953L19.3848 11.9141C19.082 11.0645 18.4375 10.8496 17.8125 11.0742C17.5391 11.1816 17.4316 11.3672 17.5195 11.6016L18.1152 13.252C18.2227 13.5547 18.125 13.7402 17.9492 13.8086C17.7637 13.877 17.5684 13.7891 17.4512 13.4863L15.459 7.99805C15.2637 7.45117 14.7754 7.22656 14.3262 7.39258C13.8379 7.57812 13.623 8.04688 13.8281 8.58398L16.7676 16.6406C16.8359 16.8359 16.7383 16.9922 16.6113 17.0312C16.4941 17.0801 16.3672 17.041 16.2012 16.875L14.2285 14.7461C13.9258 14.4238 13.6328 14.3555 13.3105 14.4727C12.8027 14.6582 12.6172 15.1172 12.7637 15.5273C12.8125 15.6836 12.9004 15.8203 12.9883 15.918L15.4395 18.9844C17.5098 21.5723 19.8926 22.0801 22.2168 21.2305Z" />
        <path
            d="M9.96094 19.9219C11.3965 19.9219 12.7832 19.6094 14.0234 19.0332L12.9492 17.6953C12.0312 18.0664 11.0254 18.2617 9.96094 18.2617C5.35156 18.2617 1.66992 14.5703 1.66992 9.96094C1.66992 5.35156 5.33203 1.66992 9.95117 1.66016C14.5801 1.66016 18.2227 5.33203 18.2422 9.93164C18.75 9.83398 19.3555 9.87305 19.9121 10.0195C19.9414 4.55078 15.4492 0 9.96094 0C4.51172 0 0 4.51172 0 9.96094C0 15.4102 4.52148 19.9219 9.96094 19.9219ZM9.9707 12.959C11.6113 12.959 12.9688 11.6113 12.9688 9.95117C12.9688 8.31055 11.6113 6.96289 9.9707 6.96289C8.32031 6.96289 6.96289 8.31055 6.96289 9.95117C6.96289 11.6113 8.32031 12.959 9.9707 12.959Z" />
    </g>
</svg>
