<?xml version="1.0" encoding="UTF-8"?>
<!--Generator: Apple Native CoreSVG 175.5-->
<!DOCTYPE svg
PUBLIC "-//W3C//DTD SVG 1.1//EN"
       "http://www.w3.org/Graphics/SVG/1.1/DTD/svg11.dtd">
<svg version="1.1" xmlns="http://www.w3.org/2000/svg" xmlns:xlink="http://www.w3.org/1999/xlink" width="34.881" height="20.2478">
 <g>
  <rect height="20.2478" opacity="0" width="34.881" x="0" y="0"/>
  <path d="M22.6856 20.08C23.0274 19.8749 23.1544 19.4159 22.959 19.0643L12.4708 0.92957C12.0313 0.167851 11.4161-0.0567584 10.713 0.011601C10.1368 0.0799604 9.37507 0.382695 8.67194 0.792851C6.23053 2.20887 5.3028 4.3866 2.92975 5.75379C1.8946 6.34949 0.996159 6.5741 0.566471 6.81824C0.0586589 7.11121-0.16595 7.59949 0.136784 8.1366L4.06257 14.9432C4.50202 15.705 5.12702 15.9198 5.82038 15.8514C6.39655 15.7831 7.16803 15.4804 7.86139 15.0604C10.3126 13.6444 11.2305 11.4764 13.6036 10.0995C14.3946 9.65027 15.1173 9.40613 15.5762 9.23035L21.6798 19.8065C21.8848 20.1679 22.3243 20.285 22.6856 20.08ZM5.36139 8.7323L4.19928 6.71082C5.10749 6.10535 5.79108 5.41199 6.43561 4.71863L7.57819 6.69129C6.8946 7.44324 6.22077 8.12684 5.36139 8.7323ZM9.77546 4.63074L8.61335 2.58973C8.85749 2.41394 9.13092 2.23816 9.40436 2.07215C9.65827 1.92566 10.3907 1.50574 11.0938 1.47644L12.3243 3.61512C11.9727 3.54676 11.3282 3.67371 10.5176 4.14246C10.3126 4.26941 10.0196 4.46473 9.77546 4.63074ZM4.19928 12.2284L2.87116 9.92371C3.27155 9.81629 3.96491 9.57215 4.74616 9.11316C4.961 8.99598 5.15632 8.84949 5.36139 8.7323L6.68952 11.037C6.50397 11.1737 6.31842 11.2811 6.07428 11.4179C5.36139 11.828 4.73639 12.0917 4.19928 12.2284ZM8.91608 9.00574L7.57819 6.69129C8.29108 5.95887 8.89655 5.26551 9.77546 4.63074L11.1231 6.92566C10.254 7.57019 9.66803 8.22449 8.91608 9.00574ZM7.95905 13.2343L6.68952 11.037C7.54889 10.4022 8.21296 9.78699 8.91608 9.00574L10.127 11.1151C9.44342 11.8573 8.78913 12.6093 7.95905 13.2343ZM12.3829 9.11316L11.1231 6.92566C11.3673 6.74988 11.5333 6.63269 11.8458 6.45691C12.6758 5.98816 13.3106 5.86121 13.6524 5.9198L14.8048 7.90223C14.17 8.07801 13.418 8.50769 12.8614 8.82019C12.6954 8.91785 12.5391 9.00574 12.3829 9.11316ZM18.1153 8.36121L18.9649 9.82605L19.3067 9.23035C19.7657 9.40613 20.4786 9.65027 21.2794 10.0995C23.6426 11.4764 24.5704 13.6444 27.0118 15.0604C27.7149 15.4804 28.4766 15.7831 29.0528 15.8514C29.7559 15.9198 30.3712 15.705 30.8106 14.9432L34.7462 8.1366C35.0489 7.59949 34.8145 7.11121 34.3165 6.81824C33.8868 6.5741 32.9786 6.34949 31.9434 5.75379C29.5704 4.3866 28.6524 2.20887 26.211 0.792851C25.5079 0.382695 24.7364 0.0799604 24.17 0.011601C23.4669-0.0567584 22.8516 0.167851 22.4122 0.92957ZM22.5587 3.61512L23.7891 1.47644C24.4923 1.50574 25.2149 1.92566 25.4688 2.07215C25.752 2.23816 26.0157 2.41394 26.2598 2.58973L25.0977 4.63074C24.8633 4.46473 24.5704 4.26941 24.3555 4.14246C23.545 3.67371 22.9102 3.54676 22.5587 3.61512ZM27.295 6.69129L28.4473 4.71863C29.0919 5.41199 29.7755 6.10535 30.6837 6.71082L29.5215 8.7323C28.6622 8.12684 27.9883 7.44324 27.295 6.69129ZM23.7598 6.92566L25.0977 4.63074C25.9864 5.26551 26.5919 5.95887 27.295 6.69129L25.9669 9.00574C25.2149 8.22449 24.629 7.57019 23.7598 6.92566ZM28.1934 11.037L29.5215 8.7323C29.7266 8.84949 29.9219 8.99598 30.1368 9.11316C30.918 9.57215 31.6114 9.81629 32.0118 9.92371L30.6837 12.2284C30.1465 12.0917 29.5118 11.828 28.8087 11.4179C28.5645 11.2811 28.379 11.1737 28.1934 11.037ZM20.0782 7.90223L21.2305 5.9198C21.5723 5.86121 22.2071 5.98816 23.0274 6.45691C23.3497 6.63269 23.5157 6.74988 23.7598 6.92566L22.4903 9.11316C22.334 9.00574 22.1778 8.91785 22.0118 8.82019C21.4649 8.50769 20.713 8.07801 20.0782 7.90223ZM24.7462 11.1151L25.9669 9.00574C26.67 9.78699 27.3243 10.4022 28.1934 11.037L26.9239 13.2343C26.0938 12.6093 25.4395 11.8573 24.7462 11.1151ZM12.1973 20.08C12.5587 20.285 12.9981 20.1679 13.1934 19.8065L16.7676 13.6346L15.9083 12.16L11.9239 19.0643C11.7188 19.4159 11.8555 19.8749 12.1973 20.08Z" fill="#ffffff" fill-opacity="0.85"/>
 </g>
</svg>
