<?xml version="1.0" encoding="UTF-8"?>
<svg width="1026px" height="1026px" viewBox="0 0 1026 1026" version="1.1" xmlns="http://www.w3.org/2000/svg" xmlns:xlink="http://www.w3.org/1999/xlink">
    <title>gesture_video_seen</title>
    <g id="gesture_video_seen" stroke="none" stroke-width="1" fill="none" fill-rule="evenodd">
        <g id="gesture_gray">
            <path d="M369.028096,1025 C360.220865,1022.96437 351.569947,1021.75373 343.593127,1018.75153 C300.963784,1002.69102 274.717942,971.956362 268.997883,926.918575 C260.732861,861.817346 305.032793,813.728549 356.576831,802.549649 C418.872236,789.037336 480.791514,830.667756 491.420762,893.459979 C501.493148,952.981522 462.351528,1010.55042 403.475457,1022.73493 C399.743497,1023.50622 395.93338,1023.90652 391.864371,1024.74127 C384.209945,1025 376.85349,1025 369.028096,1025 Z" id="Path" fill="#D9D9D9" fill-rule="nonzero"></path>
            <path d="M2,633.567593 C2.81970826,629.622387 3.67845025,626.151387 4.46400369,622.665723 C16.5449421,569.173228 62.9218883,532.571301 116.768916,534.042809 C171.006278,535.528983 215.294921,574.472614 224.516638,628.786414 C234.499514,687.583181 192.948112,746.345726 134.382884,756.250295 C69.3868503,767.245051 12.4171261,725.407292 2.33666558,659.326316 C2,650.766148 2,642.401529 2,633.567593 Z" id="Path" fill="#7D7D7D" fill-rule="nonzero"></path>
            <path d="M657.012045,1 C665.501891,2.91702212 673.786574,4.0926017 681.489962,6.8778929 C724.838002,22.5506498 751.230774,53.3644681 757.02419,98.875458 C765.343067,164.205437 719.308367,214.457765 663.333025,223.594108 C605.945963,232.964593 549.443058,194.526586 536.693634,137.123227 C522.263828,72.1542147 567.389948,9.31685274 634.234052,1.32194332 C641.829973,1 649.186538,1 657.012045,1 Z" id="Path" fill="#757575" fill-rule="nonzero"></path>
            <path d="M753.615338,940.750819 C747.437624,963.091009 735.768607,981.652578 718.720255,996.533036 C703.448788,1009.86792 685.645869,1018.4588 665.559775,1022.04239 C632.183562,1027.99555 601.888906,1020.35055 575.629965,999.385287 C553.557657,981.764718 539.926765,958.405517 535.448043,930.151173 C526.402972,873.12079 560.782028,822.545758 609.264191,806.446388 C648.287488,793.486932 684.453166,800.142183 716.334849,825.734427 C738.436367,843.476888 751.994236,867.026237 755.80115,895.534115 C757.806837,910.555968 757.436857,925.553443 753.615338,940.750819 Z" id="Path" fill="#636363" fill-rule="nonzero"></path>
            <path d="M978.195954,555.133685 C1014.94329,584.27088 1030.57142,622.00345 1021.46031,667.602477 C1012.38827,712.996035 983.662621,742.255532 939.040152,754.329173 C874.808027,771.710713 807.913406,725.275142 800.727107,659.178324 C795.069913,607.063055 822.774534,559.707775 871.608146,541.005374 C909.058973,526.661811 944.892759,531.725109 978.195954,555.133685 Z" id="Path" fill="#7D7D7D" fill-rule="nonzero"></path>
            <path d="M991.329429,457.75436 C958.288756,488.883579 919.803161,498.716939 877.176495,484.859511 C835.721829,471.382539 810.250333,441.711741 801.982839,398.729812 C790.238409,337.661525 831.942124,278.695508 893.291514,268.540222 C955.41247,258.25324 1014.20787,300.605951 1022.77813,362.405887 C1027.84216,398.939552 1017.12811,430.761397 991.329429,457.75436 Z" id="Path" fill="#636363" fill-rule="nonzero"></path>
            <path d="M494,376.997559 C494,439.960617 442.959524,491 380,491 C317.040476,491 266,439.960617 266,376.997559 C266,314.039383 317.040476,263 380,263 C442.959524,263 494,314.039383 494,376.997559 Z" id="Path" fill="#7A7A7A" fill-rule="nonzero"></path>
            <path d="M499,114 C499,176.959524 447.959524,228 385,228 C322.040476,228 271,176.959524 271,114 C271,51.0404761 322.040476,0 385,0 C447.959524,0 499,51.0404761 499,114 Z" id="Path" fill="#7A7A7A" fill-rule="nonzero"></path>
            <path d="M764,381.997559 C764,444.960617 712.959524,496 650,496 C587.035594,496 536,444.960617 536,381.997559 C536,319.039383 587.035594,268 650,268 C712.959524,268 764,319.039383 764,381.997559 Z" id="Path" fill="#D9D9D9" fill-rule="nonzero"></path>
            <path d="M228,376.997559 C228,439.960617 176.959524,491 114,491 C51.0404771,491 0,439.960617 0,376.997559 C0,314.039383 51.0404771,263 114,263 C176.959524,263 228,314.039383 228,376.997559 Z" id="Path" fill="#757575" fill-rule="nonzero"></path>
            <path d="M757,641.997559 C757,704.960617 705.964407,756 643,756 C580.040477,756 529,704.960617 529,641.997559 C529,579.039383 580.040477,528 643,528 C705.964407,528 757,579.039383 757,641.997559 Z" id="Path" fill="#7A7A7A" fill-rule="nonzero"></path>
            <path d="M499,645 C499,707.959524 447.959524,759 385,759 C322.040476,759 271,707.959524 271,645 C271,582.035594 322.040476,531 385,531 C447.959524,531 499,582.035594 499,645 Z" id="Path" fill="#7A7A7A" fill-rule="nonzero"></path>
            <path d="M614.032227,462.322942 C621.14095,464.714263 627.483141,469.340739 634.303804,472.69347 C636.300692,473.6744 638.917639,474.518682 640.968231,474.08922 C659.604217,470.189901 677.717788,470.292388 695.182005,480.013843 C707.534388,488.124816 714.74564,499.734927 720.868125,512.565101 C731.072266,533.955231 743.112178,554.510839 752.549788,576.213305 C767.675352,610.980196 776.365962,647.396611 776.595432,685.662641 C776.65402,695.384096 779.261204,705.086032 780.647795,714.802606 C781.62915,721.664236 780.838206,723.147832 774.671781,726.158945 C724.954664,750.433301 675.227783,774.678377 625.530196,798.986896 C622.117422,800.651061 618.82671,802.178578 615.252819,799.689652 C611.776575,797.264169 611.849811,793.896797 611.942575,789.963317 C612.006047,787.30358 610.214219,783.672675 608.065978,782.101236 C604.39444,779.417098 599.941724,777.547964 595.562243,776.132691 C550.322254,761.530987 505.951327,744.8991 463.928816,720.976122 C459.563983,718.277343 455.872915,715.700572 451.967024,713.499579 C429.464205,700.815814 407.659567,687.073034 387.641872,670.694919 C374.869607,660.246306 362.492813,649.255987 354.519912,634.454192 C343.305122,613.63017 350.657962,600.638949 366.701412,589.633988 C378.902441,581.264361 392.753708,581.025229 406.028856,585.622424 C420.583185,590.668601 434.483277,597.598554 448.671427,603.689104 C450.809904,604.606591 452.977672,605.441114 455.135678,606.314679 C455.575091,605.890097 456.014504,605.460635 456.453916,605.036053 L429.581382,544.159831 C421.471775,525.834497 413.362168,507.509163 404.974265,488.588439 C392.792767,462.889049 380.894446,437.78505 368.996123,412.676171 C366.833236,408.113138 364.714289,404.736007 358.85057,402.661901 C339.008641,395.639224 327.915909,373.448733 331.753447,351.448572 C335.215043,331.581079 353.685028,315.159043 373.775958,314.080508 C403.050615,312.504187 425.060313,334.255455 423.52725,363.532068 C423.302662,367.773003 424.210782,371.194057 426.393198,374.737118 C435.376749,389.324181 444.135711,404.052771 453.016731,418.708158 C458.607039,427.931829 464.270582,437.111576 469.90483,446.305965 L497.426718,492.473117 C500.683255,489.027662 503.075614,486.299603 505.673032,483.781395 C522.409777,467.505765 541.983176,464.968036 562.196165,476.63183 C565.110936,478.315516 566.932059,478.632732 569.397652,475.943715 C571.843717,473.274219 574.96843,471.234275 578.010143,468.628222 C589.44464,462.015486 601.347845,458.057604 614.032227,462.322942 Z M457.2888,565.642686 C458.177391,567.960804 459.065981,570.283802 459.959454,572.601921 C464.036229,583.138377 468.445003,593.562588 472.062836,604.255213 C474.128076,610.370166 474.391723,616.987781 468.820946,621.833869 C463.377109,626.56771 457.264389,624.674173 451.322552,622.658631 C450.536491,622.390217 449.769959,622.04372 449.022958,621.682581 C440.927998,617.773502 432.974626,613.527685 424.703901,610.033427 C416.149999,606.422043 407.381272,603.2206 398.51978,600.438859 C392.241059,598.462359 385.405749,598.130501 379.444382,601.190417 C365.070702,608.574234 361.428458,615.938529 369.694301,628.749181 C373.180309,634.151617 377.408437,639.227076 381.983212,643.760826 C408.992452,670.51923 441.689646,689.17154 474.694429,708.531487 C476.129845,709.36601 477.550613,710.229813 479.01044,711.025294 C516.048056,731.332009 555.409679,746.080121 595.406008,759.203109 C608.046449,763.3562 620.555066,767.162795 627.151141,780.466352 C644.01971,772.233372 660.414689,764.239526 676.79014,756.201756 C677.156317,756.021187 677.312553,755.420916 678.318319,754.91337 C691.412821,748.398238 704.512204,741.883106 718.378119,735.10444 C733.049625,728.286733 747.735777,721.503187 762.343811,714.558594 C763.168931,714.168174 763.886637,712.416165 763.788991,711.376672 C762.46587,697.175148 760.996278,682.988266 759.746392,668.127908 C759.565745,666.351497 759.399745,664.570207 759.209333,662.798676 C756.348267,635.99147 748.888014,610.379925 738.981697,585.427214 C736.828574,580.015018 734.123744,574.822433 731.902269,568.678201 C731.477503,568.400027 731.052737,568.121852 730.632854,567.951043 C730.632854,567.951043 730.740266,567.931523 731.335915,567.326371 C720.902302,547.317353 710.873925,527.083841 699.888606,507.382277 C693.24859,495.46471 682.273035,488.568918 668.40712,488.60796 C658.696097,488.632361 648.941133,490.16476 639.313111,491.687398 C635.412101,492.30719 632.140916,492.409675 628.835556,489.413201 C624.744135,486.343525 620.931008,482.790704 616.502704,480.326179 C609.628335,476.495184 602.216905,475.294642 593.916886,478.857223 C587.970167,483.268968 581.408269,487.065802 576.22808,492.243745 C569.285358,499.19322 567.288471,499.949658 559.569452,494.161683 C557.97292,492.966022 556.337327,491.809404 554.633382,490.779671 C541.377763,482.751662 528.834969,483.835078 517.747119,494.693631 C513.289521,499.061454 509.759571,504.424846 506.131974,509.568629 C502.372554,514.892979 496.821306,515.751903 492.251413,511.135188 C490.269172,509.134287 488.423639,506.928413 486.905223,504.561493 C479.083675,492.385274 471.408598,480.111448 463.635874,467.905946 C461.868459,465.133965 459.915513,462.47911 457.991861,459.043415 C456.698035,456.720415 455.487208,454.348615 454.110381,452.079299 C437.275988,424.325325 421.745188,399.118841 404.793618,371.43319 C400.414138,364.273865 394.008476,352.868723 386.152752,349.247579 C378.297026,345.631315 376.446611,346.846497 371.852305,349.247579 C368.791064,350.853181 367.165236,355.133159 366.969941,362.097274 C369.420889,373.234002 372.057365,381.793957 374.884255,387.762502 C387.490519,414.398899 400.233491,440.971853 412.991108,467.539927 C415.559232,472.878919 418.415416,478.081264 421.022598,484.103491 C421.208128,484.733044 421.330187,485.391876 421.593835,485.992147 C431.998153,509.871204 442.392706,533.755141 452.880026,557.600036 C453.797909,559.688782 455.335855,561.509115 456.50274,564.212773 C456.893329,564.461666 457.283918,564.705678 457.615919,564.954571 C457.615919,564.954571 457.664742,564.92529 457.2888,565.642686 Z" id="Shape" fill="#050505" fill-rule="nonzero"></path>
            <path d="M353.345508,353.986816 C351.713216,358.050511 351.907537,362.706524 351.907537,370.59116 C353.345508,377.640724 352.563369,372.999276 353.345508,378 C348.769262,372.960435 345.587264,363.653264 347.632486,354.637395 C350.838774,340.538268 361.094038,331.585517 375.765234,330.085299 C386.146806,329.026894 399.754098,337.994211 404,347.199427 C402.037363,346.126455 404.752992,347.218846 399.875548,343.752326 C396.625537,341.441312 393.273509,339.232254 389.814605,337.120297 C380.487222,334.003342 372.976736,334.003342 367.283145,337.120297 C358.737902,341.800587 355.803663,347.961673 353.345508,353.986816 Z" id="Path" fill="#6B6B6B" fill-rule="nonzero"></path>
            <path d="M331,278 C331.076923,277.006212 331.424909,276.304347 332,276 C331.908425,277.031056 331.586081,277.670808 331,278 Z" id="Path" fill="#DEDEDE" fill-rule="nonzero"></path>
            <path d="M488.700583,379.468645 C493.813632,331.006784 433.075471,231.125687 334.559177,274.777535 C236.047752,318.429382 272.058231,437.951367 309.812017,466" id="Path" stroke="#000000" stroke-width="16" stroke-linecap="round" stroke-linejoin="round"></path>
            <path d="M543.544799,359.917145 C551.313318,286.499989 459.092066,135.200886 309.512682,201.326697 C159.928415,267.447618 214.605896,448.503824 271.929849,491" id="Path" stroke="#000000" stroke-width="16" stroke-linecap="round" stroke-linejoin="round"></path>
        </g>
        <g id="Group" transform="translate(254.000000, 214.000000)">
            <circle id="Oval" stroke="#398D3D" stroke-width="50" fill="#398D3D" cx="258" cy="258" r="233"></circle>
            <polyline id="Line-Copy" stroke="#FFFFFF" stroke-width="80" stroke-linecap="square" points="147.705 273.890197 210.843638 337.335 367.65 178.665"></polyline>
        </g>
    </g>
</svg>