<?xml version="1.0" encoding="UTF-8"?>
<svg width="1026px" height="1026px" viewBox="0 0 1026 1026" version="1.1" xmlns="http://www.w3.org/2000/svg" xmlns:xlink="http://www.w3.org/1999/xlink">
    <title>gesture_video_seen</title>
    <g id="gesture_video_seen" stroke="none" stroke-width="1" fill="none" fill-rule="evenodd">
        <g id="Group" transform="translate(-1.084004, 0.379777)">
            <path d="M369.468632,1024.5 C360.664128,1022.46149 352.015995,1021.25128 344.044499,1018.24628 C301.428349,1002.18128 275.193058,971.442813 269.477238,926.3949 C261.214726,861.275882 305.49799,813.174136 357.020909,801.992618 C419.292607,788.478336 481.187168,830.120181 491.810185,892.924503 C501.880985,952.464053 462.753758,1010.04578 403.900181,1022.23151 C400.168614,1023.00409 396.36005,1023.40497 392.293644,1024.23938 C384.645756,1024.5 377.291508,1024.5 369.468632,1024.5 Z" id="Path" fill="#FFDE59" fill-rule="nonzero"></path>
            <path d="M2,632.968631 C2.824143,629.027774 3.680123,625.562686 4.467688,622.082156 C16.557992,568.651309 62.967499,532.095523 116.85519,533.566898 C171.13213,535.048892 215.454045,573.944766 224.681843,628.192935 C234.671894,686.922427 193.09145,745.612552 134.483906,755.50574 C69.438015,766.485782 12.426398,724.698306 2.340466,658.699466 C2,650.145755 2,641.791507 2,632.968631 Z" id="Path" fill="#01BF63" fill-rule="nonzero"></path>
            <path d="M657.531376,0.5 C666.01453,2.419305 674.298832,3.593452 681.998905,6.381341 C725.328556,22.069265 751.708012,52.913848 757.499882,98.470485 C765.814518,163.87041 719.80225,214.170642 663.84705,223.318668 C606.485661,232.696582 550.007267,194.221744 537.260929,136.757144 C522.835514,71.723079 567.944218,8.825174 634.759587,0.82189 C642.354252,0.5 649.7085,0.5 657.531376,0.5 Z" id="Path" fill="#FE3C30" fill-rule="nonzero"></path>
            <path d="M754.897831,940.222659 C748.703373,962.594363 736.998905,981.182132 719.89777,996.0871 C704.579716,1009.43817 686.722599,1018.04126 666.57935,1021.63043 C633.099247,1027.59619 602.714543,1019.93781 576.377873,998.942569 C554.23975,981.294437 540.566471,957.899112 536.072514,929.603152 C527.002079,872.491031 561.482487,821.840945 610.113041,805.717715 C649.251957,792.741397 685.529118,799.405704 717.50623,825.03754 C739.671879,842.804813 753.269779,866.388003 757.089543,894.93909 C759.102116,909.982608 758.729374,925.002566 754.897831,940.222659 Z" id="Path" fill="#007AFF" fill-rule="nonzero"></path>
            <path d="M979.222599,555.243167 C1015.95325,584.326114 1031.57264,621.986209 1022.46558,667.502139 C1013.40015,712.809756 984.687809,742.014285 940.089054,754.065066 C875.890263,771.411929 809.025944,725.065555 801.848087,659.091251 C796.189091,607.077212 823.88184,559.808719 872.688603,541.143863 C910.12183,526.828494 945.9361,531.881473 979.222599,555.243167 Z" id="Path" fill="#01BF63" fill-rule="nonzero"></path>
            <path d="M992.291996,457.789065 C959.254215,488.950717 920.770451,498.796054 878.148747,484.92197 C836.699955,471.429721 811.231571,441.731906 802.965824,398.704562 C791.221562,337.569522 832.91779,278.539218 894.261967,268.372836 C956.378605,258.078403 1015.16797,300.474124 1023.73536,362.339847 C1028.79981,398.910739 1018.08387,430.766238 992.291996,457.789065 Z" id="Path" fill="#007AFF" fill-rule="nonzero"></path>
            <circle id="Oval" fill="#00BC62" cx="380" cy="377" r="114"></circle>
            <circle id="Oval-Copy-5" fill="#00BC62" cx="385" cy="114" r="114"></circle>
            <circle id="Oval-Copy" fill="#FFDE59" cx="651" cy="382" r="114"></circle>
            <circle id="Oval-Copy-2" fill="#FE3C30" cx="114" cy="377" r="114"></circle>
            <circle id="Oval-Copy-3" fill="#00BC62" cx="644" cy="642" r="114"></circle>
            <circle id="Oval-Copy-4" fill="#00BC62" cx="385" cy="645" r="114"></circle>
            <path d="M614.427799,461.796786 C621.540287,464.189517 627.880741,468.81943 634.701542,472.17197 C636.698979,473.153751 639.315617,473.997928 641.369023,473.568515 C660.007145,469.671024 678.122441,469.773624 695.587956,479.496616 C707.937748,487.613803 715.149784,499.230167 721.272831,512.068912 C731.478764,533.468753 743.518498,554.036563 752.959721,575.748904 C768.084965,610.532718 776.776127,646.968509 777.008061,685.254336 C777.06696,694.979678 779.672001,704.686221 781.061039,714.407962 C782.041935,721.273624 781.250309,722.761539 775.083256,725.773563 C725.362675,750.05762 675.63123,774.319644 625.92725,798.637576 C622.516911,800.306094 619.222355,801.833011 615.649967,799.340884 C612.173283,796.915469 612.24799,793.544315 612.339604,789.609805 C612.401554,786.949893 610.610233,783.317203 608.459538,781.742679 C604.791386,779.057132 600.337895,777.186954 595.956608,775.772464 C550.713566,761.165103 506.336155,744.523868 464.310429,720.587283 C459.948734,717.884463 456.254276,715.307071 452.348393,713.104495 C429.845219,700.41431 408.035404,686.665652 388.016483,670.280704 C375.242192,659.825381 362.867863,648.828738 354.894566,634.019168 C343.678684,613.186893 351.031437,600.185428 367.076359,589.176578 C379.279392,580.803653 393.131809,580.561526 406.40543,585.163821 C420.960362,590.210391 434.861027,597.142459 449.053257,603.237918 C451.190037,604.155643 453.361729,604.992068 455.517246,605.866153 C455.95612,605.439395 456.394962,605.012637 456.833805,604.585818 C447.876774,584.28284 438.919712,563.9798 429.96265,543.676761 C421.851414,525.343387 413.740116,507.010013 405.349461,488.079105 C393.169773,462.363711 381.268192,437.246371 369.370243,412.127383 C367.206944,407.560214 365.090122,404.181857 359.222325,402.103915 C339.379246,395.076968 328.287052,372.879031 332.122471,350.863284 C335.584873,330.98865 354.05637,314.557101 374.1507,313.476535 C403.428013,311.902164 425.441319,333.662662 423.904606,362.95322 C423.681858,367.198306 424.591679,370.621188 426.77393,374.166202 C435.759098,388.762668 444.516117,403.499393 453.398564,418.159396 C458.989903,427.387576 464.654911,436.57117 470.2869,445.774753 C479.364628,461.007663 488.442356,476.240573 497.812382,491.963992 C501.069126,488.516513 503.464329,485.789493 506.058048,483.266513 C522.795902,466.985416 542.372868,464.442447 562.588505,476.113315 C565.504521,477.796817 567.323185,478.114017 569.788151,475.425418 C572.23444,472.757266 575.363651,470.715243 578.405644,468.108585 C589.839421,461.488559 601.74506,457.530093 614.427799,461.796786 Z M457.67252,565.171634 C458.562016,567.492679 459.445835,569.815982 460.341923,572.134463 C464.416874,582.677676 468.827244,593.107303 472.444126,603.805301 C474.51276,609.923892 474.775303,616.544192 469.204167,621.39191 C463.761906,626.127505 457.648686,624.236148 451.702671,622.216067 C450.916355,621.948917 450.152531,621.602603 449.403446,621.240909 C441.306736,617.331973 433.354435,613.082767 425.083409,609.587405 C416.526646,605.971133 407.760441,602.769839 398.898045,599.984683 C392.616306,598.010623 385.783634,597.67493 379.821202,600.738773 C365.4455,608.125491 361.800572,615.492557 370.065952,628.310855 C373.553227,633.718997 377.784397,638.792728 382.360447,643.329593 C409.367741,670.105533 442.072209,688.765262 475.077793,708.134952 C476.515263,708.968936 477.936039,709.833377 479.392704,710.632327 C516.43433,730.950442 555.800846,745.702396 595.80225,758.836368 C608.444096,762.987125 620.953007,766.79639 627.548039,780.109317 C644.417546,771.872073 660.815251,763.870731 677.194523,755.831912 C677.559879,755.652591 677.716252,755.04761 678.718754,754.540347 C691.818241,748.021915 704.917729,741.503543 718.784672,734.72449 C733.455815,727.902408 748.143376,721.11481 762.754887,714.167422 C763.581303,713.774478 764.295292,712.020816 764.198612,710.980716 C762.878178,696.771976 761.405461,682.577335 760.154728,667.710208 C759.976505,665.932376 759.808048,664.153567 759.618656,662.376956 C756.759648,635.558292 749.295536,609.932315 739.387394,584.964969 C737.238468,579.549869 734.529423,574.357059 732.311955,568.20679 C731.885075,567.928531 731.458256,567.650272 731.04102,567.482608 C731.04102,567.482608 731.149906,567.460879 731.741032,566.856876 C721.308476,546.836795 711.27808,526.592654 700.293339,506.880222 C693.650578,494.959476 682.677494,488.060123 668.809696,488.096988 C659.099003,488.122806 649.341435,489.652743 639.710697,491.179477 C635.810856,491.797671 632.539066,491.901034 629.23328,488.900882 C625.14362,485.832675 621.326603,482.274936 616.901188,479.809451 C610.024113,475.978183 602.612736,474.775851 594.312687,478.33945 C588.365544,482.754245 581.800907,486.552188 576.622807,491.735355 C569.678715,498.686252 567.682255,499.442386 559.961308,493.654513 C558.364994,492.457889 556.727116,491.300662 555.02216,490.267856 C541.767887,482.238773 529.223454,483.320987 518.135624,494.187167 C513.678593,498.555087 510.148075,503.924411 506.519962,509.066653 C502.758915,514.397098 497.207218,515.255069 492.634892,510.635257 C490.655766,508.635562 488.809849,506.425113 487.292088,504.060886 C479.469853,491.876163 471.7934,479.597995 464.01865,467.382571 C462.2533,464.608859 460.299778,461.954898 458.372746,458.517947 C457.082524,456.192844 455.868046,453.82178 454.490513,451.549594 C437.654392,423.778903 422.123569,398.55881 405.172122,370.858554 C400.790731,363.698886 394.382651,352.285966 386.526973,348.664675 C378.671295,345.043384 376.820475,346.26027 372.2276,348.664675 C369.165684,350.267612 367.537206,354.551849 367.342167,361.517385 C369.794376,372.66455 372.433384,381.224735 375.25919,387.19794 C387.867619,413.849551 400.612766,440.436679 413.371067,467.017032 C415.936131,472.361026 418.79456,477.564181 421.402806,483.590305 C421.588841,484.221255 421.70966,484.880649 421.970341,485.479098 C432.377842,509.370975 442.772892,533.268314 453.260594,557.125003 C454.179875,559.216128 455.718113,561.035037 456.884831,563.742618 C457.274876,563.988406 457.664952,564.234256 457.996067,564.48511 C457.996067,564.48511 458.045231,564.451907 457.67252,565.171634 Z" id="Shape" fill="#040705" fill-rule="nonzero"></path>
            <path d="M353.334355,354.209069 C351.693378,358.29532 351.888574,362.979328 351.888574,370.909358 C353.334355,378 352.548776,373.330668 353.334355,378.362765 C348.737727,373.292726 345.535496,363.933414 347.5947,354.866519 C350.815281,340.68613 361.12476,331.681918 375.867558,330.173251 C386.303898,329.105258 399.980619,338.125736 404.246366,347.38245 C402.277525,346.303867 405.005431,347.401204 400.104082,343.917488 C396.836516,341.59501 393.464764,339.372068 389.988826,337.248663 C380.616273,334.112369 373.067387,334.112369 367.342167,337.248663 C358.754337,341.953103 355.80794,348.150931 353.334355,354.209069 Z" id="Path" fill="#00A656" fill-rule="nonzero"></path>
            <path d="M331.259495,277.60596 C331.364536,276.820712 331.824101,276.272647 332.592777,276.032901 C332.47266,276.84183 332.043339,277.342471 331.259495,277.60596 Z" id="Path" fill="#D4E4DC" fill-rule="nonzero"></path>
            <path d="M489.43256,378.78234 C494.562512,330.370751 433.658272,230.603359 334.874912,274.205539 C236.091552,317.807719 272.200787,437.196555 310.057502,465.215448" id="Path-2" stroke="#000000" stroke-width="20" stroke-linecap="round" stroke-linejoin="round"></path>
            <path d="M544.023536,359.602809 C551.791452,286.296644 459.568569,135.226102 309.988075,201.249728 C160.407582,267.273353 215.085183,448.055227 272.408866,490.482211" id="Path-2-Copy" stroke="#000000" stroke-width="20" stroke-linecap="round" stroke-linejoin="round"></path>
        </g>
        <g id="watched" transform="translate(254.000000, 214.000000)">
            <circle id="Oval" stroke="#398D3D" stroke-width="50" fill="#FFFFFF" cx="258" cy="258" r="233"></circle>
            <g id="Group" transform="translate(116.100000, 178.665000)" stroke-linecap="square" stroke-width="60">
                <polyline id="Line" stroke="#398D3D" points="64.5 95.225197 127.638638 158.67 284.445 0"></polyline>
                <polyline id="Line-Copy" stroke="#71B174" points="-1.65837107e-12 95.225197 63.1386384 158.67 219.945 0"></polyline>
            </g>
        </g>
    </g>
</svg>