<?xml version="1.0" encoding="UTF-8"?>
<svg width="1003px" height="1003px" viewBox="0 0 1003 1003" version="1.1" xmlns="http://www.w3.org/2000/svg" xmlns:xlink="http://www.w3.org/1999/xlink">
    <title>go_to</title>
    <g id="go_to" stroke="none" stroke-width="1" fill="none" fill-rule="evenodd">
        <g id="Group" transform="translate(100.315594, 0.079047)" fill="#FFFFFF" stroke="#FFFFFF" stroke-width="15">
            <g id="position">
                <path d="M401.498388,7.5 C505.891228,7.5 606.195805,52.3126711 679.48325,125.422148 C749.982344,195.750045 795.496777,292.310529 795.496777,400.523404 C795.496777,536.313781 683.224072,713.785919 460.898279,933.464789 C453.759919,940.518163 447.212684,949.822042 440.618913,959.278142 L440.081966,960.048107 L440.081966,960.048107 L439.54699,960.814834 L438.369196,962.499348 L437.994576,963.033596 L437.994576,963.033596 L437.623049,963.56246 L436.868318,964.633229 L436.117751,965.692468 C435.911002,965.983363 435.704125,966.274319 435.497079,966.565223 L434.564094,967.873543 C424.701006,981.671664 414.32011,994.962956 399.093048,995.485375 C392.9277,995.696899 387.872786,993.512376 383.459434,990.031887 C376.652022,984.663376 371.253402,976.492708 366.021833,968.080205 L365.586229,967.378659 L364.933006,966.322287 L363.958142,964.737373 L363.79555,964.47235 L363.79555,964.47235 L363.633952,964.208816 L362.644185,962.593201 C357.058456,953.474045 351.463715,944.534306 344.996108,937.904154 C120.763116,708.035736 7.5,529.074739 7.5,400.523404 C7.5,297.399168 54.5965875,199.502069 127.073904,127.200754 C200.020792,54.4310074 298.763521,7.5 401.498388,7.5 Z M399.350211,232.368054 C352.915393,232.368054 310.876556,251.189483 280.446423,281.619616 C250.01629,312.049749 231.194862,354.088586 231.194862,400.523404 C231.194862,446.958222 250.01629,488.997059 280.446423,519.427192 C310.876556,549.857325 352.915393,568.678753 399.350211,568.678753 C445.785029,568.678753 487.823866,549.857325 518.253999,519.427192 C548.684132,488.997059 567.505561,446.958222 567.505561,400.523404 C567.505561,354.088586 548.684132,312.049749 518.253999,281.619616 C487.823866,251.189483 445.785029,232.368054 399.350211,232.368054 Z" id="Combined-Shape"></path>
            </g>
        </g>
    </g>
</svg>