<?xml version="1.0" encoding="UTF-8"?>
<svg width="1026px" height="1026px" viewBox="0 0 1026 1026" version="1.1" xmlns="http://www.w3.org/2000/svg" xmlns:xlink="http://www.w3.org/1999/xlink">
    <title>go_to</title>
    <g id="go_to" stroke="none" stroke-width="1" fill="none" fill-rule="evenodd">
        <circle id="Oval" stroke="#FFFFFF" stroke-width="30" transform="translate(596.000000, 165.000000) rotate(90.000000) translate(-596.000000, -165.000000) " cx="596" cy="165" r="85"></circle>
        <circle id="Oval-Copy-3" stroke="#FFFFFF" stroke-width="30" transform="translate(596.000000, 397.000000) rotate(90.000000) translate(-596.000000, -397.000000) " cx="596" cy="397" r="85"></circle>
        <circle id="Oval-Copy" stroke="#FFFFFF" stroke-width="30" transform="translate(596.000000, 861.000000) rotate(90.000000) translate(-596.000000, -861.000000) " cx="596" cy="861" r="85"></circle>
        <circle id="Oval-Copy-10" stroke="#FFFFFF" stroke-width="30" transform="translate(596.000000, 629.000000) rotate(90.000000) translate(-596.000000, -629.000000) " cx="596" cy="629" r="85"></circle>
        <circle id="Oval-Copy-5" stroke="#FFFFFF" stroke-width="30" transform="translate(364.000000, 165.000000) rotate(90.000000) translate(-364.000000, -165.000000) " cx="364" cy="165" r="85"></circle>
        <circle id="Oval-Copy-4" stroke="#FFFFFF" stroke-width="30" transform="translate(364.000000, 397.000000) rotate(90.000000) translate(-364.000000, -397.000000) " cx="364" cy="397" r="85"></circle>
        <circle id="Oval-Copy-2" stroke="#FFFFFF" stroke-width="30" transform="translate(364.000000, 861.000000) rotate(90.000000) translate(-364.000000, -861.000000) " cx="364" cy="861" r="85"></circle>
        <circle id="Oval-Copy-11" stroke="#FFFFFF" stroke-width="30" transform="translate(364.000000, 629.000000) rotate(90.000000) translate(-364.000000, -629.000000) " cx="364" cy="629" r="85"></circle>
        <circle id="Oval-Copy-6" stroke="#FFFFFF" stroke-width="30" transform="translate(132.000000, 397.000000) rotate(90.000000) translate(-132.000000, -397.000000) " cx="132" cy="397" r="85"></circle>
        <circle id="Oval-Copy-12" stroke="#FFFFFF" stroke-width="30" transform="translate(132.000000, 629.000000) rotate(90.000000) translate(-132.000000, -629.000000) " cx="132" cy="629" r="85"></circle>
        <circle id="Oval-Copy-7" stroke="#FFFFFF" stroke-width="30" transform="translate(828.000000, 397.000000) rotate(90.000000) translate(-828.000000, -397.000000) " cx="828" cy="397" r="85"></circle>
        <circle id="Oval-Copy-13" stroke="#FFFFFF" stroke-width="30" transform="translate(828.000000, 629.000000) rotate(90.000000) translate(-828.000000, -629.000000) " cx="828" cy="629" r="85"></circle>
        <g id="Group" transform="translate(786.291053, 147.519080)" fill="#FFFFFF" stroke="#FFFFFF" stroke-linecap="round" stroke-linejoin="round" stroke-width="15">
            <g id="flag">
                <polyline id="Path-14" points="38.6225788 230.38733 38.6225788 0 216.296903 0 159.854936 56.9551427 216.296903 115.193665 38.6225788 115.5"></polyline>
            </g>
        </g>
        <g id="Group" transform="translate(32.069707, 139.277605)" fill="#FFFFFF" stroke="#FFFFFF" stroke-width="15">
            <g id="position">
                <path d="M99.9651464,7.5 C124.474212,7.5 148.001473,18.0587584 165.199832,35.2153536 C181.730792,51.7061707 192.430293,74.3406286 192.430293,99.7223946 C192.430293,132.643372 164.478851,175.363443 110.795581,228.40758 C108.938497,230.242555 107.200435,232.602234 105.483281,235.050042 L105.087342,235.616287 L104.621972,236.282927 L104.177539,236.915472 C102.769548,238.915004 101.696562,242.140229 99.1731299,242.226805 C97.7553314,241.115099 96.8543551,239.593656 95.9357277,238.093849 L95.7384141,237.77295 L95.3770248,237.185775 L95.0128104,236.591325 C93.4170627,233.987254 91.775034,231.478629 89.9291991,229.586405 C35.7408132,174.036156 7.5,130.914071 7.5,99.7223946 C7.5,75.5274151 18.6289377,52.6049248 35.6169243,35.6581912 C52.7218214,18.5948311 75.8519523,7.5 99.9651464,7.5 Z M99.4302928,52.2223946 C86.31353,52.2223946 74.43853,57.5390132 65.8427207,66.1348225 C57.2469114,74.7306318 51.9302928,86.6056318 51.9302928,99.7223946 C51.9302928,112.839157 57.2469114,124.714157 65.8427207,133.309967 C74.43853,141.905776 86.31353,147.222395 99.4302928,147.222395 C112.547056,147.222395 124.422056,141.905776 133.017865,133.309967 C141.613674,124.714157 146.930293,112.839157 146.930293,99.7223946 C146.930293,86.6056318 141.613674,74.7306318 133.017865,66.1348225 C124.422056,57.5390132 112.547056,52.2223946 99.4302928,52.2223946 Z" id="Combined-Shape"></path>
            </g>
        </g>
        <g id="Group" transform="translate(143.431721, 396.500000)" stroke="#FFFFFF" stroke-linecap="round" stroke-width="20">
            <line x1="670.568279" y1="0.5" x2="635.568279" y2="0.5" id="Path-17"></line>
            <line x1="599.568279" y1="0.5" x2="564.568279" y2="0.5" id="Path-17-Copy"></line>
            <line x1="529.568279" y1="0.5" x2="494.568279" y2="0.5" id="Path-17-Copy-2"></line>
            <line x1="458.568279" y1="0.5" x2="423.568279" y2="0.5" id="Path-17-Copy-3"></line>
            <line x1="388.568279" y1="0.5" x2="353.568279" y2="0.5" id="Path-17-Copy-7"></line>
            <line x1="317.568279" y1="0.5" x2="282.568279" y2="0.5" id="Path-17-Copy-6"></line>
            <line x1="246.568279" y1="0.5" x2="211.568279" y2="0.5" id="Path-17-Copy-5"></line>
            <line x1="176.568279" y1="0.5" x2="141.568279" y2="0.5" id="Path-17-Copy-11"></line>
            <line x1="105.568279" y1="0.5" x2="70.5682785" y2="0.5" id="Path-17-Copy-10"></line>
            <line x1="35" y1="0.5" x2="-7.77156117e-14" y2="0.5" id="Path-17-Copy-9"></line>
        </g>
    </g>
</svg>