<?xml version="1.0" encoding="UTF-8"?>
<svg width="1026px" height="1026px" viewBox="0 0 1026 1026" version="1.1" xmlns="http://www.w3.org/2000/svg" xmlns:xlink="http://www.w3.org/1999/xlink">
    <title>loops_menu</title>
    <g id="loops_menu" stroke="none" stroke-width="1" fill="none" fill-rule="evenodd">
        <g id="Group" transform="translate(50.000000, 0.000000)" stroke="#FFFFFF">
            <rect id="Rectangle-Copy" stroke-width="70" x="425" y="35" width="466" height="612" rx="80"></rect>
            <rect id="Rectangle" stroke-width="40" fill="#FFFFFF" x="20" y="361" width="496" height="642" rx="80"></rect>
        </g>
        <path id="Path-15" d="M215.79651,18.0354541 L216.114806,18.2107844 L380.114806,110.460784 L411.104159,127.892295 L380.114806,145.323806 L216.114806,237.573806 C206.487649,242.989082 194.293347,239.574677 188.878071,229.94752 C183.522303,220.426155 186.803224,208.393757 196.189232,202.891753 L196.504357,202.710784 L293.958,147.892 L183.605129,147.892295 C155.786025,147.892295 137.680136,156.42891 126.721375,173.463157 C114.652794,192.222504 110.054441,222.71695 114.09075,264.991365 C115.140604,275.987054 107.077913,285.751897 96.0822233,286.801752 C85.086534,287.851607 75.3216912,279.788915 74.2718363,268.793225 C69.4604463,218.400974 75.3422163,179.395419 93.0815802,151.821434 C111.742273,122.815338 142.341263,108.186363 182.388681,107.896684 L183.605129,107.892295 L293.961,107.892 L196.504357,53.0738059 C186.982992,47.7180383 183.538587,35.7314159 188.70274,26.1553668 L188.878071,25.8370703 C194.233838,16.3157057 206.220461,12.8713004 215.79651,18.0354541 Z" fill="#FFFFFF" fill-rule="nonzero"></path>
        <path id="Path-15-Copy" d="M786.399392,643.71876 L786.717688,643.894091 L950.717688,736.144091 L981.707041,753.575601 L950.717688,771.007112 L786.717688,863.257112 C777.090531,868.672388 764.896229,865.257984 759.480953,855.630826 C754.125185,846.109462 757.406106,834.077063 766.792114,828.57506 L767.107239,828.394091 L864.563,773.575 L754.208011,773.575601 C726.388907,773.575601 708.283018,782.112216 697.324257,799.146463 C685.255676,817.905811 680.657323,848.400256 684.693632,890.674671 C685.743486,901.67036 677.680795,911.435203 666.685105,912.485058 C655.689416,913.534913 645.924573,905.472221 644.874718,894.476532 C640.063328,844.08428 645.945098,805.078726 663.684462,777.50474 C682.345155,748.498644 712.944145,733.869669 752.991563,733.579991 L754.208011,733.575601 L864.562,733.575 L767.107239,678.757112 C757.585874,673.401345 754.141469,661.414722 759.305622,651.838673 L759.480953,651.520377 C764.83672,641.999012 776.823343,638.554607 786.399392,643.71876 Z" transform="translate(796.963904, 823.075601) scale(-1, -1) translate(-796.963904, -823.075601) " fill="#FFFFFF" fill-rule="nonzero"></path>
    </g>
</svg>