<?xml version="1.0" encoding="UTF-8"?>
<svg width="1026px" height="1026px" viewBox="0 0 1026 1026" version="1.1" xmlns="http://www.w3.org/2000/svg" xmlns:xlink="http://www.w3.org/1999/xlink">
    <title>loops_menu</title>
    <g id="loops_menu" stroke="none" stroke-width="1" fill="none" fill-rule="evenodd">
        <g id="Group" transform="translate(50.000000, 0.000000)" stroke="#FFFFFF" stroke-width="40">
            <rect id="Rectangle-Copy" x="410" y="20" width="496" height="642" rx="80"></rect>
            <rect id="Rectangle" fill="#FFFFFF" x="20" y="361" width="496" height="642" rx="80"></rect>
        </g>
        <path id="Path-15" d="M285.957688,71.7881019 L286.212194,71.9265398 L370.212194,119.17654 L385.70687,127.892295 L370.212194,136.608051 L286.212194,183.858051 C281.398615,186.565689 275.301464,184.858486 272.593826,180.044908 C269.93369,175.315778 271.534847,169.347718 276.156498,166.572152 L276.406969,166.42654 L327.133,137.892 L183.605129,137.892295 C152.57968,137.892295 131.242793,147.952269 118.311427,168.052726 C104.825149,189.015733 99.9059421,221.637956 104.136021,265.94183 C104.660949,271.439675 100.629603,276.322096 95.1317581,276.847023 C89.6339135,277.371951 84.7514921,273.340605 84.2265647,267.84276 C74.9707388,170.901563 107.684933,118.937485 181.360014,117.907898 L183.605129,117.892295 L327.133,117.892 L276.406969,89.3580505 C271.677839,86.6979149 269.947046,80.7661534 272.455388,75.994189 L272.593826,75.7396827 C275.253962,71.0105527 281.185723,69.2797596 285.957688,71.7881019 Z" fill="#FFFFFF" fill-rule="nonzero"></path>
        <path id="Path-15-Copy" d="M856.56057,697.471408 L856.815076,697.609846 L940.815076,744.859846 L956.309752,753.575601 L940.815076,762.291357 L856.815076,809.541357 C852.001497,812.248995 845.904346,810.541793 843.196708,805.728214 C840.536572,800.999084 842.137729,795.031024 846.75938,792.255458 L847.009851,792.109846 L897.736,763.575 L754.208011,763.575601 C723.182562,763.575601 701.845675,773.635575 688.914309,793.736032 C675.428031,814.699039 670.508824,847.321262 674.738903,891.625136 C675.263831,897.122981 671.232485,902.005402 665.73464,902.53033 C660.236796,903.055257 655.354374,899.023911 654.829447,893.526067 C645.573621,796.58487 678.287815,744.620792 751.962896,743.591204 L754.208011,743.575601 L897.736,743.575 L847.009851,715.041357 C842.280721,712.381221 840.549928,706.44946 843.05827,701.677495 L843.196708,701.422989 C845.856844,696.693859 851.788605,694.963066 856.56057,697.471408 Z" transform="translate(796.963904, 823.075601) scale(-1, -1) translate(-796.963904, -823.075601) " fill="#FFFFFF" fill-rule="nonzero"></path>
    </g>
</svg>