<?xml version="1.0" encoding="UTF-8"?>
<svg width="1060px" height="1060px" viewBox="0 0 1060 1060" version="1.1" xmlns="http://www.w3.org/2000/svg" xmlns:xlink="http://www.w3.org/1999/xlink">
    <title>loops_menu</title>
    <g id="loops_menu" stroke="none" stroke-width="1" fill="none" fill-rule="evenodd">
        <g id="Group" transform="translate(51.656920, 0.000000)" stroke="#FFFFFF">
            <rect id="Rectangle-Copy" stroke-width="70" x="437.923977" y="35" width="483.762183" height="634.60039" rx="80"></rect>
            <rect id="Rectangle" stroke-width="40" fill="#FFFFFF" x="20" y="372.300195" width="513.762183" height="664.60039" rx="80"></rect>
        </g>
        <path id="Path-15" d="M227.728309,22.2736003 L228.046605,22.4489306 L392.046605,114.698931 L423.035958,132.130441 L392.046605,149.561952 L228.046605,241.811952 C218.419448,247.227228 206.225146,243.812824 200.80987,234.185666 C195.454102,224.664302 198.735023,212.631903 208.121031,207.1299 L208.436156,206.948931 L305.89,152.13 L189.68951,152.130441 C160.736019,152.130441 141.815989,161.050909 130.363335,178.852862 C117.800859,198.379916 113.028859,230.025922 117.211767,273.835749 C118.261622,284.831438 110.19893,294.596281 99.2032408,295.646136 C88.2075516,296.695991 78.4427087,288.633299 77.3928538,277.63761 C72.4348645,225.709945 78.4902817,185.552831 96.7235395,157.211139 C115.873187,127.445015 147.275006,112.432225 188.439126,112.134946 L189.68951,112.130441 L305.893,112.13 L208.436156,57.3119521 C198.914791,51.9561845 195.470386,39.9695621 200.634539,30.393513 L200.80987,30.0752166 C206.165637,20.553852 218.15226,17.1094466 227.728309,22.2736003 Z" fill="#FFFFFF" fill-rule="nonzero"></path>
        <path id="Path-15-Copy" d="M817.240058,668.691051 L817.558355,668.866382 L981.558355,761.116382 L1012.54771,778.547892 L981.558355,795.979403 L817.558355,888.229403 C807.931197,893.644679 795.736895,890.230275 790.321619,880.603117 C784.965852,871.081753 788.246772,859.049354 797.63278,853.547351 L797.947905,853.366382 L895.404,798.547 L779.201259,798.547892 C750.247768,798.547892 731.327738,807.46836 719.875084,825.270313 C707.312609,844.797367 702.540608,876.443373 706.723517,920.2532 C707.773371,931.248889 699.71068,941.013732 688.71499,942.063587 C677.719301,943.113442 667.954458,935.05075 666.904603,924.055061 C661.946614,872.127396 668.002031,831.970282 686.235289,803.62859 C705.384937,773.862466 736.786756,758.849676 777.950876,758.552397 L779.201259,758.547892 L895.401,758.547 L797.947905,703.729403 C788.426541,698.373635 784.982135,686.387013 790.146289,676.810964 L790.321619,676.492668 C795.677387,666.971303 807.664009,663.526898 817.240058,668.691051 Z" transform="translate(823.374014, 850.351011) scale(-1, -1) translate(-823.374014, -850.351011) " fill="#FFFFFF" fill-rule="nonzero"></path>
    </g>
</svg>