<?xml version="1.0" encoding="UTF-8"?>
<svg width="1060px" height="1060px" viewBox="0 0 1060 1060" version="1.1" xmlns="http://www.w3.org/2000/svg" xmlns:xlink="http://www.w3.org/1999/xlink">
    <title>mirror_menu copy 4</title>
    <g id="mirror_menu-copy-4" stroke="none" stroke-width="1" fill="none" fill-rule="evenodd">
        <path d="M550.77483,1008.59756 L550.77483,1071.52439 L509.176389,1071.52439 L509.176389,1008.59756 L550.77483,1008.59756 Z M550.77483,881.695122 L550.77483,944.621951 L509.176389,944.621951 L509.176389,881.695122 L550.77483,881.695122 Z M1053.89985,204.067889 C1072.96083,268.540795 1044.27644,392.139089 1010.324,475.657704 C987.689035,531.33678 963.631543,567.796969 938.15152,585.03827 C930.001875,592.019567 904.324867,600.759335 861.120497,611.257576 C786.428884,574.088217 744.307867,558.1746 734.757445,563.516727 L736.128184,564.2616 C797.339596,580.366935 784.259365,576.189417 827.368091,596.191825 C856.107242,609.526764 877.206634,640.354026 890.666269,688.673611 C909.359815,772.99663 888.260422,839.928339 827.368091,889.468739 C757.620955,946.213175 639.134644,920.300829 601.969781,889.468739 C577.263274,868.97214 559.480868,840.541239 547.369189,817.718263 L550.77483,817.719512 L550.77483,754.792683 L533.225694,754.7962 C533.21889,764.366242 533.214644,773.225954 533.212956,781.375338 L533.212956,781.375338 L533.212121,789.206702 C536.596372,796.127048 541.261827,806.209686 547.369189,817.718263 L513.701518,817.718263 C501.589839,840.541239 483.807433,868.97214 459.100926,889.468739 C421.936063,920.300829 303.449752,946.213175 233.702616,889.468739 C172.810285,839.928339 151.710892,772.99663 170.404438,688.673611 C183.864073,640.354026 204.963465,609.526764 233.702616,596.191825 C276.380255,576.389441 263.987097,580.285802 323.128338,564.73872 L324.942523,564.2616 L325.733757,563.831077 C317.221553,557.599767 274.936802,573.4086 198.879503,611.257576 C155.675133,600.759335 129.998125,592.019567 121.84848,585.03827 C96.3684568,567.796969 72.3109648,531.33678 49.6760035,475.657704 C15.7235617,392.139089 -12.9608344,268.540795 6.10015201,204.067889 C40.0426539,89.258945 101.795261,89.2018214 198.879503,111.627307 C284.457457,131.394955 445.95822,272.92367 509.18102,402.542686 L509.176389,438.060976 L524.051989,438.063318 C520.025731,426.395099 515.02293,414.519736 509.18102,402.542686 L509.176389,375.134146 L550.77483,375.134146 L550.769211,402.644762 C544.948652,414.587209 539.962831,426.428248 535.948011,438.063318 L524.051989,438.063318 C525.390012,441.940949 526.620186,445.795703 527.737467,449.62371 L528.929293,453.855218 L527.33761,454.719244 C527.373811,471.365782 527.408125,487.488525 527.440552,503.087472 L509.176389,503.085366 L509.176389,566.012195 L527.566595,566.013091 C527.52834,546.081551 527.486326,525.106344 527.440552,503.087472 L533.630154,503.08799 C533.662204,487.670505 533.696097,471.741339 533.731833,455.300492 L531.070707,453.855218 C532.485583,448.640781 534.115669,443.373501 535.948011,438.063318 L550.77483,438.060976 L550.769211,402.644762 C613.956984,272.997983 775.520078,131.400145 861.120497,111.627307 C958.204739,89.2018214 1019.95735,89.258945 1053.89985,204.067889 Z M550.77483,627.890244 L533.391698,627.89089 C533.353082,650.596574 533.320693,671.57305 533.294533,690.82032 L527.776171,690.817887 C527.808817,714.836878 527.831765,736.163022 527.845013,754.796318 L509.176389,754.792683 L509.176389,817.719512 L513.701518,817.718263 C519.80888,806.209686 524.474335,796.127048 527.858586,789.206702 L527.858586,789.206702 L527.858116,783.37664 C527.856746,774.682153 527.852379,765.155379 527.845013,754.796318 L533.225694,754.7962 C533.238942,736.163561 533.261888,714.838267 533.294533,690.82032 L550.77483,690.817073 L550.77483,627.890244 Z M550.77483,503.085366 L533.630154,503.08799 C533.584381,525.106822 533.542366,546.081989 533.504111,566.013493 L527.566595,566.013091 C527.6086,587.89804 527.646072,608.524727 527.679013,627.893153 L509.176389,627.890244 L509.176389,690.817073 L527.776171,690.817887 C527.750012,671.571923 527.717626,650.597011 527.679013,627.893153 L533.391698,627.89089 C533.424638,608.52324 533.462109,587.89744 533.504111,566.013493 L550.77483,566.012195 L550.77483,503.085366 Z M550.77483,249.280488 L550.77483,312.207317 L509.176389,312.207317 L509.176389,249.280488 L550.77483,249.280488 Z M550.77483,121.329268 L550.77483,184.256098 L509.176389,184.256098 L509.176389,121.329268 L550.77483,121.329268 Z M550.77483,-4.52439024 L550.77483,58.402439 L509.176389,58.402439 L509.176389,-4.52439024 L550.77483,-4.52439024 Z" id="Combined-Shape" fill="#FFFFFF"></path>
    </g>
</svg>