<?xml version="1.0" encoding="UTF-8"?>
<svg width="1060px" height="1063px" viewBox="0 0 1060 1063" version="1.1" xmlns="http://www.w3.org/2000/svg" xmlns:xlink="http://www.w3.org/1999/xlink">
    <title>mirror_vertical</title>
    <defs>
        <path d="M115.000007,769.230769 L115,999.996 L113.47652,999.983914 C50.6314289,998.964977 0,947.702669 0,884.614757 C0,821.017846 51.4517238,769.438128 115.000007,769.230769 Z M115.000007,384.615385 L115,615.38 L113.47652,615.36853 C50.6314289,614.349592 0,563.087284 0,499.999373 C0,436.402461 51.4517238,384.822743 115.000007,384.615385 Z M115.000007,-2.4124653e-13 L115,230.765 L113.47652,230.753145 C50.6314289,229.734208 0,178.4719 0,115.383988 C0,51.7870764 51.4517238,0.207358876 115.000007,-2.41315756e-13 Z" id="path-1"></path>
    </defs>
    <g id="mirror_vertical" stroke="none" stroke-width="1" fill="none" fill-rule="evenodd">
        <circle id="Oval" stroke="#000000" stroke-width="60" fill="#000000" fill-rule="nonzero" cx="145.384615" cy="145.384615" r="115.384615"></circle>
        <circle id="Oval" stroke="#000000" stroke-width="60" fill-rule="nonzero" cx="914.615385" cy="145.384615" r="115.384615"></circle>
        <circle id="Oval" stroke="#000000" stroke-width="60" fill="#000000" fill-rule="nonzero" cx="145.384615" cy="530" r="115.384615"></circle>
        <circle id="Oval" stroke="#000000" stroke-width="60" fill-rule="nonzero" cx="914.615385" cy="530" r="115.384615"></circle>
        <circle id="Oval" stroke="#000000" stroke-width="60" fill="#000000" fill-rule="nonzero" cx="145.384615" cy="914.615385" r="115.384615"></circle>
        <circle id="Oval" stroke="#000000" stroke-width="60" fill-rule="nonzero" cx="914.615385" cy="914.615385" r="115.384615"></circle>
        <g id="Rectangle" transform="translate(414.000000, 29.000627)">
            <mask id="mask-2" fill="white">
                <use xlink:href="#path-1"></use>
            </mask>
            <use id="Combined-Shape" fill="#000000" fill-rule="nonzero" xlink:href="#path-1"></use>
        </g>
        <circle id="Oval-Copy-6" stroke="#000000" stroke-width="60" fill-rule="nonzero" cx="529.615385" cy="144.384615" r="115.384615"></circle>
        <circle id="Oval-Copy-5" stroke="#000000" stroke-width="60" fill-rule="nonzero" cx="529.615385" cy="529" r="115.384615"></circle>
        <circle id="Oval-Copy-4" stroke="#000000" stroke-width="60" fill-rule="nonzero" cx="529.615385" cy="913.615385" r="115.384615"></circle>
        <line x1="530" y1="2.84217094e-13" x2="529" y2="1063" id="Path-18" stroke="#000000" stroke-width="60"></line>
    </g>
</svg>