<?xml version="1.0" encoding="UTF-8"?>
<svg width="1060px" height="1060px" viewBox="0 0 1060 1060" version="1.1" xmlns="http://www.w3.org/2000/svg" xmlns:xlink="http://www.w3.org/1999/xlink">
    <title>mirror_menu</title>
    <g id="mirror_menu" stroke="none" stroke-width="1" fill="none" fill-rule="evenodd">
        <g id="Group" transform="translate(-0.000000, 509.337232)" fill="#FFFFFF">
            <g id="dotted-line" transform="translate(530.000000, 20.662768) rotate(90.000000) translate(-530.000000, -20.662768) ">
                <polygon id="Rectangle" transform="translate(1029.005848, 20.662768) rotate(90.000000) translate(-1029.005848, -20.662768) " points="1008.34308 -10.331384 1049.66862 -10.331384 1049.66862 51.6569201 1008.34308 51.6569201"></polygon>
                <polygon id="Rectangle-Copy" transform="translate(154.970760, 20.662768) rotate(90.000000) translate(-154.970760, -20.662768) " points="134.307992 -10.331384 175.633528 -10.331384 175.633528 51.6569201 134.307992 51.6569201"></polygon>
                <polygon id="Rectangle-Copy-8" transform="translate(30.994152, 20.662768) rotate(90.000000) translate(-30.994152, -20.662768) " points="10.331384 -10.331384 51.6569201 -10.331384 51.6569201 51.6569201 10.331384 51.6569201"></polygon>
                <polygon id="Rectangle-Copy-2" transform="translate(281.013645, 20.662768) rotate(90.000000) translate(-281.013645, -20.662768) " points="260.350877 -10.331384 301.676413 -10.331384 301.676413 51.6569201 260.350877 51.6569201"></polygon>
                <polygon id="Rectangle-Copy-3" transform="translate(903.996101, 20.662768) rotate(90.000000) translate(-903.996101, -20.662768) " points="883.333333 -10.331384 924.658869 -10.331384 924.658869 51.6569201 883.333333 51.6569201"></polygon>
                <polygon id="Rectangle-Copy-4" transform="translate(778.986355, 20.662768) rotate(90.000000) translate(-778.986355, -20.662768) " points="758.323587 -10.331384 799.649123 -10.331384 799.649123 51.6569201 758.323587 51.6569201"></polygon>
                <polygon id="Rectangle-Copy-5" transform="translate(404.990253, 20.662768) rotate(90.000000) translate(-404.990253, -20.662768) " points="384.327485 -10.331384 425.653021 -10.331384 425.653021 51.6569201 384.327485 51.6569201"></polygon>
                <polygon id="Rectangle-Copy-6" transform="translate(531.033138, 20.662768) rotate(90.000000) translate(-531.033138, -20.662768) " points="510.37037 -10.331384 551.695906 -10.331384 551.695906 51.6569201 510.37037 51.6569201"></polygon>
                <polygon id="Rectangle-Copy-7" transform="translate(653.976608, 20.662768) rotate(90.000000) translate(-653.976608, -20.662768) " points="633.31384 -10.331384 674.639376 -10.331384 674.639376 51.6569201 633.31384 51.6569201"></polygon>
            </g>
        </g>
        <path d="M185.964912,509.337232 L123.976608,509.337232 L123.976608,550.662768 L185.964912,550.662768 L185.964912,509.337232 Z M-3.85604479e-14,23.7621832 C344.237952,101.735142 520.787553,263.591472 529.648805,509.33117 L500.038986,509.337232 L500.038986,550.662768 L529.571912,550.666479 C529.857304,543.51032 530,536.283325 530,528.985495 C530,522.375494 529.882935,515.824052 529.648805,509.33117 L543.773095,509.33117 C552.409792,263.591472 724.485427,101.735142 1060,23.7621832 L1060,509.337232 L998.011696,509.337232 L998.011696,550.662768 L1060,550.662768 L1060,1036.23782 C725.407896,957.165008 553.357243,795.307896 543.848039,550.666479 L562.02729,550.662768 L562.02729,509.337232 L543.773095,509.33117 C543.544898,515.824052 543.430799,522.375494 543.430799,528.985495 C543.430799,536.283325 543.569879,543.51032 543.848039,550.666479 L529.571912,550.666479 C519.815469,795.307896 343.291498,957.165008 -3.85604479e-14,1036.23782 L-3.66457222e-11,550.662768 L61.9883041,550.662768 L61.9883041,509.337232 L-3.66457222e-11,509.337232 L-3.85604479e-14,23.7621832 Z M312.007797,509.337232 L250.019493,509.337232 L250.019493,550.662768 L312.007797,550.662768 L312.007797,509.337232 Z M934.990253,509.337232 L873.001949,509.337232 L873.001949,550.662768 L934.990253,550.662768 L934.990253,509.337232 Z M809.980507,509.337232 L747.992203,509.337232 L747.992203,550.662768 L809.980507,550.662768 L809.980507,509.337232 Z M435.984405,509.337232 L373.996101,509.337232 L373.996101,550.662768 L435.984405,550.662768 L435.984405,509.337232 Z M684.97076,509.337232 L622.982456,509.337232 L622.982456,550.662768 L684.97076,550.662768 L684.97076,509.337232 Z" id="Combined-Shape" fill="#FFFFFF"></path>
    </g>
</svg>