<?xml version="1.0" encoding="UTF-8"?>
<svg width="1026px" height="1026px" viewBox="0 0 1026 1026" version="1.1" xmlns="http://www.w3.org/2000/svg" xmlns:xlink="http://www.w3.org/1999/xlink">
    <title>open eye</title>
    <g id="open-eye" stroke="none" stroke-width="1" fill="none" fill-rule="evenodd">
        <g id="Group">
            <circle id="Oval" fill="#FFD6A7" cx="513" cy="513" r="513"></circle>
            <g transform="translate(11.375160, 124.363636)">
                <path d="M501.62484,174.566428 C340.988477,174.566428 180.352113,238.234119 19.7157493,365.5695 C184.440982,562.097755 345.077346,660.361883 501.62484,660.361883 C658.172335,660.361883 818.808698,562.097755 983.533931,365.5695 C822.897568,238.234119 662.261204,174.566428 501.62484,174.566428 Z" id="Path-5" fill="#EBF0F1"></path>
                <circle id="Oval-Copy-2" fill="#0088C8" cx="501.62484" cy="390.579545" r="242.897727"></circle>
                <circle id="Oval-Copy" fill="#545A70" cx="502.596431" cy="391.551136" r="95.2159091"></circle>
                <path d="M501.62484,174.566428 C340.988477,174.566428 180.352113,238.234119 19.7157493,365.5695 C184.440982,562.097755 345.077346,660.361883 501.62484,660.361883 C658.172335,660.361883 818.808698,562.097755 983.533931,365.5695 C822.897568,238.234119 662.261204,174.566428 501.62484,174.566428 Z" id="Path-5-Copy" stroke="#EBF0F1" stroke-width="15"></path>
                <circle id="Oval-Copy-3" fill="#EBF0F1" cx="389.891886" cy="305.079545" r="62.1818182"></circle>
                <path d="M0,367.261364 C45.445004,261.74509 95.2165455,185.389689 149.314625,138.195159 C257.529894,43.7894283 359.489411,0 502.596431,0 C640.098843,0 747.527022,47.0233326 850.176693,138.195159 C918.609808,198.976377 969.232878,275.331779 1002.0459,367.261364 C835.879466,229.434153 669.396308,160.520548 502.596431,160.520548 C335.796554,160.520548 168.26441,229.434153 0,367.261364 Z" id="Path-3" fill="#FFB68A"></path>
            </g>
            <g transform="translate(512.028409, 303.379974) scale(1, -1) translate(-512.028409, -303.379974) translate(39.646451, 185.311327)" stroke="#545A70" stroke-linecap="round" stroke-width="25">
                <line x1="471.410368" y1="138.978204" x2="471.410368" y2="236.137295" id="Path-4"></line>
                <line x1="40.0808222" y1="-20.2490687" x2="40.0808222" y2="76.9100222" id="Path-4-Copy-2" transform="translate(40.080822, 28.330477) scale(1, -1) rotate(-55.000000) translate(-40.080822, -28.330477) "></line>
                <line x1="236.285368" y1="90.3986586" x2="236.285368" y2="187.557749" id="Path-4-Copy-4" transform="translate(236.285368, 138.978204) scale(1, -1) rotate(-35.000000) translate(-236.285368, -138.978204) "></line>
                <line x1="129.410368" y1="39.8759313" x2="129.410368" y2="137.035022" id="Path-4-Copy-5" transform="translate(129.410368, 88.455477) scale(1, -1) rotate(-45.000000) translate(-129.410368, -88.455477) "></line>
                <line x1="350.933095" y1="123.432749" x2="350.933095" y2="220.59184" id="Path-4-Copy-9" transform="translate(350.933095, 172.012295) scale(1, -1) rotate(-15.000000) translate(-350.933095, -172.012295) "></line>
                <line x1="904.683095" y1="-20.3058869" x2="904.683095" y2="76.853204" id="Path-4-Copy-3" transform="translate(904.683095, 28.273659) rotate(-55.000000) translate(-904.683095, -28.273659) "></line>
                <line x1="708.478549" y1="90.3986586" x2="708.478549" y2="187.557749" id="Path-4-Copy-7" transform="translate(708.478549, 138.978204) rotate(-35.000000) translate(-708.478549, -138.978204) "></line>
                <line x1="813.410368" y1="39.8759313" x2="813.410368" y2="137.035022" id="Path-4-Copy-6" transform="translate(813.410368, 88.455477) rotate(-45.000000) translate(-813.410368, -88.455477) "></line>
                <line x1="591.88764" y1="123.432749" x2="591.88764" y2="220.59184" id="Path-4-Copy-10" transform="translate(591.887640, 172.012295) rotate(-15.000000) translate(-591.887640, -172.012295) "></line>
            </g>
            <path d="M22.7475122,491.625 C183.327479,361.866255 347.068839,296.986883 513.971591,296.986883 C680.874343,296.986883 843.859929,361.866255 1002.92835,491.625" id="Path-6" stroke="#545A70" stroke-width="25" stroke-linecap="round"></path>
        </g>
    </g>
</svg>