<?xml version="1.0" encoding="utf-8"?>
<svg viewBox="33 33 260 260" xmlns="http://www.w3.org/2000/svg">
  <ellipse style="paint-order: fill; stroke: rgb(0, 0, 0);" cx="63" cy="63" rx="30" ry="30"/>
  <ellipse style="paint-order: fill; stroke: rgb(0, 0, 0);" cx="163" cy="63" rx="30" ry="30"/>
  <ellipse style="paint-order: fill; stroke: rgb(0, 0, 0);" cx="263" cy="63" rx="30" ry="30"/>
  <ellipse style="paint-order: fill; stroke: rgb(0, 0, 0);" cx="63" cy="163" rx="30" ry="30"/>
  <ellipse style="paint-order: fill; stroke: rgb(0, 0, 0);" cx="163" cy="163" rx="30" ry="30"/>
  <ellipse style="paint-order: fill; stroke: rgb(0, 0, 0);" cx="263" cy="163" rx="30" ry="30"/>
  <ellipse style="paint-order: fill; stroke: rgb(0, 0, 0);" cx="63" cy="263" rx="30" ry="30"/>
  <ellipse style="paint-order: fill; stroke: rgb(0, 0, 0);" cx="163" cy="263" rx="30" ry="30"/>
  <ellipse style="paint-order: fill; stroke: rgb(0, 0, 0);" cx="263" cy="263" rx="30" ry="30"/>
  <rect x="52.738" y="180.988" width="20" height="63.85" style="stroke: rgb(0, 0, 0);"/>
  <rect x="152.326" y="181.143" width="20" height="63.85" style="stroke: rgb(0, 0, 0);"/>
  <rect x="151.903" y="80.48" width="20" height="63.85" style="stroke: rgb(0, 0, 0);"/>
  <rect x="252.734" y="81.155" width="20" height="63.85" style="stroke: rgb(0, 0, 0);"/>
  <rect x="82.247" y="255.14" width="63" height="20" style="stroke: rgb(0, 0, 0);"/>
  <rect x="182.967" y="53.597" width="63" height="20" style="stroke: rgb(0, 0, 0);"/>
</svg>