<?xml version="1.0" encoding="UTF-8"?>
<svg width="1026px" height="1026px" viewBox="0 0 1026 1026" version="1.1" xmlns="http://www.w3.org/2000/svg" xmlns:xlink="http://www.w3.org/1999/xlink">
    <title>placement_menu</title>
    <g id="placement_menu" stroke="none" stroke-width="1" fill="none" fill-rule="evenodd">
        <g id="Group" transform="translate(13.500000, 369.000000)" stroke="#FFFFFF" stroke-width="30">
            <path d="M499.5,102 C545.615777,102 587.365777,120.692112 617.586832,150.913168 C647.807888,181.134223 666.5,222.884223 666.5,269 C666.5,315.115777 647.807888,356.865777 617.586832,387.086832 C587.365777,417.307888 545.615777,436 499.5,436 C453.384223,436 411.634223,417.307888 381.413168,387.086832 C351.192112,356.865777 332.5,315.115777 332.5,269 C332.5,222.884223 351.192112,181.134223 381.413168,150.913168 C411.634223,120.692112 453.384223,102 499.5,102 Z M499.5,110 C479.065464,110 460.565464,118.282732 447.174098,131.674098 C433.782732,145.065464 425.5,163.565464 425.5,184 C425.5,204.434536 433.782732,222.934536 447.174098,236.325902 C460.565464,249.717268 479.065464,258 499.5,258 C519.934536,258 538.434536,249.717268 551.825902,236.325902 C565.217268,222.934536 573.5,204.434536 573.5,184 C573.5,163.565464 565.217268,145.065464 551.825902,131.674098 C538.434536,118.282732 519.934536,110 499.5,110 Z" id="Oval-2" fill="#FFFFFF"></path>
            <circle id="Oval-Copy" cx="188" cy="535.5" r="86.5"></circle>
            <circle id="Oval-Copy-2" cx="909" cy="86.5" r="86.5"></circle>
            <path d="M97.0897147,175.417613 C139.86701,170.195939 173,133.746958 173,89.5593515 C173,41.7867207 134.272631,3.05935154 86.5,3.05935154 C38.7273691,3.05935154 0,41.7867207 0,89.5593515 C0,119.514452 15.22654,145.913203 38.3620046,161.437989" id="Oval" stroke-linecap="round" stroke-linejoin="round"></path>
            <path d="M822.589715,621.358261 C865.36701,616.136588 898.5,579.687606 898.5,535.5 C898.5,487.727369 859.772631,449 812,449 C764.227369,449 725.5,487.727369 725.5,535.5 C725.5,565.4551 740.72654,591.853851 763.862005,607.378638" id="Oval" stroke-linecap="round" stroke-linejoin="round" transform="translate(812.000000, 535.179131) rotate(230.000000) translate(-812.000000, -535.179131) "></path>
            <line x1="655.289458" y1="202.079047" x2="822.5" y2="125.5517" id="Path-12"></line>
            <line x1="173.289458" y1="202.079047" x2="340.5" y2="125.5517" id="Path-12-Copy" transform="translate(256.894729, 163.815373) scale(-1, 1) translate(-256.894729, -163.815373) "></line>
            <line x1="256.5" y1="481.158093" x2="376.5" y2="376.158093" id="Path-12-Copy-2" transform="translate(316.500000, 429.079047) scale(-1, -1) translate(-316.500000, -429.079047) "></line>
            <line x1="738.5" y1="481.158093" x2="633.5" y2="388.158093" id="Path-12-Copy-3" transform="translate(686.000000, 435.079047) scale(-1, -1) translate(-686.000000, -435.079047) "></line>
        </g>
        <g id="Group" transform="translate(296.437567, 25.079047)" fill="#FFFFFF" stroke="#FFFFFF" stroke-width="15">
            <g id="position">
                <path d="M218.562433,7.5 C274.490916,7.5 328.21578,31.5313064 367.47477,70.6949609 C405.23216,108.360662 429.624865,160.071271 429.624865,218.031684 C429.624865,291.41265 368.508679,387.132613 248.495921,505.716547 C244.804747,509.363776 241.379003,514.064768 237.970651,518.933627 L237.432598,519.70366 L236.152548,521.538176 L235.613696,522.307501 L235.613696,522.307501 L235.073262,523.075227 L234.534349,523.835468 L233.71827,524.973595 C233.325624,525.516833 232.932851,526.0633 232.538352,526.6087 L232.064022,527.262392 C227.944197,532.918524 223.568341,538.273359 217.135873,538.494048 C214.686333,538.578088 212.690511,537.682674 210.938089,536.319525 C207.632752,533.748416 205.044208,529.812748 202.509504,525.75875 L202.192899,525.251474 L201.657336,524.388 L201.053568,523.406967 L201.053568,523.406967 L200.450687,522.423292 L199.782934,521.333943 C196.78245,516.44719 193.724833,511.739315 190.25062,508.177788 C69.1812867,384.065739 7.5,287.51629 7.5,218.031684 C7.5,162.792712 32.7755228,110.381648 71.5882471,71.6631751 C110.656589,32.6897058 163.526223,7.5 218.562433,7.5 Z M217.393036,123.076229 C191.171811,123.076229 167.432948,133.70448 150.24939,150.888038 C133.065833,168.071595 122.437582,191.810459 122.437582,218.031684 C122.437582,244.252908 133.065833,267.991772 150.24939,285.175329 C167.432948,302.358887 191.171811,312.987138 217.393036,312.987138 C243.614261,312.987138 267.353124,302.358887 284.536682,285.175329 C301.720239,267.991772 312.348491,244.252908 312.348491,218.031684 C312.348491,191.810459 301.720239,168.071595 284.536682,150.888038 C267.353124,133.70448 243.614261,123.076229 217.393036,123.076229 Z" id="Combined-Shape"></path>
            </g>
        </g>
    </g>
</svg>