<?xml version="1.0" encoding="UTF-8"?>
<svg width="1060px" height="1060px" viewBox="0 0 1060 1060" version="1.1" xmlns="http://www.w3.org/2000/svg" xmlns:xlink="http://www.w3.org/1999/xlink">
    <title>placement_menu</title>
    <g id="placement_menu" stroke="none" stroke-width="1" fill="none" fill-rule="evenodd">
        <circle id="Oval" stroke="#FFFFFF" stroke-width="40" cx="531" cy="311" r="170"></circle>
        <path d="M530.799321,29.1040764 C591.261744,29.1040764 673.258612,59.879887 733.483226,118.995762 C781.201264,165.835308 815.229351,229.857876 815.229351,308.850033 C815.229351,419.968463 730.075749,566.75567 551.313272,747.216737 C544.15579,754.442229 537.05087,761.51715 529.982721,768.391024 C522.93958,761.48781 515.845245,754.434307 508.699851,747.229977 C331.051696,568.116564 246.36929,421.328505 246.36929,308.850033 C246.36929,229.12841 280.2655,165.163972 327.760928,118.542937 C388.01023,59.402829 470.202329,29.1040764 530.799321,29.1040764 Z" id="Path-22" stroke="#FFFFFF" stroke-width="60" stroke-linejoin="round"></path>
        <g id="Group" transform="translate(43.918870, 616.262890)" stroke="#FFFFFF" stroke-linecap="square" stroke-linejoin="round" stroke-width="60">
            <path d="M167.413707,0 C135.188167,13.5612378 100.473612,35.5654064 63.2700426,66.0125059 C21.0900142,102.337187 0,139.960502 0,178.882452 C0,237.265376 24.0778512,262.304234 63.2700426,296.095399 C89.3981702,318.622842 124.112725,339.460383 167.413707,358.608023 C262.490252,391.858535 358.150595,408.483791 454.394737,408.483791" id="Path-23-Copy"></path>
            <path d="M681.413707,0 C649.188167,13.5612378 614.473612,35.5654064 577.270043,66.0125059 C535.090014,102.337187 514,139.960502 514,178.882452 C514,237.265376 538.077851,262.304234 577.270043,296.095399 C603.39817,318.622842 638.112725,339.460383 681.413707,358.608023 C776.490252,391.858535 872.150595,408.483791 968.394737,408.483791" id="Path-23-Copy-2" transform="translate(741.197368, 204.241895) scale(-1, 1) translate(-741.197368, -204.241895) "></path>
        </g>
        <g id="Group-Copy" transform="translate(191.000000, 702.502279)" stroke="#FFFFFF" stroke-linecap="square" stroke-linejoin="round" stroke-width="40">
            <path d="M89.3692897,0 C64.4755926,9.39633754 44.6123859,20.9416962 29.7796696,34.636076 C7.53059522,55.1776457 0,70.7801079 0,87.8888359 C0,117.90328 17.0094185,141.347353 44.6961244,158.719266 C63.1539284,170.300541 87.6774785,181.013043 118.266775,190.856774 C185.432102,207.950739 253.009843,216.497721 321,216.497721" id="Path-23-Copy"></path>
            <path d="M449.36929,7.531753e-13 C424.475593,9.39633754 404.612386,20.9416962 389.77967,34.636076 C367.530595,55.1776457 360,70.7801079 360,87.8888359 C360,117.90328 377.009418,141.347353 404.696124,158.719266 C423.153928,170.300541 447.677479,181.013043 478.266775,190.856774 C545.432102,207.950739 613.009843,216.497721 681,216.497721" id="Path-23-Copy-3" transform="translate(520.500000, 108.248860) scale(-1, 1) translate(-520.500000, -108.248860) "></path>
        </g>
    </g>
</svg>