<?xml version="1.0" encoding="UTF-8"?>
<svg width="1060px" height="1060px" viewBox="0 0 1060 1060" version="1.1" xmlns="http://www.w3.org/2000/svg" xmlns:xlink="http://www.w3.org/1999/xlink">
    <title>placement_menu</title>
    <g id="placement_menu" stroke="none" stroke-width="1" fill="none" fill-rule="evenodd">
        <path d="M530.5,20 C605.544447,20 680.682747,47.4593739 734.66625,99.3787345 C782.176023,145.071898 813,209.767794 813,290.933446 C813,408.807281 716.684919,560.99633 529.516525,748.751285 C343.623562,562.370589 248,410.194246 248,290.933446 C248,209.036285 278.59494,144.399528 325.86767,98.9343436 C379.890283,46.977369 455.252435,20 530.5,20 Z M531,112 C479.956238,112 433.760639,132.340454 400.31558,165.177422 C366.736478,198.145995 346,243.700732 346,294 C346,344.299268 366.736478,389.854005 400.31558,422.822578 C433.760639,455.659546 479.956238,476 531,476 C582.043762,476 628.239361,455.659546 661.68442,422.822578 C695.263522,389.854005 716,344.299268 716,294 C716,243.700732 695.263522,198.145995 661.68442,165.177422 C628.239361,132.340454 582.043762,112 531,112 Z" id="Combined-Shape" stroke="#FFFFFF" stroke-width="40" fill="#FFFFFF"></path>
        <g id="Group" transform="translate(43.918870, 616.262890)" stroke="#FFFFFF" stroke-linecap="square" stroke-linejoin="round" stroke-width="60">
            <path d="M167.413707,0 C135.188167,13.5612378 100.473612,35.5654064 63.2700426,66.0125059 C21.0900142,102.337187 0,139.960502 0,178.882452 C0,237.265376 24.0778512,262.304234 63.2700426,296.095399 C89.3981702,318.622842 124.112725,339.460383 167.413707,358.608023 C262.490252,391.858535 358.150595,408.483791 454.394737,408.483791" id="Path-23-Copy"></path>
            <path d="M681.413707,0 C649.188167,13.5612378 614.473612,35.5654064 577.270043,66.0125059 C535.090014,102.337187 514,139.960502 514,178.882452 C514,237.265376 538.077851,262.304234 577.270043,296.095399 C603.39817,318.622842 638.112725,339.460383 681.413707,358.608023 C776.490252,391.858535 872.150595,408.483791 968.394737,408.483791" id="Path-23-Copy-2" transform="translate(741.197368, 204.241895) scale(-1, 1) translate(-741.197368, -204.241895) "></path>
        </g>
        <g id="Group-Copy" transform="translate(191.000000, 702.502279)" stroke="#FFFFFF" stroke-linecap="square" stroke-linejoin="round" stroke-width="40">
            <path d="M89.3692897,0 C64.4755926,9.39633754 44.6123859,20.9416962 29.7796696,34.636076 C7.53059522,55.1776457 0,70.7801079 0,87.8888359 C0,117.90328 17.0094185,141.347353 44.6961244,158.719266 C63.1539284,170.300541 87.6774785,181.013043 118.266775,190.856774 C185.432102,207.950739 253.009843,216.497721 321,216.497721" id="Path-23-Copy"></path>
            <path d="M449.36929,7.531753e-13 C424.475593,9.39633754 404.612386,20.9416962 389.77967,34.636076 C367.530595,55.1776457 360,70.7801079 360,87.8888359 C360,117.90328 377.009418,141.347353 404.696124,158.719266 C423.153928,170.300541 447.677479,181.013043 478.266775,190.856774 C545.432102,207.950739 613.009843,216.497721 681,216.497721" id="Path-23-Copy-3" transform="translate(520.500000, 108.248860) scale(-1, 1) translate(-520.500000, -108.248860) "></path>
        </g>
    </g>
</svg>