<?xml version="1.0" encoding="UTF-8"?>
<svg width="1026px" height="1026px" viewBox="0 0 1026 1026" version="1.1" xmlns="http://www.w3.org/2000/svg" xmlns:xlink="http://www.w3.org/1999/xlink">
    <title>placement_menu</title>
    <g id="placement_menu" stroke="none" stroke-width="1" fill="none" fill-rule="evenodd">
        <g id="Group-2" transform="translate(240.000000, 25.000000)" fill="#FFFFFF" stroke="#FFFFFF">
            <path d="M272,558 C331.094468,558 384.594468,581.952766 423.320851,620.679149 C462.047234,659.405532 486,712.905532 486,772 C486,831.094468 462.047234,884.594468 423.320851,923.320851 C384.594468,962.047234 331.094468,986 272,986 C212.905532,986 159.405532,962.047234 120.679149,923.320851 C81.9527659,884.594468 58,831.094468 58,772 C58,712.905532 81.9527659,659.405532 120.679149,620.679149 C159.405532,581.952766 212.905532,558 272,558 Z M272,575.813187 C247.358086,575.813187 225.04902,585.801296 208.900433,601.949883 C192.751845,618.098471 182.763736,640.407537 182.763736,665.049451 C182.763736,689.691364 192.751845,712.00043 208.900433,728.149018 C225.04902,744.297605 247.358086,754.285714 272,754.285714 C296.641914,754.285714 318.95098,744.297605 335.099567,728.149018 C351.248155,712.00043 361.236264,689.691364 361.236264,665.049451 C361.236264,640.407537 351.248155,618.098471 335.099567,601.949883 C318.95098,585.801296 296.641914,575.813187 272,575.813187 Z" id="Oval-2" stroke-width="30"></path>
            <g id="Group" stroke-width="15">
                <g id="position">
                    <path d="M275,7.5 C345.879045,7.5 413.972517,37.9877177 463.728596,87.6960116 C511.590125,135.511575 542.5,201.159689 542.5,274.735894 C542.5,367.509235 465.602482,488.633294 314.020247,638.631256 C309.706248,642.900167 305.690347,648.33363 301.705351,654.013415 L301.136247,654.82639 L300.327719,655.985692 L300.125844,656.275544 L300.125844,656.275544 L299.92512,656.563808 L298.716535,658.298172 L298.516998,658.583871 L298.516998,658.583871 L298.321736,658.863157 L297.516,660.011517 L296.941482,660.825211 C296.765091,661.074237 296.588673,661.323713 296.412158,661.573444 L295.882251,662.323207 C295.351911,663.073346 294.820061,663.824031 294.2848,664.570018 L293.748332,665.314244 L293.200448,666.066064 C287.706205,673.558 281.7279,680.200798 273.271099,680.491366 C264.630318,680.788255 259.578704,673.778994 254.983795,666.460634 L254.573448,665.804618 L254.165043,665.148067 L253.554983,664.164677 L253.554983,664.164677 L252.94648,663.186364 L252.480397,662.436899 L251.779203,661.300617 L251.430288,660.73233 L251.430288,660.73233 L251.082855,660.165224 L250.405017,659.05715 L250.063618,658.499155 L250.063618,658.499155 L249.718903,657.93643 L249.035784,656.825104 C245.565458,651.196992 242.010038,645.829221 237.994994,641.707215 C85.0937877,484.732636 7.5,362.574225 7.5,274.735894 C7.5,204.616778 39.508341,138.070467 88.7100281,88.9160324 C138.229202,39.4444161 205.249408,7.5 275,7.5 Z M273.52864,157.035615 C241.07006,157.035615 211.683832,170.210572 190.412576,191.513129 C169.145309,212.811692 155.990287,242.235122 155.990287,274.735894 C155.990287,307.236666 169.145309,336.660097 190.412576,357.958659 C211.683832,379.261217 241.07006,392.436174 273.52864,392.436174 C305.98722,392.436174 335.373448,379.261217 356.644704,357.958659 C377.911971,336.660097 391.066992,307.236666 391.066992,274.735894 C391.066992,242.235122 377.911971,212.811692 356.644704,191.513129 C335.373448,170.210572 305.98722,157.035615 273.52864,157.035615 Z" id="Combined-Shape"></path>
                </g>
            </g>
        </g>
    </g>
</svg>