<?xml version="1.0" encoding="UTF-8"?>
<svg width="1026px" height="1026px" viewBox="0 0 1026 1026" version="1.1" xmlns="http://www.w3.org/2000/svg" xmlns:xlink="http://www.w3.org/1999/xlink">
    <title>symbol_video_seen</title>
    <g id="symbol_video_seen" stroke="none" stroke-width="1" fill="none" fill-rule="evenodd">
        <g id="block_gray">
            <path d="M398.995098,221.119222 C359.931373,220.829724 128.382354,221.158476 74.5392163,221.158476 C58.5392163,221.158476 41.8627451,226.457748 24.5,237.061201 C8.16666729,250.064045 0,269.269001 0,294.676069 L0,618.917947 C0,625.973831 0,625.973831 4.9852938,625.973831 C9.97058886,625.973831 125.745098,626.032712 129.446079,625.973831 C134.897059,625.973831 137.416666,624.889443 139.921569,620.439035 C142.426471,615.988627 142.333333,611.960199 142.426471,606.582419 C143.509804,546.450395 168.519608,522.902979 214.916667,522.902979 C261.318628,522.902979 282.019608,565.959569 281.602941,606.582419 C281.563726,610.345883 282.019608,616.592156 284.421569,620.439035 C286.828431,624.285914 289.740196,625.973831 293.72549,625.973831 L398.117647,625.973831 C404.578432,625.973831 404.578432,625.973831 404.578432,621.278087 L404.578432,516.489878 L407.818628,512.343688 C411.058824,508.197498 418.397059,505.616556 423.789217,505.577302 C484.132353,505.135696 512,481.127048 512,434.939963 C512,387.123841 488.460785,362.050432 423.789217,361.471436 C420.406863,361.441997 410.965687,358.689318 407.818628,354.93076 C405.715687,352.423419 404.637256,350.75513 404.578432,349.916079 L404.578432,228.199639 C404.578432,221.119222 404.578432,221.158476 398.995098,221.119222 Z" id="Path" fill="#C9C9C9" fill-rule="nonzero"></path>
            <path d="M0.117053,631.004902 C-0.167538459,670.07353 0.156307081,901.617646 0.156307081,955.465687 C0.156307081,971.460784 5.45560801,988.142157 16.0591163,1005.5 C29.0620313,1021.83333 48.2719975,1030 73.6742943,1030 L397.917909,1030 C404.973831,1030 404.973831,1030 404.973831,1025.01471 C404.973831,1020.02941 405.032711,904.259804 404.973831,900.553921 C404.973831,895.107843 403.889436,892.588235 399.439006,890.078431 C394.988574,887.573529 390.960124,887.671568 385.582315,887.573529 C325.44997,886.495098 301.902427,861.480393 301.902427,815.083333 C301.902427,768.686275 344.959248,747.985294 385.582315,748.40196 C389.345799,748.441176 395.597012,747.985294 399.439006,745.578431 C403.285906,743.176471 404.973831,740.259804 404.973831,736.27451 L404.973831,631.887255 C404.973831,625.426471 404.973831,625.426471 400.278061,625.426471 L295.494199,625.426471 L291.347986,622.186275 C287.201774,618.946078 284.615911,611.607843 284.576657,606.210785 C284.135049,545.867647 260.126272,518 213.938938,518 C166.122561,518 141.049017,541.544118 140.470019,606.210785 C140.44058,609.59804 137.687886,619.034314 133.929309,622.186275 C131.42686,624.284313 129.753655,625.362746 128.919506,625.426471 L7.19750817,625.426471 C0.117053,625.426471 0.156307081,625.426471 0.117053,631.004902 Z" id="Path" fill="#E8E8E8" fill-rule="nonzero"></path>
            <path d="M410.004902,1029.88078 C449.073528,1030.17028 680.617646,1029.84152 734.465687,1029.84152 C750.460784,1029.84152 767.142157,1024.54225 784.504902,1013.9388 C800.833333,1000.93596 809,981.730999 809,956.323931 L809,632.082053 C809,625.026169 809,625.026169 804.014705,625.026169 C799.034313,625.026169 683.259804,624.967288 679.553921,625.026169 C674.107843,625.026169 671.588235,626.110557 669.083333,630.560965 C666.573529,635.011373 666.671568,639.039801 666.573529,644.417581 C665.495098,704.549605 640.480392,728.097021 594.083333,728.097021 C547.686275,728.097021 526.985294,685.040431 527.40196,644.417581 C527.441176,640.654116 526.985294,634.407844 524.583334,630.560965 C522.176471,626.714086 519.259804,625.026169 515.27451,625.026169 L410.887255,625.026169 C404.426471,625.026169 404.426471,625.026169 404.426471,629.721913 L404.426471,734.510121 L401.186274,738.656312 C397.946078,742.802502 390.607843,745.383443 385.210785,745.422697 C324.867647,745.864304 297,769.872952 297,816.060037 C297,863.87616 320.544118,888.949569 385.210785,889.528563 C388.598039,889.558004 398.034314,892.310681 401.186274,896.06924 C403.284313,898.576581 404.362744,900.24487 404.426471,901.083921 L404.426471,1022.80036 C404.426471,1029.88078 404.426471,1029.84152 410.004902,1029.88078 Z" id="Path" fill="#DEDEDE" fill-rule="nonzero"></path>
            <path d="M1030.88402,401.334549 C1031.16864,362.038974 1030.83985,129.133641 1030.83985,74.9729158 C1030.83985,58.8820775 1025.51552,42.1048523 1014.86194,24.6412428 C1001.78909,8.21211344 982.493894,0 956.961613,0 L631.122015,0 C624.026172,0 624.026172,0 624.026172,5.01061533 C624.026172,10.0261331 623.967285,126.481251 624.026172,130.202442 C624.026172,135.68372 625.120483,138.218444 629.590962,140.73846 C634.061442,143.263379 638.109901,143.165322 643.512754,143.263379 C703.945203,144.346887 727.607832,169.507821 727.607832,216.177138 C727.607832,262.846453 684.340848,283.66845 643.512754,283.251716 C639.734192,283.212494 633.452947,283.66845 629.590962,286.085508 C625.728978,288.507469 624.026172,291.439315 624.026172,295.449769 L624.026172,400.447151 C624.026172,406.948202 624.026172,406.948202 628.746921,406.948202 L734.051015,406.948202 L738.217247,410.208534 C742.38348,413.468866 744.979401,420.84751 745.018659,426.274859 C745.460309,486.970955 769.589124,515 816.006545,515 C864.058071,515 889.251753,491.324601 889.835713,426.274859 C889.865155,422.867445 892.632829,413.375713 896.411391,410.208534 C898.928796,408.095447 900.607067,407.007035 901.446201,406.948202 L1023.76364,406.948202 C1030.88402,406.948202 1030.83985,406.948202 1030.88402,401.334549 Z" id="Path" fill="#ADADAD" fill-rule="nonzero"></path>
            <path d="M129.164227,780.392642 L232.14416,780.597182 C235.045832,780.600648 237.673632,781.779344 239.576881,783.682592 C241.480128,785.585839 242.658825,788.213639 242.665758,791.11878 L242.870326,894.029378 C242.877231,896.941452 241.702,899.579651 239.795285,901.4933 C237.895504,903.400013 235.267704,904.585643 232.362564,904.592578 L129.393033,904.391505 C126.487892,904.384572 123.860092,903.205877 121.956845,901.302628 C120.053596,899.399379 118.874899,896.771581 118.871433,893.869907 L118.670331,790.955842 C118.663428,788.043769 119.838657,785.405569 121.741906,783.495387 C123.641686,781.588672 126.262553,780.403043 129.164227,780.392642 Z" id="Path" stroke="#BDBDBD" stroke-width="28.0000002" transform="translate(180.770329, 842.492610) rotate(45.000000) translate(-180.770329, -842.492610) "></path>
            <line x1="264.78832" y1="838.185372" x2="138.327495" y2="713.430865" id="Path" stroke="#BDBDBD" stroke-width="28.0000003" transform="translate(201.557907, 775.808118) rotate(-179.522504) translate(-201.557907, -775.808118) "></line>
            <polygon id="Path" fill="#BDBDBD" fill-rule="nonzero" points="181 927 268 843 94 843"></polygon>
            <path d="M293,870 C278.716619,883.962102 269.884454,897.272641 266.503508,909.931614 C263.117598,922.590587 265.450996,933.534915 273.498741,942.774399 C276.408043,945.841162 279.530826,948.153482 282.862126,949.706459 C286.193426,951.264337 289.574372,952.028578 293,952" id="Path" fill="#BDBDBD" fill-rule="nonzero"></path>
            <path d="M293,870 C307.283382,883.962102 316.115545,897.272641 319.496491,909.931614 C322.882403,922.590587 320.549004,933.534915 312.501259,942.774399 C309.591957,945.841162 306.469174,948.153482 303.137875,949.706459 C299.806575,951.264337 296.425629,952.028578 293,952" id="Path" fill="#BDBDBD" fill-rule="nonzero"></path>
            <path d="M817.214097,139 L924,245.477124 C905.903691,264.007877 894.008042,273.275702 888.308147,273.275702 C869.887812,273.275702 865.72458,243.409989 846.906577,250.331467 C837.308561,253.863233 827.646722,269.175717 817.871967,284.963351 L816.148742,287.755455 C807.326423,302.009879 798.410824,316.117351 789.382306,321.775036 C769.749332,334.074988 757.357827,334.074988 745.27071,321.775036 C733.178683,309.475083 724.39564,296.219938 741.706434,273.275702 C759.017229,250.331467 800.585719,236.836298 812.338993,217.60507 C818.917684,206.833428 810.929974,200.529151 802.623149,193.930969 L801.734535,193.220697 C795.504417,188.248792 789.382306,183.012373 789.382306,175.503084 C789.382306,163.585209 798.656297,151.417513 817.214097,139 Z M765.266985,284.595969 C758.324993,284.595969 752.69874,290.214465 752.69874,297.135945 C752.69874,304.062321 758.324993,309.67592 765.266985,309.67592 C772.208978,309.67592 777.835231,304.062321 777.835231,297.135945 C777.835231,290.214465 772.208978,284.595969 765.266985,284.595969 Z" id="Shape" fill="#636363" fill-rule="nonzero"></path>
            <path d="M832.96109,137.191587 C830.904817,134.9552 832.542947,132.782711 834.195836,131.086989 C840.8861,124.210716 850.8969,113.790631 872.743566,92.3803043 C873.983231,91.1662657 875.232737,89.9079912 876.511758,88.6202253 C878.710691,86.4035005 883.620163,84 888.977294,84 C894.329505,84 897.217141,84.9928566 900.22776,86.3101127 C903.243299,87.6273687 938.391783,123.350567 945.997038,131.086989 C946.469292,132.207641 950.144019,134.527584 949.042093,139.231368 C948.304197,142.372138 944.536003,149.140279 937.737513,159.535789 C947.497428,153.327974 953.926969,149.73501 957.016297,148.761814 C959.27918,148.044204 961.43384,148.044204 963.475353,148.761814 C971.395446,157.073306 976.236049,162.720797 977.987324,165.699368 C980.614237,170.17214 980.048516,171.926844 979.679567,176.316059 C979.433602,179.235649 978.336595,182.071682 976.383628,184.809411 C949.898052,212.747037 934.928587,227.895481 931.47523,230.254746 C931.037411,230.549655 928.125178,232.00945 925.148995,229.797638 C922.172812,227.590743 834.81567,139.216622 832.96109,137.191587 Z" id="Path" fill="#636363" fill-rule="nonzero"></path>
            <path d="M150,295.5 C150,309.58165 138.58165,321 124.5,321 C110.41835,321 99,309.58165 99,295.5 C99,281.41835 110.41835,270 124.5,270 C138.58165,270 150,281.41835 150,295.5 Z" id="Path" fill="#A6A6A6" fill-rule="nonzero"></path>
            <path d="M235,295.5 C235,309.58165 223.58165,321 209.5,321 C195.41835,321 184,309.58165 184,295.5 C184,281.41835 195.41835,270 209.5,270 C223.58165,270 235,281.41835 235,295.5 Z" id="Path" fill="#A6A6A6" fill-rule="nonzero"></path>
            <path d="M320,295.5 C320,309.58165 308.585457,321 294.497547,321 C280.414542,321 269,309.58165 269,295.5 C269,281.41835 280.414542,270 294.497547,270 C308.585457,270 320,281.41835 320,295.5 Z" id="Path" fill="#A6A6A6" fill-rule="nonzero"></path>
            <path d="M150,380.497548 C150,394.585458 138.58165,406 124.5,406 C110.41835,406 99,394.585458 99,380.497548 C99,366.414543 110.41835,355 124.5,355 C138.58165,355 150,366.414543 150,380.497548 Z" id="Path" fill="#A6A6A6" fill-rule="nonzero"></path>
            <path d="M235,380.497548 C235,394.585458 223.58165,406 209.5,406 C195.41835,406 184,394.585458 184,380.497548 C184,366.414543 195.41835,355 209.5,355 C223.58165,355 235,366.414543 235,380.497548 Z" id="Path" fill="#A6A6A6" fill-rule="nonzero"></path>
            <path d="M320,380.497548 C320,394.585458 308.585457,406 294.497547,406 C280.414542,406 269,394.585458 269,380.497548 C269,366.414543 280.414542,355 294.497547,355 C308.585457,355 320,366.414543 320,380.497548 Z" id="Path" fill="#A6A6A6" fill-rule="nonzero"></path>
            <path d="M150,465.502452 C150,479.585457 138.58165,491 124.5,491 C110.41835,491 99,479.585457 99,465.502452 C99,451.414543 110.41835,440 124.5,440 C138.58165,440 150,451.414543 150,465.502452 Z" id="Path" fill="#A6A6A6" fill-rule="nonzero"></path>
            <path d="M235,465.502452 C235,479.585457 223.58165,491 209.5,491 C195.41835,491 184,479.585457 184,465.502452 C184,451.414543 195.41835,440 209.5,440 C223.58165,440 235,451.414543 235,465.502452 Z" id="Path" fill="#A6A6A6" fill-rule="nonzero"></path>
            <path d="M320,465.502452 C320,479.585457 308.585457,491 294.497547,491 C280.414542,491 269,479.585457 269,465.502452 C269,451.414543 280.414542,440 294.497547,440 C308.585457,440 320,451.414543 320,465.502452 Z" id="Path" fill="#A6A6A6" fill-rule="nonzero"></path>
            <polygon id="Path" fill="#A6A6A6" fill-rule="nonzero" points="116 396 133 396 133 450 116 450"></polygon>
            <polygon id="Path" fill="#A6A6A6" fill-rule="nonzero" points="201 396 218 396 218 450 201 450"></polygon>
            <polygon id="Path" fill="#A6A6A6" fill-rule="nonzero" points="200 310 217 310 217 364 200 364"></polygon>
            <polygon id="Path" fill="#A6A6A6" fill-rule="nonzero" points="286 311 303 311 303 365 286 365"></polygon>
            <polygon id="Path" fill="#A6A6A6" fill-rule="nonzero" points="141 459 195 459 195 476 141 476"></polygon>
            <polygon id="Path" fill="#A6A6A6" fill-rule="nonzero" points="227 287 281 287 281 304 227 304"></polygon>
            <line x1="616.690014" y1="801.895744" x2="583.992237" y2="922.051477" id="Path" stroke="#828282" stroke-width="19.9999989" stroke-linecap="round" stroke-linejoin="round" transform="translate(600.341126, 861.973611) rotate(9.773961) translate(-600.341126, -861.973611) "></line>
            <path d="M533,799 L480.415345,851.632755 C474.515099,857.538756 474.529887,867.10343 480.44985,872.99468 C480.602656,873.147125 480.76039,873.294651 480.918124,873.437261 L533,921" id="Path" stroke="#828282" stroke-width="20" stroke-linecap="round" stroke-linejoin="round"></path>
            <path d="M726,799 L673.415345,851.632755 C667.515099,857.538756 667.529887,867.10343 673.44985,872.99468 C673.602656,873.147125 673.76039,873.294651 673.918124,873.437261 L726,921" id="Path" stroke="#828282" stroke-width="20" stroke-linecap="round" stroke-linejoin="round" transform="translate(697.500000, 860.000000) scale(-1, 1) translate(-697.500000, -860.000000) "></path>
        </g>
        <g id="Group" transform="translate(254.000000, 214.000000)">
            <circle id="Oval" stroke="#398D3D" stroke-width="50" fill="#398D3D" cx="258" cy="258" r="233"></circle>
            <polyline id="Line-Copy" stroke="#FFFFFF" stroke-width="80" stroke-linecap="square" points="147.705 273.890197 210.843638 337.335 367.65 178.665"></polyline>
        </g>
    </g>
</svg>