<?xml version="1.0" encoding="UTF-8"?>
<svg width="1024px" height="1024px" viewBox="0 0 1024 1024" version="1.1" xmlns="http://www.w3.org/2000/svg" xmlns:xlink="http://www.w3.org/1999/xlink">
    <title>text_video</title>
    <g id="text_video" stroke="none" stroke-width="1" fill="none" fill-rule="evenodd">
        <g id="Group">
            <path d="M63.6783396,1022.9 C60.5783396,1022.5 54.0783396,1020.6 49.1783396,1018.8 C24.3783396,1009.4 6.57833956,988.5 1.37833956,962.5 C-0.0216604412,955.2 -0.121660441,922.6 0.0783395588,612 C0.478339559,236.8 -0.121660441,268.6 5.97833956,253.5 C12.9783396,236.4 29.2783396,220.1 46.3783396,213.1 C61.1783396,207.1 49.0783396,207.6 210.67834,207.3 L358.87834,207 L358.87834,172.6 L358.87834,138.3 L344.17834,137.7 C333.07834,137.3 327.57834,136.6 322.37834,134.9 C301.07834,128.3 284.27834,114.1 274.87834,94.7 C267.97834,80.3 267.67834,77.9 267.17834,36.8 L266.67834,0 L511.87834,0 L757.07834,0 L756.57834,35.8 C756.07834,77.2 755.67834,80 747.77834,96 C743.27834,105 741.37834,107.7 733.97834,115 C718.47834,130.4 703.37834,136.6 678.67834,137.7 L664.87834,138.3 L664.87834,172.6 L664.87834,206.9 L813.17834,207.2 L961.37834,207.5 L968.37834,209.8 C984.37834,215.2 998.37834,224.6 1007.27834,236 C1012.57834,242.8 1019.97834,257.8 1021.97834,266 C1023.17834,270.6 1023.37834,328.7 1023.37834,615.5 L1023.37834,959.5 L1021.07834,967.3 C1013.37834,994 995.87834,1011.9 968.37834,1021.1 L961.37834,1023.5 L515.37834,1023.6 C270.07834,1023.7 66.7783396,1023.4 63.6783396,1022.9 Z" id="Path" fill="#4D4E5A" fill-rule="nonzero" transform="translate(511.689170, 511.809580) scale(-1, 1) rotate(-180.000000) translate(-511.689170, -511.809580) "></path>
            <polygon id="Path" fill="#989898" fill-rule="nonzero" transform="translate(511.878340, 851.119160) scale(-1, 1) rotate(-180.000000) translate(-511.878340, -851.119160) " points="620.87834 851.11916 620.87834 816.61916 511.87834 816.61916 402.87834 816.61916 402.87834 851.11916 402.87834 885.61916 511.87834 885.61916 620.87834 885.61916"></polygon>
            <path d="M693.57834,977.01916 C699.77834,974.21916 707.17834,966.71916 710.17834,960.11916 C711.87834,956.31916 712.37834,953.01916 712.67834,942.71916 L713.07834,929.91916 L511.87834,929.91916 L310.67834,929.91916 L311.07834,943.21916 C311.37834,955.11916 311.67834,956.91916 314.07834,961.41916 C318.67834,970.31916 326.67834,976.71916 335.57834,978.81916 C337.77834,979.31916 414.17834,979.61916 513.87834,979.61916 L688.37834,979.41916 L693.57834,977.01916 Z" id="Path" fill="#989898" fill-rule="nonzero" transform="translate(511.878340, 954.769160) scale(-1, 1) rotate(-180.000000) translate(-511.878340, -954.769160) "></path>
            <rect id="Rectangle" fill="#DCF5FF" x="44" y="63" width="936" height="687" rx="75"></rect>
            <g transform="translate(124.000000, 205.000000)" stroke-linecap="round" stroke-linejoin="round" stroke-width="25">
                <line x1="4.77472604e-13" y1="360.283902" x2="83.7518229" y2="360.283902" id="Line-Copy-10" stroke="#F7C400"></line>
                <line x1="148.176302" y1="360.283902" x2="170.080625" y2="360.283902" id="Line-Copy-14" stroke="#F7C400"></line>
                <line x1="100.917055" y1="270.073705" x2="221.620208" y2="270.073705" id="Line-Copy-2" stroke="#F7C400"></line>
                <line x1="9.09688217e-13" y1="270.073705" x2="36.0777083" y2="270.073705" id="Line-Copy-3" stroke="#F7C400"></line>
                <line x1="233" y1="360.704298" x2="445.600781" y2="360.704298" id="Line-Copy-4" stroke="#F7C400"></line>
                <line x1="629.198412" y1="90.8545565" x2="777.374714" y2="90.8545565" id="Line-Copy-14" stroke="#00937B"></line>
                <line x1="622.526586" y1="0.644358557" x2="777.145336" y2="0.644358557" id="Line-Copy-2" stroke="#00937B"></line>
                <line x1="521.609531" y1="0.644358557" x2="557.68724" y2="0.644358557" id="Line-Copy-3" stroke="#00937B"></line>
                <line x1="667.448047" y1="271.274952" x2="776.969662" y2="271.274952" id="Line-Copy-4" stroke="#76B6CE"></line>
                <line x1="629.198412" y1="181.064754" x2="687.180443" y2="181.064754" id="Line-Copy-12" stroke="#76B6CE"></line>
                <line x1="719.198412" y1="360.064754" x2="777.180443" y2="360.064754" id="Line-Copy-16" stroke="#76B6CE"></line>
                <line x1="758.04737" y1="181.064754" x2="777.374714" y2="181.064754" id="Line-Copy-13" stroke="#76B6CE"></line>
                <line x1="648.04737" y1="360.064754" x2="667.374714" y2="360.064754" id="Line-Copy-17" stroke="#76B6CE"></line>
                <line x1="445.04737" y1="270.064754" x2="464.374714" y2="270.064754" id="Line-Copy-18" stroke="#76B6CE"></line>
                <line x1="278.644245" y1="180.668768" x2="430.686016" y2="180.668768" id="Line-Copy-10" stroke="#76B6CE"></line>
                <line x1="496.398984" y1="180.668768" x2="547.938568" y2="180.668768" id="Line-Copy-14" stroke="#76B6CE"></line>
                <line x1="380.205545" y1="90.4585705" x2="547.70919" y2="90.4585705" id="Line-Copy-2" stroke="#00937B"></line>
                <line x1="279.28849" y1="270.878966" x2="361.107578" y2="270.878966" id="Line-Copy-12" stroke="#F7C400"></line>
                <line x1="509.28849" y1="359.878966" x2="591.107578" y2="359.878966" id="Line-Copy-15" stroke="#76B6CE"></line>
                <line x1="529.245026" y1="270.878966" x2="585.938568" y2="270.878966" id="Line-Copy-13" stroke="#76B6CE"></line>
                <line x1="146.183656" y1="3.90051619" x2="113.621598" y2="123.565961" id="Line" stroke="#E75370" transform="translate(129.902627, 63.733239) rotate(9.773978) translate(-129.902627, -63.733239) "></line>
                <path d="M63.1359896,1 L11.0489153,53.2585227 C5.20068379,59.1260041 5.2162889,68.623466 11.0837703,74.4716975 C11.2342426,74.6216762 11.3878843,74.7684411 11.5445913,74.911893 L63.1359896,122.139409 L63.1359896,122.139409" id="Line-2" stroke="#E75370"></path>
                <path d="M261.563385,1 L209.476311,53.2585227 C203.62808,59.1260041 203.643685,68.623466 209.511166,74.4716975 C209.661639,74.6216762 209.81528,74.7684411 209.971987,74.911893 L261.563385,122.139409 L261.563385,122.139409" id="Line-2-Copy" stroke="#E75370" transform="translate(229.995391, 61.569704) scale(-1, 1) translate(-229.995391, -61.569704) "></path>
            </g>
        </g>
        <g id="play" transform="translate(253.689170, 214.000000)">
            <circle id="Oval" fill="#EB2F00" cx="258" cy="258" r="258"></circle>
            <path d="M298.17022,191.63851 L374.324126,324.907846 C379.804326,334.498195 376.472391,346.715288 366.882042,352.195488 C363.860088,353.922319 360.439802,354.830625 356.959264,354.830625 L204.651451,354.830625 C193.605756,354.830625 184.651451,345.87632 184.651451,334.830625 C184.651451,331.350086 185.559757,327.9298 187.286588,324.907846 L263.440494,191.63851 C268.920694,182.048161 281.137787,178.716227 290.728136,184.196426 C293.828761,185.968212 296.398434,188.537884 298.17022,191.63851 Z" id="Triangle" fill="#FFFFFF" transform="translate(280.805357, 258.040313) rotate(90.000000) translate(-280.805357, -258.040313) "></path>
        </g>
        <rect id="Rectangle" stroke="#979797" x="0.5" y="-1.5" width="1023" height="1024"></rect>
    </g>
</svg>