<?xml version="1.0" encoding="UTF-8"?>
<svg width="1024px" height="1024px" viewBox="0 0 1024 1024" version="1.1" xmlns="http://www.w3.org/2000/svg" xmlns:xlink="http://www.w3.org/1999/xlink">
    <title>text_video_seen</title>
    <g id="text_video_seen" stroke="none" stroke-width="1" fill="none" fill-rule="evenodd">
        <g id="code_gray">
            <path d="M63.7154102,0.718634661 C60.6129434,1.11917504 54.1099755,3.01929621 49.2095419,4.82172477 C24.394686,14.2246393 6.58114781,35.1308603 1.37779557,61.1415217 C-0.0195357016,68.4440455 -0.122136932,101.053841 0.0781798158,411.770109 C0.478812812,787.110047 -0.122136932,755.301329 5.98019706,770.404607 C12.986399,787.510586 29.2951195,803.815484 46.405106,810.820046 C61.2138929,816.823257 49.106941,816.320139 210.806579,816.622987 L359.094762,816.920949 L359.094762,885.647709 L344.388577,886.248519 C333.278323,886.649058 327.776939,887.347561 322.573588,889.047413 C301.261833,895.651434 284.449878,909.855941 275.04476,929.26258 C268.141158,943.667357 267.843126,946.070595 267.339892,987.184536 L266.841542,1024 L757.539555,1024 L757.036321,988.185885 C756.537971,946.769098 756.137338,943.970204 748.232152,927.963267 C743.727468,918.960893 741.8269,916.259693 734.42495,908.957169 C718.912612,893.551042 703.805793,887.347561 679.088652,886.248519 L665.28145,885.647709 L665.28145,817.023526 L813.672235,816.72068 L961.960417,816.422718 L968.966621,814.122056 C984.977308,808.719655 998.984828,799.316739 1007.8916,787.911125 C1013.19266,781.106834 1020.5995,766.101248 1022.59778,757.899952 C1023.79968,753.29863 1024,695.176404 1024,408.267829 L1024,64.1406846 L1021.6988,56.3399291 C1013.99393,29.6307663 996.48331,11.7237082 968.966621,2.52106447 L961.960417,0.117824726 L515.688764,0.0201333551 C270.242042,-0.0824448355 66.8178782,0.215518598 63.7154102,0.718634661 Z" id="Path" fill="#4F4F4F" fill-rule="nonzero"></path>
            <polygon id="Path" fill="#999999" fill-rule="nonzero" points="621 851.502442 621 886 403 886 403 817 621 817"></polygon>
            <path d="M694.473734,932.618136 C700.684192,935.432754 708.09273,942.9777 711.100156,949.618824 C712.801919,953.440416 713.300712,956.760978 713.603899,967.120543 L714,980 L311,980 L311.40099,966.619511 C311.699287,954.648787 312.002475,952.836231 314.403526,948.3073 C319.010022,939.3575 327.024936,932.917772 335.934742,930.80558 C338.140187,930.299637 414.655956,930 514.502505,930 L689.265753,930.201395 L694.473734,932.618136 Z" id="Path" fill="#999999" fill-rule="nonzero"></path>
            <path d="M118.999922,63 L905.000078,63 C946.547886,63 980,96.4520537 980,137.999787 L980,675.000213 C980,716.547948 946.547886,750 905.000078,750 L118.999922,750 C77.4521139,750 44,716.547948 44,675.000213 L44,137.999787 C44,96.4520537 77.4521139,63 118.999922,63 Z" id="Path" fill="#F0F0F0" fill-rule="nonzero"></path>
            <line x1="124" y1="565.5" x2="208" y2="565.5" id="Path" stroke="#BDBDBD" stroke-width="20" stroke-linecap="round" stroke-linejoin="round"></line>
            <line x1="272" y1="565.5" x2="294" y2="565.5" id="Path" stroke="#BDBDBD" stroke-width="20" stroke-linecap="round" stroke-linejoin="round"></line>
            <line x1="225" y1="475.5" x2="346" y2="475.5" id="Path" stroke="#BDBDBD" stroke-width="20" stroke-linecap="round" stroke-linejoin="round"></line>
            <line x1="124" y1="475.5" x2="160" y2="475.5" id="Path" stroke="#BDBDBD" stroke-width="20" stroke-linecap="round" stroke-linejoin="round"></line>
            <line x1="357" y1="565.5" x2="570" y2="565.5" id="Path" stroke="#BDBDBD" stroke-width="20" stroke-linecap="round" stroke-linejoin="round"></line>
            <line x1="754" y1="295.5" x2="902" y2="295.5" id="Path" stroke="#636363" stroke-width="20" stroke-linecap="round" stroke-linejoin="round"></line>
            <line x1="747" y1="205.5" x2="902" y2="205.5" id="Path" stroke="#636363" stroke-width="20" stroke-linecap="round" stroke-linejoin="round"></line>
            <line x1="646" y1="205.5" x2="682" y2="205.5" id="Path" stroke="#636363" stroke-width="20" stroke-linecap="round" stroke-linejoin="round"></line>
            <line x1="792" y1="476.5" x2="902" y2="476.5" id="Path" stroke="#A6A6A6" stroke-width="20" stroke-linecap="round" stroke-linejoin="round"></line>
            <line x1="753" y1="386.5" x2="811" y2="386.5" id="Path" stroke="#A6A6A6" stroke-width="20" stroke-linecap="round" stroke-linejoin="round"></line>
            <line x1="844" y1="565.5" x2="902" y2="565.5" id="Path" stroke="#A6A6A6" stroke-width="20" stroke-linecap="round" stroke-linejoin="round"></line>
            <line x1="883" y1="386.5" x2="902" y2="386.5" id="Path" stroke="#A6A6A6" stroke-width="20" stroke-linecap="round" stroke-linejoin="round"></line>
            <line x1="773" y1="565.5" x2="792" y2="565.5" id="Path" stroke="#A6A6A6" stroke-width="20" stroke-linecap="round" stroke-linejoin="round"></line>
            <line x1="569" y1="475.5" x2="588" y2="475.5" id="Path" stroke="#A6A6A6" stroke-width="20" stroke-linecap="round" stroke-linejoin="round"></line>
            <line x1="403" y1="385.5" x2="555" y2="385.5" id="Path" stroke="#A6A6A6" stroke-width="20" stroke-linecap="round" stroke-linejoin="round"></line>
            <line x1="620" y1="385.5" x2="672" y2="385.5" id="Path" stroke="#A6A6A6" stroke-width="20" stroke-linecap="round" stroke-linejoin="round"></line>
            <line x1="504" y1="295.5" x2="672" y2="295.5" id="Path" stroke="#636363" stroke-width="20" stroke-linecap="round" stroke-linejoin="round"></line>
            <line x1="403" y1="476.5" x2="485" y2="476.5" id="Path" stroke="#BDBDBD" stroke-width="20" stroke-linecap="round" stroke-linejoin="round"></line>
            <line x1="633" y1="565.5" x2="715" y2="565.5" id="Path" stroke="#A6A6A6" stroke-width="20" stroke-linecap="round" stroke-linejoin="round"></line>
            <line x1="653" y1="476.5" x2="710" y2="476.5" id="Path" stroke="#A6A6A6" stroke-width="20" stroke-linecap="round" stroke-linejoin="round"></line>
            <line x1="270.282065" y1="208.975491" x2="237.709813" y2="328.686809" id="Path" stroke="#828282" stroke-width="19.9999989" stroke-linecap="round" stroke-linejoin="round" transform="translate(253.995939, 268.831150) rotate(9.773961) translate(-253.995939, -268.831150) "></line>
            <path d="M187,206 L135.341609,258.199234 C129.539908,264.061467 129.554437,273.54736 135.375509,279.385207 C135.525637,279.536396 135.675765,279.682708 135.835577,279.82902 L187,327" id="Path" stroke="#828282" stroke-width="20" stroke-linecap="round" stroke-linejoin="round"></path>
            <path d="M379,206 L327.337329,258.199234 C321.540533,264.061467 321.555061,273.54736 327.376071,279.385207 C327.521354,279.536396 327.676322,279.682708 327.831291,279.82902 L379,327" id="Path" stroke="#828282" stroke-width="20" stroke-linecap="round" stroke-linejoin="round" transform="translate(351.000000, 266.500000) scale(-1, 1) translate(-351.000000, -266.500000) "></path>
        </g>
        <g id="Group" transform="translate(254.000000, 214.000000)">
            <circle id="Oval" stroke="#398D3D" stroke-width="50" fill="#398D3D" cx="258" cy="258" r="233"></circle>
            <polyline id="Line-Copy" stroke="#FFFFFF" stroke-width="80" stroke-linecap="square" points="147.705 273.890197 210.843638 337.335 367.65 178.665"></polyline>
        </g>
    </g>
</svg>