<?xml version="1.0" encoding="UTF-8"?>
<svg width="1000px" height="1000px" viewBox="0 0 1000 1000" version="1.1" xmlns="http://www.w3.org/2000/svg" xmlns:xlink="http://www.w3.org/1999/xlink">
    <title>thumb_down</title>
    <g id="thumb_down" stroke="none" stroke-width="1" fill="none" fill-rule="evenodd">
        <g id="Group" transform="translate(0.000000, 30.000000)" fill="#E43135">
            <g id="thumb" transform="translate(500.000000, 469.887807) scale(-1, -1) translate(-500.000000, -469.887807) ">
                <rect id="Rectangle" x="0" y="297.75836" width="252" height="640" rx="79"></rect>
                <path d="M308.597005,345.62875 L308.597005,862.521343 C433.380307,898.264347 522.153483,920.792302 574.916533,930.105209 C654.061109,944.07457 691.314554,939.237945 734.858584,937.75836 C763.887937,936.77197 792.881026,934.22092 821.83785,930.105209 C875.317099,915.631609 912.447627,888.018336 933.229434,847.26539 C964.402144,786.135971 1000,617.75836 1000,518.296096 C1000,418.833833 957.331999,390.147101 923.081955,365.460776 C888.831912,340.774451 839.133359,345.62875 821.83785,345.62875 C766.01829,345.62875 704.739641,345.62875 638.001903,345.62875 C628.466883,346.175043 623.699373,343.928169 623.699373,338.888129 C623.699373,331.328069 661.707487,259.037663 668.361837,181.753273 C678.1375,26.1358083 540.894144,0 522.681239,0 C509.961889,0 491.375192,8.56093961 480.865941,33.2242084 C477.554791,40.9948633 475.159019,56.6622003 473.678623,80.2262191 C473.166904,116.244544 469.332305,146.873726 462.174825,172.113763 C451.438605,209.97382 439.42751,218.771207 424.596939,238.419757 C403.585092,266.257682 364.918447,301.994013 308.597005,345.62875 Z" id="Path-20"></path>
            </g>
        </g>
    </g>
</svg>