<?xml version="1.0" standalone="no"?>
<!DOCTYPE svg PUBLIC "-//W3C//DTD SVG 20010904//EN"
 "http://www.w3.org/TR/2001/REC-SVG-20010904/DTD/svg10.dtd">
<svg version="1.0" xmlns="http://www.w3.org/2000/svg"
 width="1024.000000pt" height="1024.000000pt" viewBox="0 0 1024.000000 1024.000000"
 preserveAspectRatio="xMidYMid meet">

<g transform="translate(0.000000,1024.000000) scale(0.100000,-0.100000)"
fill="#000000" stroke="none">
<path d="M4940 10229 c-549 -62 -1033 -410 -1269 -910 -46 -98 -106 -273 -113
-329 l-3 -25 -1655 -5 c-1392 -4 -1661 -7 -1690 -19 -57 -23 -116 -68 -149
-113 -64 -87 -62 -26 -59 -1329 l3 -1184 25 -50 c31 -63 92 -124 152 -154 36
-17 76 -24 171 -32 249 -18 442 -96 606 -245 213 -192 340 -505 318 -783 -14
-172 -91 -376 -191 -508 -166 -220 -430 -361 -706 -379 -167 -10 -254 -48
-319 -136 -65 -88 -61 38 -59 -1968 l3 -1825 25 -50 c31 -64 92 -124 155 -156
l50 -24 1819 -3 c1631 -2 1826 -1 1874 13 96 28 152 77 202 174 17 35 24 71
31 170 10 153 36 257 94 376 106 221 307 403 532 485 451 163 947 -24 1173
-442 73 -135 102 -244 119 -438 14 -161 68 -253 186 -311 l50 -24 1179 -3
c1051 -2 1185 -1 1234 13 96 28 150 75 203 175 l24 45 5 1659 5 1659 85 23
c174 46 321 113 485 221 128 85 335 290 422 419 372 549 374 1241 6 1799 -94
142 -292 338 -438 434 -163 108 -369 198 -520 229 l-40 8 -5 1014 c-5 949 -6
1018 -23 1055 -41 92 -101 151 -187 186 -29 12 -209 15 -1049 19 l-1014 5 -26
95 c-82 295 -223 526 -454 746 -332 318 -804 475 -1267 423z m411 -658 c319
-83 570 -315 674 -621 30 -88 42 -153 54 -290 14 -161 68 -253 186 -311 l50
-24 1002 -3 1003 -2 2 -1003 3 -1002 25 -50 c31 -63 92 -124 152 -154 36 -17
76 -24 171 -32 249 -18 442 -96 606 -245 213 -192 340 -505 318 -783 -14 -172
-91 -376 -191 -508 -166 -220 -430 -361 -706 -379 -167 -10 -254 -48 -319
-136 -65 -88 -61 19 -61 -1765 l0 -1623 -816 2 -817 3 -26 95 c-83 295 -223
526 -454 746 -510 488 -1303 572 -1914 203 -264 -160 -490 -411 -622 -690 -46
-98 -106 -273 -113 -329 l-3 -25 -1458 -3 -1457 -2 2 1456 3 1457 85 23 c174
46 321 113 485 221 128 85 335 290 422 419 212 313 310 686 274 1044 -22 213
-65 368 -156 557 -131 273 -358 521 -625 680 -129 77 -322 156 -445 181 l-40
8 -3 817 -2 817 1618 0 c1447 0 1624 2 1672 16 95 28 150 76 200 173 17 35 24
71 31 170 10 153 36 257 94 376 132 274 393 473 694 530 104 20 301 13 402
-14z"/>
<path d="M5047 5160 c-252 -1166 -459 -2132 -460 -2146 -2 -26 2 -28 68 -45
38 -10 73 -15 76 -11 3 4 212 963 464 2132 252 1169 460 2132 462 2141 4 13
-10 20 -61 33 -36 9 -71 16 -78 16 -10 0 -141 -587 -471 -2120z"/>
<path d="M3261 5736 l-615 -615 551 -558 c303 -307 581 -587 617 -623 l66 -64
55 54 c30 30 55 59 55 65 0 5 -251 261 -557 567 l-558 558 560 560 560 560
-55 55 c-30 30 -57 55 -60 55 -3 0 -282 -276 -619 -614z"/>
<path d="M6296 6300 c-25 -27 -46 -54 -46 -59 0 -5 249 -261 554 -568 l555
-558 -560 -560 -559 -560 58 -58 57 -57 620 620 620 620 -615 615 c-338 338
-620 615 -626 615 -6 0 -32 -22 -58 -50z"/>
</g>
</svg>
