<?xml version="1.0" standalone="no"?>
<!DOCTYPE svg PUBLIC "-//W3C//DTD SVG 20010904//EN"
 "http://www.w3.org/TR/2001/REC-SVG-20010904/DTD/svg10.dtd">
<svg version="1.0" xmlns="http://www.w3.org/2000/svg"
 width="1024.000000pt" height="1024.000000pt" viewBox="0 0 1024.000000 1024.000000"
 preserveAspectRatio="xMidYMid meet">

<g transform="translate(0.000000,1024.000000) scale(0.100000,-0.100000)"
fill="#000000" stroke="none">
<path d="M638 10229 c-31 -4 -96 -23 -145 -41 -248 -94 -426 -303 -478 -563
-14 -73 -15 -399 -13 -3505 4 -3752 -2 -3434 59 -3585 70 -171 233 -334 404
-404 148 -60 27 -55 1643 -58 l1482 -3 0 -344 0 -343 -147 -6 c-111 -4 -166
-11 -218 -28 -213 -66 -381 -208 -475 -402 -69 -144 -72 -168 -77 -579 l-5
-368 2452 0 2452 0 -5 358 c-5 414 -9 442 -88 602 -45 90 -64 117 -138 190
-155 154 -306 216 -553 227 l-138 6 0 343 0 343 1483 3 1482 3 70 23 c160 54
300 148 389 262 53 68 127 218 147 300 12 46 14 627 14 3495 l0 3440 -23 78
c-77 267 -252 446 -527 538 l-70 24 -4460 1 c-2453 1 -4486 -2 -4517 -7z
m8988 -461 c66 -35 128 -105 154 -174 20 -55 20 -63 20 -3044 l0 -2990 -4680
0 -4680 0 0 2993 c0 2827 1 2995 17 3041 31 85 121 169 213 197 14 4 2023 7
4465 6 l4440 -2 51 -27z m172 -6835 c-3 -184 -5 -201 -26 -241 -33 -63 -84
-114 -144 -148 l-53 -29 -4455 0 -4455 0 -43 23 c-63 34 -120 89 -150 146 -26
50 -27 57 -30 249 l-4 197 4682 0 4682 0 -4 -197z m-3588 -1208 l0 -345 -1090
0 -1090 0 0 345 0 345 1090 0 1090 0 0 -345z m727 -814 c62 -28 136 -103 166
-169 17 -38 22 -71 25 -174 l4 -128 -2012 0 -2012 0 4 133 c3 119 6 137 30
182 46 89 126 153 215 174 22 5 786 8 1783 8 l1745 -2 52 -24z"/>
<path d="M3065 9307 c-1799 -8 -1953 -10 -1985 -25 -61 -30 -72 -108 -22 -158
l26 -26 1961 7 c1194 4 1975 11 1998 16 98 25 99 162 2 187 -17 4 -907 3
-1980 -1z"/>
<path d="M5434 9311 c-44 -11 -54 -19 -71 -58 -18 -44 -4 -93 35 -120 26 -17
74 -18 917 -21 490 -2 910 0 934 3 80 12 121 79 90 148 -25 54 20 52 -964 54
-500 0 -924 -2 -941 -6z"/>
<path d="M7673 9310 c-43 -10 -60 -25 -73 -65 -9 -28 -8 -41 4 -67 32 -66 -9
-63 756 -66 382 -2 718 0 747 3 56 7 97 37 105 78 7 37 -11 84 -39 103 -27 18
-63 19 -748 21 -396 1 -735 -2 -752 -7z"/>
<path d="M2164 8830 c-718 -4 -834 -7 -850 -20 -35 -27 -43 -45 -44 -88 0 -34
6 -48 26 -67 l27 -25 806 1 c443 1 922 4 1064 8 l259 6 24 28 c45 52 25 134
-38 156 -19 7 -110 10 -237 9 -113 -2 -580 -5 -1037 -8z"/>
<path d="M3767 8816 c-49 -45 -46 -111 7 -150 27 -21 34 -21 963 -21 l935 0
29 33 c40 44 40 93 0 133 l-29 29 -940 0 -939 0 -26 -24z"/>
<path d="M6143 8828 c-58 -28 -63 -122 -9 -162 27 -20 41 -21 434 -24 224 -2
421 0 438 3 81 15 112 108 55 166 l-29 29 -434 -1 c-284 0 -441 -4 -455 -11z"/>
<path d="M7643 8828 c-58 -28 -63 -122 -9 -162 27 -21 37 -21 749 -24 501 -2
734 0 760 8 20 6 44 22 53 35 32 48 15 122 -33 144 -33 15 -1488 14 -1520 -1z"/>
<path d="M2289 8341 c-61 -61 -26 -153 64 -166 23 -3 221 -5 439 -3 383 3 397
4 424 24 55 41 48 135 -12 163 -17 8 -155 11 -455 11 l-431 0 -29 -29z"/>
<path d="M3527 8346 c-47 -44 -44 -112 7 -150 27 -20 38 -21 463 -21 l435 0
29 33 c40 44 40 93 0 133 l-29 29 -440 0 -439 0 -26 -24z"/>
<path d="M5650 8360 c-636 -4 -830 -8 -847 -18 -58 -33 -70 -103 -25 -152 l27
-31 725 1 c863 0 1365 8 1402 22 62 23 70 120 14 162 -33 25 -21 25 -1296 16z"/>
<path d="M7265 8358 c-33 -19 -44 -41 -45 -84 0 -44 24 -78 67 -95 14 -5 389
-9 929 -9 971 0 957 -1 984 50 27 50 9 118 -37 139 -35 16 -1870 15 -1898 -1z"/>
<path d="M5192 7929 c-35 -10 -72 -59 -72 -94 0 -39 37 -83 79 -95 28 -7 266
-10 758 -8 775 3 748 1 772 55 19 42 13 81 -18 115 l-29 33 -729 2 c-443 1
-741 -2 -761 -8z"/>
<path d="M7683 7930 l-631 -5 -26 -24 c-31 -30 -42 -73 -26 -112 25 -60 14
-59 637 -58 312 1 785 4 1050 8 l483 6 27 27 c38 39 38 97 0 136 l-27 27 -428
0 c-235 1 -711 -2 -1059 -5z"/>
<path d="M6019 7511 c-40 -40 -40 -89 0 -133 l29 -33 935 0 c929 0 936 0 963
21 53 39 56 105 7 150 l-26 24 -939 0 -940 0 -29 -29z"/>
<path d="M8258 7508 c-26 -28 -29 -38 -25 -71 7 -48 29 -74 76 -88 23 -6 179
-9 443 -7 392 3 408 4 434 24 53 39 56 105 7 150 l-26 24 -439 0 -440 0 -30
-32z"/>
<path d="M7260 7119 c-751 -5 -1526 -9 -1722 -11 l-356 -3 -26 -24 c-50 -47
-42 -127 17 -157 27 -14 201 -15 1676 -9 905 4 1795 10 1978 14 l331 6 26 24
c49 46 28 138 -36 160 -19 7 -123 10 -277 9 -135 -1 -860 -5 -1611 -9z"/>
<path d="M3026 7083 c-10 -34 -646 -2986 -644 -2988 7 -5 101 -25 104 -22 2 2
148 671 324 1488 176 816 323 1492 326 1501 4 13 -4 19 -33 27 -53 15 -71 14
-77 -6z"/>
<path d="M6710 6720 c-874 -5 -851 -4 -884 -52 -36 -51 -6 -130 55 -145 16 -5
490 -5 1053 -2 783 5 1032 9 1055 18 65 27 75 122 17 165 -33 25 -21 25 -1296
16z"/>
<path d="M8305 6723 c-55 -14 -87 -81 -65 -134 25 -59 28 -59 490 -59 462 0
465 0 490 59 16 39 5 82 -26 112 l-26 24 -421 2 c-232 0 -431 -1 -442 -4z"/>
<path d="M1455 6020 l-430 -430 435 -435 435 -435 40 40 40 40 -395 395 -395
395 393 393 392 393 -38 37 c-21 20 -40 37 -42 37 -3 0 -199 -194 -435 -430z"/>
<path d="M3585 6410 l-39 -40 392 -392 392 -393 -393 -392 -392 -393 40 -40
40 -40 435 435 435 435 -430 430 c-236 236 -432 430 -435 430 -3 0 -24 -18
-45 -40z"/>
</g>
</svg>
