<?xml version="1.0" encoding="UTF-8"?>
<svg width="1026px" height="1026px" viewBox="0 0 1026 1026" version="1.1" xmlns="http://www.w3.org/2000/svg" xmlns:xlink="http://www.w3.org/1999/xlink">
    <title>gesture</title>
    <g id="gesture" stroke="none" stroke-width="1" fill="none" fill-rule="evenodd">
        <path d="M368.384628,1024.87978 C359.580124,1022.84127 350.931991,1021.63106 342.960495,1018.62606 C300.344345,1002.56105 274.109054,971.82259 268.393234,926.774677 C260.130722,861.655659 304.413986,813.553913 355.936905,802.372395 C418.208603,788.858113 480.103164,830.499958 490.726181,893.30428 C500.796981,952.84383 461.669754,1010.42556 402.816177,1022.61129 C399.08461,1023.38387 395.276046,1023.78475 391.20964,1024.61916 C383.561752,1024.87978 376.207504,1024.87978 368.384628,1024.87978 Z" id="Path" fill="#FFDE59" fill-rule="nonzero"></path>
        <path d="M0.915996,633.348408 C1.740139,629.407551 2.596119,625.942463 3.383684,622.461933 C15.473988,569.031086 61.883495,532.4753 115.771186,533.946675 C170.048126,535.428669 214.370041,574.324543 223.597839,628.572712 C233.58789,687.302204 192.007446,745.992329 133.399902,755.885517 C68.354011,766.865559 11.342394,725.078083 1.256462,659.079243 C0.915996,650.525532 0.915996,642.171284 0.915996,633.348408 Z" id="Path" fill="#01BF63" fill-rule="nonzero"></path>
        <path d="M656.447372,0.879776873 C664.930526,2.79908187 673.214828,3.97322887 680.914901,6.76111787 C724.244552,22.4490419 750.624008,53.2936249 756.415878,98.8502619 C764.730514,164.250187 718.718246,214.550419 662.763046,223.698445 C605.401657,233.076359 548.923263,194.601521 536.176925,137.136921 C521.75151,72.1028559 566.860214,9.20495087 633.675583,1.20166687 C641.270248,0.879776873 648.624496,0.879776873 656.447372,0.879776873 Z" id="Path" fill="#FE3C30" fill-rule="nonzero"></path>
        <path d="M753.813827,940.602436 C747.619369,962.97414 735.914901,981.561909 718.813766,996.466877 C703.495712,1009.81795 685.638595,1018.42104 665.495346,1022.01021 C632.015243,1027.97597 601.630539,1020.31758 575.293869,999.322346 C553.155746,981.674214 539.482467,958.278889 534.98851,929.982929 C525.918075,872.870808 560.398483,822.220722 609.029037,806.097492 C648.167953,793.121174 684.445114,799.785481 716.422226,825.417317 C738.587875,843.18459 752.185775,866.76778 756.005539,895.318867 C758.018112,910.362385 757.64537,925.382343 753.813827,940.602436 Z" id="Path" fill="#007AFF" fill-rule="nonzero"></path>
        <path d="M978.138595,555.622944 C1014.86925,584.705891 1030.48863,622.365986 1021.38158,667.881916 C1012.31615,713.189533 983.603805,742.394062 939.00505,754.444843 C874.806259,771.791706 807.94194,725.445332 800.764083,659.471028 C795.105087,607.456989 822.797836,560.188496 871.604599,541.52364 C909.037826,527.208271 944.852096,532.26125 978.138595,555.622944 Z" id="Path" fill="#01BF63" fill-rule="nonzero"></path>
        <path d="M991.207992,458.168842 C958.170211,489.330494 919.686447,499.175831 877.064743,485.301747 C835.615951,471.809498 810.147567,442.111683 801.88182,399.084339 C790.137558,337.949299 831.833786,278.918995 893.177963,268.752613 C955.294601,258.45818 1014.08397,300.853901 1022.65135,362.719624 C1027.71581,399.290516 1016.99986,431.146015 991.207992,458.168842 Z" id="Path" fill="#007AFF" fill-rule="nonzero"></path>
        <circle id="Oval" fill="#00BC62" cx="378.915996" cy="377.379777" r="114"></circle>
        <circle id="Oval-Copy-5" fill="#00BC62" cx="383.915996" cy="114.379777" r="114"></circle>
        <circle id="Oval-Copy" fill="#FFDE59" cx="649.915996" cy="382.379777" r="114"></circle>
        <circle id="Oval-Copy-2" fill="#FE3C30" cx="112.915996" cy="377.379777" r="114"></circle>
        <circle id="Oval-Copy-3" fill="#00BC62" cx="642.915996" cy="642.379777" r="114"></circle>
        <circle id="Oval-Copy-4" fill="#00BC62" cx="383.915996" cy="645.379777" r="114"></circle>
        <path d="M613.343795,462.176563 C620.456283,464.569294 626.796737,469.199207 633.617538,472.551747 C635.614975,473.533528 638.231613,474.377705 640.285019,473.948292 C658.923141,470.050801 677.038437,470.153401 694.503952,479.876393 C706.853744,487.99358 714.06578,499.609944 720.188827,512.448689 C730.39476,533.84853 742.434494,554.41634 751.875717,576.128681 C767.000961,610.912495 775.692123,647.348286 775.924057,685.634113 C775.982956,695.359455 778.587997,705.065998 779.977035,714.787739 C780.957931,721.653401 780.166305,723.141316 773.999252,726.15334 C724.278671,750.437397 674.547226,774.699421 624.843246,799.017353 C621.432907,800.685871 618.138351,802.212788 614.565963,799.720661 C611.089279,797.295246 611.163986,793.924092 611.2556,789.989582 C611.31755,787.32967 609.526229,783.69698 607.375534,782.122456 C603.707382,779.436909 599.253891,777.566731 594.872604,776.152241 C549.629562,761.54488 505.252151,744.903645 463.226425,720.96706 C458.86473,718.26424 455.170272,715.686848 451.264389,713.484272 C428.761215,700.794087 406.9514,687.045429 386.932479,670.660481 C374.158188,660.205158 361.783859,649.208515 353.810562,634.398945 C342.59468,613.56667 349.947433,600.565205 365.992355,589.556355 C378.195388,581.18343 392.047805,580.941303 405.321426,585.543598 C419.876358,590.590168 433.777023,597.522236 447.969253,603.617695 C450.106033,604.53542 452.277725,605.371845 454.433242,606.24593 C454.872116,605.819172 455.310958,605.392414 455.749801,604.965595 C446.79277,584.662617 437.835708,564.359577 428.878646,544.056538 C420.76741,525.723164 412.656112,507.38979 404.265457,488.458882 C392.085769,462.743488 380.184188,437.626148 368.286239,412.50716 C366.12294,407.939991 364.006118,404.561634 358.138321,402.483692 C338.295242,395.456745 327.203048,373.258808 331.038467,351.243061 C334.500869,331.368427 352.972366,314.936878 373.066696,313.856312 C402.344009,312.281941 424.357315,334.042439 422.820602,363.332997 C422.597854,367.578083 423.507675,371.000965 425.689926,374.545979 C434.675094,389.142445 443.432113,403.87917 452.31456,418.539173 C457.905899,427.767353 463.570907,436.950947 469.202896,446.15453 C478.280624,461.38744 487.358352,476.62035 496.728378,492.343769 C499.985122,488.89629 502.380325,486.16927 504.974044,483.64629 C521.711898,467.365193 541.288864,464.822224 561.504501,476.493092 C564.420517,478.176594 566.239181,478.493794 568.704147,475.805195 C571.150436,473.137043 574.279647,471.09502 577.32164,468.488362 C588.755417,461.868336 600.661056,457.90987 613.343795,462.176563 Z M456.588516,565.551411 C457.478012,567.872456 458.361831,570.195759 459.257919,572.51424 C463.33287,583.057453 467.74324,593.48708 471.360122,604.185078 C473.428756,610.303669 473.691299,616.923969 468.120163,621.771687 C462.677902,626.507282 456.564682,624.615925 450.618667,622.595844 C449.832351,622.328694 449.068527,621.98238 448.319442,621.620686 C440.222732,617.71175 432.270431,613.462544 423.999405,609.967182 C415.442642,606.35091 406.676437,603.149616 397.814041,600.36446 C391.532302,598.3904 384.69963,598.054707 378.737198,601.11855 C364.361496,608.505268 360.716568,615.872334 368.981948,628.690632 C372.469223,634.098774 376.700393,639.172505 381.276443,643.70937 C408.283737,670.48531 440.988205,689.145039 473.993789,708.514729 C475.431259,709.348713 476.852035,710.213154 478.3087,711.012104 C515.350326,731.330219 554.716842,746.082173 594.718246,759.216145 C607.360092,763.366902 619.869003,767.176167 626.464035,780.489094 C643.333542,772.25185 659.731247,764.250508 676.110519,756.211689 C676.475875,756.032368 676.632248,755.427387 677.63475,754.920124 C690.734237,748.401692 703.833725,741.88332 717.700668,735.104267 C732.371811,728.282185 747.059372,721.494587 761.670883,714.547199 C762.497299,714.154255 763.211288,712.400593 763.114608,711.360493 C761.794174,697.151753 760.321457,682.957112 759.070724,668.089985 C758.892501,666.312153 758.724044,664.533344 758.534652,662.756733 C755.675644,635.938069 748.211532,610.312092 738.30339,585.344746 C736.154464,579.929646 733.445419,574.736836 731.227951,568.586567 C730.801071,568.308308 730.374252,568.030049 729.957016,567.862385 C729.957016,567.862385 730.065902,567.840656 730.657028,567.236653 C720.224472,547.216572 710.194076,526.972431 699.209335,507.259999 C692.566574,495.339253 681.59349,488.4399 667.725692,488.476765 C658.014999,488.502583 648.257431,490.03252 638.626693,491.559254 C634.726852,492.177448 631.455062,492.280811 628.149276,489.280659 C624.059616,486.212452 620.242599,482.654713 615.817184,480.189228 C608.940109,476.35796 601.528732,475.155628 593.228683,478.719227 C587.28154,483.134022 580.716903,486.931965 575.538803,492.115132 C568.594711,499.066029 566.598251,499.822163 558.877304,494.03429 C557.28099,492.837666 555.643112,491.680439 553.938156,490.647633 C540.683883,482.61855 528.13945,483.700764 517.05162,494.566944 C512.594589,498.934864 509.064071,504.304188 505.435958,509.44643 C501.674911,514.776875 496.123214,515.634846 491.550888,511.015034 C489.571762,509.015339 487.725845,506.80489 486.208084,504.440663 C478.385849,492.25594 470.709396,479.977772 462.934646,467.762348 C461.169296,464.988636 459.215774,462.334675 457.288742,458.897724 C455.99852,456.572621 454.784042,454.201557 453.406509,451.929371 C436.570388,424.15868 421.039565,398.938587 404.088118,371.238331 C399.706727,364.078662 393.298647,352.665743 385.442969,349.044452 C377.587291,345.423161 375.736471,346.640047 371.143596,349.044452 C368.08168,350.647389 366.453202,354.931625 366.258163,361.897162 C368.710372,373.044327 371.34938,381.604512 374.175186,387.577717 C386.783615,414.229328 399.528762,440.816456 412.287063,467.396809 C414.852127,472.740803 417.710556,477.943958 420.318802,483.970082 C420.504837,484.601032 420.625656,485.260426 420.886337,485.858875 C431.293838,509.750752 441.688888,533.648091 452.17659,557.50478 C453.095871,559.595905 454.634109,561.414814 455.800827,564.122395 C456.190872,564.368183 456.580948,564.614033 456.912063,564.864887 C456.912063,564.864887 456.961227,564.831684 456.588516,565.551411 Z" id="Shape" fill="#040705" fill-rule="nonzero"></path>
        <path d="M352.250351,354.588845 C350.609374,358.675097 350.80457,363.359105 350.80457,371.289135 C352.250351,378.379777 351.464772,373.710445 352.250351,378.742542 C347.653723,373.672503 344.451492,364.313191 346.510696,355.246296 C349.731277,341.065907 360.040756,332.061695 374.783554,330.553028 C385.219894,329.485035 398.896615,338.505513 403.162362,347.762227 C401.193521,346.683644 403.921427,347.780981 399.020078,344.297265 C395.752512,341.974787 392.38076,339.751845 388.904822,337.62844 C379.532269,334.492146 371.983383,334.492146 366.258163,337.62844 C357.670333,342.33288 354.723936,348.530708 352.250351,354.588845 Z" id="Path" fill="#00A656" fill-rule="nonzero"></path>
        <path d="M330.175491,277.985737 C330.280532,277.200489 330.740097,276.652424 331.508773,276.412678 C331.388656,277.221607 330.959335,277.722248 330.175491,277.985737 Z" id="Path" fill="#D4E4DC" fill-rule="nonzero"></path>
        <path d="M488.348556,379.162116 C493.478508,330.750528 432.574268,230.983136 333.790908,274.585316 C235.007548,318.187496 271.116783,437.576332 308.973498,465.595225" id="Path-2" stroke="#000000" stroke-width="20" stroke-linecap="round" stroke-linejoin="round"></path>
        <path d="M542.939532,359.982586 C550.707448,286.676421 458.484565,135.605879 308.904071,201.629505 C159.323578,267.65313 214.001179,448.435004 271.324862,490.861987" id="Path-2-Copy" stroke="#000000" stroke-width="20" stroke-linecap="round" stroke-linejoin="round"></path>
    </g>
</svg>