<svg version="1.1" id="Layer_1" xmlns="http://www.w3.org/2000/svg" xmlns:xlink="http://www.w3.org/1999/xlink" x="0px" y="0px"
	 width="1024.000000pt" height="1024.000000pt" viewBox="0 0 1024 1024" enable-background="new 0 0 1024 1024" xml:space="preserve">
<path fill="#FFFFFF" opacity="1.000000" stroke="none" 
	d="
M0.999996,633.000000 
	C1.000000,552.975952 1.000000,472.951843 1.338977,392.668213 
	C2.084133,394.697815 2.492168,396.986603 2.896218,399.276123 
	C13.185513,457.579071 69.453514,500.998657 133.247406,489.301239 
	C167.898636,482.947540 193.616379,463.550140 211.499634,433.438843 
	C225.913666,465.940186 247.420975,492.161133 277.142151,510.992462 
	C289.139038,518.593750 302.407990,524.273499 315.380005,530.211670 
	C321.510010,533.017822 327.404114,528.347534 326.673401,522.172729 
	C326.138306,517.650940 322.815552,515.997375 319.053558,514.575623 
	C283.043335,500.966400 254.769501,477.832947 235.375854,444.590179 
	C229.161682,433.938416 225.241714,421.948212 220.518921,410.189026 
	C228.042694,383.251953 225.981033,357.423431 214.733582,331.879303 
	C223.554810,284.709473 247.712479,248.018295 287.560242,222.120926 
	C297.199921,215.856018 308.257507,211.772842 318.959595,206.919800 
	C337.716034,219.195221 358.029541,225.070572 380.005615,224.955505 
	C401.020447,224.845490 420.697601,219.799957 438.725189,208.059967 
	C439.852325,208.338242 440.661102,208.531937 441.413574,208.856323 
	C476.719543,224.074921 503.709656,248.485367 521.994385,282.312866 
	C531.885925,300.612610 538.453247,320.043976 540.106079,341.256958 
	C533.531128,361.307312 531.909790,381.321136 535.990906,402.104614 
	C535.373840,404.732819 534.813721,406.980194 534.145630,409.195038 
	C531.465088,418.081848 533.644836,421.571259 542.770996,423.168884 
	C550.532532,441.502106 562.336365,456.260376 577.405640,468.608582 
	C574.363647,471.215240 571.234436,473.257263 568.788147,475.925415 
	C566.323181,478.614014 564.504517,478.296814 561.588501,476.613312 
	C541.372864,464.942444 521.795898,467.485413 505.058044,483.766510 
	C502.464325,486.289490 500.069122,489.016510 496.812378,492.463989 
	C487.442352,476.740570 478.364624,461.507660 469.586365,446.028412 
	C487.038849,422.117340 493.791290,395.658722 490.943237,366.692902 
	C490.620728,363.412628 489.428467,360.217804 488.432556,356.641174 
	C488.152069,353.643707 488.249207,350.970947 487.979767,348.335663 
	C482.618713,295.900391 439.402985,253.521545 386.862427,249.127365 
	C332.996613,244.622345 283.929596,278.340881 269.439819,329.629730 
	C263.961395,349.021484 264.089600,368.434570 268.112061,388.338989 
	C268.349457,389.815948 268.667114,390.935333 268.998444,392.030060 
	C269.012085,392.005371 268.966492,391.972076 268.848694,392.399231 
	C272.415771,422.994385 286.224762,447.746307 309.808380,466.617035 
	C337.562408,488.824554 369.355652,495.424438 404.354553,488.931091 
	C412.740112,507.510010 420.851410,525.843384 428.620422,544.035645 
	C427.503632,543.614441 426.721100,543.354492 425.955750,543.051270 
	C382.267792,525.740479 341.730591,530.677429 305.605591,561.390747 
	C262.879395,597.716370 254.885284,663.633972 286.983887,709.386169 
	C329.141876,769.476624 412.917297,775.130920 463.509735,721.330750 
	C505.336151,745.023865 549.713562,761.665100 594.956604,776.272461 
	C599.337891,777.686951 603.791382,779.557129 607.459534,782.242676 
	C609.610229,783.817200 611.401550,787.449890 611.339600,790.109802 
	C611.247986,794.044312 611.173279,797.415466 614.649963,799.840881 
	C618.222351,802.333008 621.516907,800.806091 624.927246,799.137573 
	C674.631226,774.819641 724.362671,750.557617 774.083252,726.273560 
	C780.250305,723.261536 781.041931,721.773621 780.061035,714.907959 
	C778.671997,705.186218 776.066956,695.479675 776.008057,685.754333 
	C775.776123,647.468506 767.084961,611.032715 751.959717,576.248901 
	C742.518494,554.536560 730.478760,533.968750 720.272827,512.568909 
	C714.149780,499.730164 706.937744,488.113800 695.260986,479.893951 
	C697.585876,478.575623 699.609680,477.422119 701.589905,476.198029 
	C742.752991,450.753601 761.381775,413.463470 756.565857,365.757019 
	C752.961853,330.055359 734.343079,302.312347 703.625488,283.561310 
	C673.726501,265.310059 641.650513,262.676880 608.652100,273.659821 
	C585.160400,281.478638 566.688599,296.354401 552.415649,316.385895 
	C541.748718,276.467285 520.915466,243.508530 488.519989,218.429871 
	C477.812256,210.140579 465.631744,203.753815 454.487793,196.337997 
	C477.444580,174.759628 490.011932,148.813110 491.497528,117.431465 
	C494.015472,64.242424 457.004120,15.469802 404.861267,3.889928 
	C400.571777,2.937320 396.286987,1.963801 392.000000,1.000000 
	C472.357422,1.000000 552.714844,1.000000 633.295715,1.321887 
	C566.944214,9.325171 521.835510,72.223076 536.260925,137.257141 
	C549.007263,194.721741 605.485657,233.196579 662.847046,223.818665 
	C718.802246,214.670639 764.814514,164.370407 756.499878,98.970482 
	C750.708008,53.413845 724.328552,22.569262 680.998901,6.881338 
	C673.298828,4.093449 665.014526,2.919302 657.000000,0.999997 
	C779.640747,1.000000 902.281494,1.000000 1024.961182,1.000000 
	C1024.961182,342.235321 1024.961182,683.470642 1024.961182,1025.000000 
	C813.976013,1025.000000 602.951904,1025.000000 391.757507,1024.739380 
	C395.360046,1023.904968 399.168610,1023.504089 402.900177,1022.731506 
	C461.753754,1010.545776 500.880981,952.964050 490.810181,893.424500 
	C480.187164,830.620178 418.292603,788.978333 356.020905,802.492615 
	C304.497986,813.674133 260.214722,861.775879 268.477234,926.894897 
	C274.193054,971.942810 300.428345,1002.681274 343.044495,1018.746277 
	C351.015991,1021.751282 359.664124,1022.961487 368.000000,1025.000000 
	C245.738113,1025.000000 123.476219,1025.000000 1.000000,1025.000000 
	C1.000000,903.309326 1.000000,781.618530 1.340462,659.663330 
	C11.426394,725.198303 68.438011,766.985779 133.483902,756.005737 
	C192.091446,746.112549 233.671890,687.422424 223.681839,628.692932 
	C214.454041,574.444763 170.132126,535.548889 115.855186,534.066895 
	C61.967495,532.595520 15.557988,569.151306 3.467684,622.582153 
	C2.680119,626.062683 1.824139,629.527771 0.999996,633.000000 
M753.985657,940.319885 
	C757.729370,925.502563 758.102112,910.482605 756.089539,895.439087 
	C752.269775,866.888000 738.671875,843.304810 716.506226,825.537537 
	C684.529114,799.905701 648.251953,793.241394 609.113037,806.217712 
	C560.482483,822.340942 526.002075,872.991028 535.072510,930.103149 
	C539.566467,958.399109 553.239746,981.794434 575.377869,999.442566 
	C601.714539,1020.437805 632.099243,1028.096191 665.579346,1022.130432 
	C685.722595,1018.541260 703.579712,1009.938171 718.897766,996.587097 
	C735.998901,981.682129 747.703369,963.094360 753.985657,940.319885 
M977.927429,555.538452 
	C944.936096,532.381470 909.121826,527.328491 871.688599,541.643860 
	C822.881836,560.308716 795.189087,607.577209 800.848083,659.591248 
	C808.025940,725.565552 874.890259,771.911926 939.089050,754.565063 
	C983.687805,742.514282 1012.400146,713.309753 1021.465576,668.002136 
	C1030.572632,622.486206 1014.953247,584.826111 977.927429,555.538452 
M991.542480,458.036865 
	C1017.083862,431.266235 1027.799805,399.410736 1022.735352,362.839844 
	C1014.167969,300.974121 955.378601,258.578400 893.261963,268.872833 
	C831.917786,279.039215 790.221558,338.069519 801.965820,399.204559 
	C810.231567,442.231903 835.699951,471.929718 877.148743,485.421967 
	C919.770447,499.296051 958.254211,489.450714 991.542480,458.036865 
z"/>
<path fill="#FFFFFF" opacity="1.000000" stroke="none" 
	d="
M1.000000,367.000000 
	C1.000000,245.072052 1.000000,123.144096 1.000000,1.000000 
	C122.689224,1.000000 244.378586,1.000000 366.342163,1.353881 
	C363.993744,2.130113 361.359161,2.489822 358.750092,2.984022 
	C300.832550,13.954655 258.908356,69.371277 269.407043,132.142380 
	C273.552063,156.925095 285.504456,177.675354 303.140717,195.443604 
	C269.977081,210.137970 244.056686,232.742218 224.548965,262.841125 
	C214.695343,278.044556 207.883224,294.622833 202.184906,311.438843 
	C201.366974,310.335358 200.716278,309.582916 200.075287,308.822266 
	C173.185043,276.912811 138.658646,263.271179 97.592995,268.404297 
	C50.913216,274.239136 14.075041,309.090546 3.710199,355.086761 
	C2.814939,359.059692 1.903774,363.028992 1.000000,367.000000 
z"/>
<path fill="#FFDE59" opacity="1.000000" stroke="none" 
	d="
M368.468628,1025.000000 
	C359.664124,1022.961487 351.015991,1021.751282 343.044495,1018.746277 
	C300.428345,1002.681274 274.193054,971.942810 268.477234,926.894897 
	C260.214722,861.775879 304.497986,813.674133 356.020905,802.492615 
	C418.292603,788.978333 480.187164,830.620178 490.810181,893.424500 
	C500.880981,952.964050 461.753754,1010.545776 402.900177,1022.731506 
	C399.168610,1023.504089 395.360046,1023.904968 391.293640,1024.739380 
	C383.645752,1025.000000 376.291504,1025.000000 368.468628,1025.000000 
z"/>
<path fill="#01BF63" opacity="1.000000" stroke="none" 
	d="
M0.999996,633.468628 
	C1.824139,629.527771 2.680119,626.062683 3.467684,622.582153 
	C15.557988,569.151306 61.967495,532.595520 115.855186,534.066895 
	C170.132126,535.548889 214.454041,574.444763 223.681839,628.692932 
	C233.671890,687.422424 192.091446,746.112549 133.483902,756.005737 
	C68.438011,766.985779 11.426394,725.198303 1.340462,659.199463 
	C1.000000,650.645752 1.000000,642.291504 0.999996,633.468628 
z"/>
<path fill="#FF3131" opacity="1.000000" stroke="none" 
	d="
M656.531372,0.999997 
	C665.014526,2.919302 673.298828,4.093449 680.998901,6.881338 
	C724.328552,22.569262 750.708008,53.413845 756.499878,98.970482 
	C764.814514,164.370407 718.802246,214.670639 662.847046,223.818665 
	C605.485657,233.196579 549.007263,194.721741 536.260925,137.257141 
	C521.835510,72.223076 566.944214,9.325171 633.759583,1.321887 
	C641.354248,1.000000 648.708496,1.000000 656.531372,0.999997 
z"/>
<path fill="#FF3131" opacity="1.000000" stroke="none" 
	d="
M1.000000,367.468628 
	C1.903774,363.028992 2.814939,359.059692 3.710199,355.086761 
	C14.075041,309.090546 50.913216,274.239136 97.592995,268.404297 
	C138.658646,263.271179 173.185043,276.912811 200.075287,308.822266 
	C200.716278,309.582916 201.366974,310.335358 202.195816,311.807373 
	C196.381516,334.974854 194.461777,357.737579 197.054489,380.865234 
	C199.091568,399.036346 203.976334,416.423035 211.209763,433.181152 
	C193.616379,463.550140 167.898636,482.947540 133.247406,489.301239 
	C69.453514,500.998657 13.185513,457.579071 2.896218,399.276123 
	C2.492168,396.986603 2.084133,394.697815 1.338977,392.204346 
	C1.000000,383.979095 1.000000,375.958191 1.000000,367.468628 
z"/>
<path fill="#00BF63" opacity="1.000000" stroke="none" 
	d="
M303.362335,195.156891 
	C285.504456,177.675354 273.552063,156.925095 269.407043,132.142380 
	C258.908356,69.371277 300.832550,13.954655 358.750092,2.984022 
	C361.359161,2.489822 363.993744,2.130113 366.808228,1.353881 
	C375.020905,1.000000 383.041809,1.000000 391.531372,1.000000 
	C396.286987,1.963801 400.571777,2.937320 404.861267,3.889928 
	C457.004120,15.469802 494.015472,64.242424 491.497528,117.431465 
	C490.011932,148.813110 477.444580,174.759628 454.152527,196.299927 
	C451.764526,195.717804 450.072418,195.020645 448.385864,194.310394 
	C418.621246,181.775879 387.751923,177.071518 355.582794,180.782349 
	C337.397064,182.880142 320.076508,187.849640 303.362335,195.156891 
z"/>
<path fill="#5271FF" opacity="1.000000" stroke="none" 
	d="
M753.897827,940.722656 
	C747.703369,963.094360 735.998901,981.682129 718.897766,996.587097 
	C703.579712,1009.938171 685.722595,1018.541260 665.579346,1022.130432 
	C632.099243,1028.096191 601.714539,1020.437805 575.377869,999.442566 
	C553.239746,981.794434 539.566467,958.399109 535.072510,930.103149 
	C526.002075,872.991028 560.482483,822.340942 609.113037,806.217712 
	C648.251953,793.241394 684.529114,799.905701 716.506226,825.537537 
	C738.671875,843.304810 752.269775,866.888000 756.089539,895.439087 
	C758.102112,910.482605 757.729370,925.502563 753.897827,940.722656 
z"/>
<path fill="#01BF63" opacity="1.000000" stroke="none" 
	d="
M978.222595,555.743164 
	C1014.953247,584.826111 1030.572632,622.486206 1021.465576,668.002136 
	C1012.400146,713.309753 983.687805,742.514282 939.089050,754.565063 
	C874.890259,771.911926 808.025940,725.565552 800.848083,659.591248 
	C795.189087,607.577209 822.881836,560.308716 871.688599,541.643860 
	C909.121826,527.328491 944.936096,532.381470 978.222595,555.743164 
z"/>
<path fill="#5271FF" opacity="1.000000" stroke="none" 
	d="
M991.291992,458.289062 
	C958.254211,489.450714 919.770447,499.296051 877.148743,485.421967 
	C835.699951,471.929718 810.231567,442.231903 801.965820,399.204559 
	C790.221558,338.069519 831.917786,279.039215 893.261963,268.872833 
	C955.378601,258.578400 1014.167969,300.974121 1022.735352,362.839844 
	C1027.799805,399.410736 1017.083862,431.266235 991.291992,458.289062 
z"/>
<path fill="#FFDE59" opacity="1.000000" stroke="none" 
	d="
M552.649109,316.730591 
	C566.688599,296.354401 585.160400,281.478638 608.652100,273.659821 
	C641.650513,262.676880 673.726501,265.310059 703.625488,283.561310 
	C734.343079,302.312347 752.961853,330.055359 756.565857,365.757019 
	C761.381775,413.463470 742.752991,450.753601 701.589905,476.198029 
	C699.609680,477.422119 697.585876,478.575623 694.909302,479.864624 
	C677.122437,470.273621 659.007141,470.171021 640.369019,474.068512 
	C638.315613,474.497925 635.698975,473.653748 633.701538,472.671967 
	C626.880737,469.319427 620.540283,464.689514 613.427795,462.296783 
	C600.745056,458.030090 588.839417,461.988556 577.617920,468.318604 
	C562.336365,456.260376 550.532532,441.502106 543.017334,422.917175 
	C545.131104,419.972504 548.216980,417.920135 548.839294,415.285797 
	C551.894592,402.352325 554.986145,389.357697 556.765747,376.208862 
	C559.472900,356.205902 556.767822,336.370361 552.649109,316.730591 
z"/>
<path fill="#040705" opacity="1.000000" stroke="none" 
	d="
M577.405640,468.608582 
	C588.839417,461.988556 600.745056,458.030090 613.427795,462.296783 
	C620.540283,464.689514 626.880737,469.319427 633.701538,472.671967 
	C635.698975,473.653748 638.315613,474.497925 640.369019,474.068512 
	C659.007141,470.171021 677.122437,470.273621 694.587952,479.996613 
	C706.937744,488.113800 714.149780,499.730164 720.272827,512.568909 
	C730.478760,533.968750 742.518494,554.536560 751.959717,576.248901 
	C767.084961,611.032715 775.776123,647.468506 776.008057,685.754333 
	C776.066956,695.479675 778.671997,705.186218 780.061035,714.907959 
	C781.041931,721.773621 780.250305,723.261536 774.083252,726.273560 
	C724.362671,750.557617 674.631226,774.819641 624.927246,799.137573 
	C621.516907,800.806091 618.222351,802.333008 614.649963,799.840881 
	C611.173279,797.415466 611.247986,794.044312 611.339600,790.109802 
	C611.401550,787.449890 609.610229,783.817200 607.459534,782.242676 
	C603.791382,779.557129 599.337891,777.686951 594.956604,776.272461 
	C549.713562,761.665100 505.336151,745.023865 463.310425,721.087280 
	C458.948730,718.384460 455.254272,715.807068 451.348389,713.604492 
	C428.845215,700.914307 407.035400,687.165649 387.016479,670.780701 
	C374.242188,660.325378 361.867859,649.328735 353.894562,634.519165 
	C342.678680,613.686890 350.031433,600.685425 366.076355,589.676575 
	C378.279388,581.303650 392.131805,581.061523 405.405426,585.663818 
	C419.960358,590.710388 433.861023,597.642456 448.053253,603.737915 
	C450.190033,604.655640 452.361725,605.492065 454.517242,606.366150 
	C454.956116,605.939392 455.394958,605.512634 455.833801,605.085815 
	C446.876770,584.782837 437.919708,564.479797 428.962646,544.176758 
	C420.851410,525.843384 412.740112,507.510010 404.349457,488.579102 
	C392.169769,462.863708 380.268188,437.746368 368.370239,412.627380 
	C366.206940,408.060211 364.090118,404.681854 358.222321,402.603912 
	C338.379242,395.576965 327.287048,373.379028 331.122467,351.363281 
	C334.584869,331.488647 353.056366,315.057098 373.150696,313.976532 
	C402.428009,312.402161 424.441315,334.162659 422.904602,363.453217 
	C422.681854,367.698303 423.591675,371.121185 425.773926,374.666199 
	C434.759094,389.262665 443.516113,403.999390 452.398560,418.659393 
	C457.989899,427.887573 463.654907,437.071167 469.286896,446.274750 
	C478.364624,461.507660 487.442352,476.740570 496.812378,492.463989 
	C500.069122,489.016510 502.464325,486.289490 505.058044,483.766510 
	C521.795898,467.485413 541.372864,464.942444 561.588501,476.613312 
	C564.504517,478.296814 566.323181,478.614014 568.788147,475.925415 
	C571.234436,473.257263 574.363647,471.215240 577.405640,468.608582 
M456.996063,564.985107 
	C456.996063,564.985107 457.045227,564.951904 456.672516,565.671631 
	C457.562012,567.992676 458.445831,570.315979 459.341919,572.634460 
	C463.416870,583.177673 467.827240,593.607300 471.444122,604.305298 
	C473.512756,610.423889 473.775299,617.044189 468.204163,621.891907 
	C462.761902,626.627502 456.648682,624.736145 450.702667,622.716064 
	C449.916351,622.448914 449.152527,622.102600 448.403442,621.740906 
	C440.306732,617.831970 432.354431,613.582764 424.083405,610.087402 
	C415.526642,606.471130 406.760437,603.269836 397.898041,600.484680 
	C391.616302,598.510620 384.783630,598.174927 378.821198,601.238770 
	C364.445496,608.625488 360.800568,615.992554 369.065948,628.810852 
	C372.553223,634.218994 376.784393,639.292725 381.360443,643.829590 
	C408.367737,670.605530 441.072205,689.265259 474.077789,708.634949 
	C475.515259,709.468933 476.936035,710.333374 478.392700,711.132324 
	C515.434326,731.450439 554.800842,746.202393 594.802246,759.336365 
	C607.444092,763.487122 619.953003,767.296387 626.548035,780.609314 
	C643.417542,772.372070 659.815247,764.370728 676.194519,756.331909 
	C676.559875,756.152588 676.716248,755.547607 677.718750,755.040344 
	C690.818237,748.521912 703.917725,742.003540 717.784668,735.224487 
	C732.455811,728.402405 747.143372,721.614807 761.754883,714.667419 
	C762.581299,714.274475 763.295288,712.520813 763.198608,711.480713 
	C761.878174,697.271973 760.405457,683.077332 759.154724,668.210205 
	C758.976501,666.432373 758.808044,664.653564 758.618652,662.876953 
	C755.759644,636.058289 748.295532,610.432312 738.387390,585.464966 
	C736.238464,580.049866 733.529419,574.857056 731.311951,568.706787 
	C730.885071,568.428528 730.458252,568.150269 730.041016,567.982605 
	C730.041016,567.982605 730.149902,567.960876 730.741028,567.356873 
	C720.308472,547.336792 710.278076,527.092651 699.293335,507.380219 
	C692.650574,495.459473 681.677490,488.560120 667.809692,488.596985 
	C658.098999,488.622803 648.341431,490.152740 638.710693,491.679474 
	C634.810852,492.297668 631.539062,492.401031 628.233276,489.400879 
	C624.143616,486.332672 620.326599,482.774933 615.901184,480.309448 
	C609.024109,476.478180 601.612732,475.275848 593.312683,478.839447 
	C587.365540,483.254242 580.800903,487.052185 575.622803,492.235352 
	C568.678711,499.186249 566.682251,499.942383 558.961304,494.154510 
	C557.364990,492.957886 555.727112,491.800659 554.022156,490.767853 
	C540.767883,482.738770 528.223450,483.820984 517.135620,494.687164 
	C512.678589,499.055084 509.148071,504.424408 505.519958,509.566650 
	C501.758911,514.897095 496.207214,515.755066 491.634888,511.135254 
	C489.655762,509.135559 487.809845,506.925110 486.292084,504.560883 
	C478.469849,492.376160 470.793396,480.097992 463.018646,467.882568 
	C461.253296,465.108856 459.299774,462.454895 457.372742,459.017944 
	C456.082520,456.692841 454.868042,454.321777 453.490509,452.049591 
	C436.654388,424.278900 419.857361,396.484131 402.905914,368.783875 
	C397.044556,359.205780 388.555908,353.188751 377.254089,351.541565 
	C371.045715,350.636749 368.063751,353.003265 367.740417,359.250549 
	C367.218353,369.336456 370.020477,378.738129 374.259186,387.697937 
	C386.867615,414.349548 399.612762,440.936676 412.371063,467.517029 
	C414.936127,472.861023 417.794556,478.064178 420.402802,484.090302 
	C420.588837,484.721252 420.709656,485.380646 420.970337,485.979095 
	C431.377838,509.870972 441.772888,533.768311 452.260590,557.625000 
	C453.179871,559.716125 454.718109,561.535034 455.884827,564.242615 
	C456.274872,564.488403 456.664948,564.734253 456.996063,564.985107 
M353.595520,349.405792 
	C357.270477,340.419861 364.113129,336.139038 373.667267,335.658905 
	C382.090759,335.235626 389.742767,337.635284 397.032440,341.573456 
	C398.413757,342.319702 399.786957,343.080963 401.755798,344.159546 
	C397.490051,334.902832 385.303894,328.605255 374.867554,329.673248 
	C360.124756,331.181915 349.815277,340.186127 346.594696,354.366516 
	C344.535492,363.433411 347.862030,375.078644 352.334351,377.862762 
	C352.641998,369.075226 352.973267,359.611359 353.595520,349.405792 
z"/>
<path fill="#01BE63" opacity="1.000000" stroke="none" 
	d="
M428.620392,544.035645 
	C437.919708,564.479797 446.876770,584.782837 455.833801,605.085815 
	C455.394958,605.512634 454.956116,605.939392 454.517242,606.366150 
	C452.361725,605.492065 450.190033,604.655640 448.053253,603.737915 
	C433.861023,597.642456 419.960358,590.710388 405.405426,585.663818 
	C392.131805,581.061523 378.279388,581.303650 366.076355,589.676575 
	C350.031433,600.685425 342.678680,613.686890 353.894562,634.519165 
	C361.867859,649.328735 374.242188,660.325378 387.016479,670.780701 
	C407.035400,687.165649 428.845215,700.914307 451.348389,713.604492 
	C455.254272,715.807068 458.948730,718.384460 462.940155,721.032104 
	C412.917297,775.130920 329.141876,769.476624 286.983887,709.386169 
	C254.885284,663.633972 262.879395,597.716370 305.605591,561.390747 
	C341.730591,530.677429 382.267792,525.740479 425.955750,543.051270 
	C426.721100,543.354492 427.503632,543.614441 428.620392,544.035645 
z"/>
<path fill="#00BD62" opacity="1.000000" stroke="none" 
	d="
M469.586365,446.028412 
	C463.654907,437.071167 457.989899,427.887573 452.398560,418.659393 
	C443.516113,403.999390 434.759094,389.262665 425.773926,374.666199 
	C423.591675,371.121185 422.681854,367.698303 422.904602,363.453217 
	C424.441315,334.162659 402.428009,312.402161 373.150696,313.976532 
	C353.056366,315.057098 334.584869,331.488647 331.122467,351.363281 
	C327.287048,373.379028 338.379242,395.576965 358.222321,402.603912 
	C364.090118,404.681854 366.206940,408.060211 368.370239,412.627380 
	C380.268188,437.746368 392.169769,462.863708 404.075195,488.333588 
	C369.355652,495.424438 337.562408,488.824554 309.808380,466.617035 
	C286.224762,447.746307 272.415771,422.994385 269.155914,392.595642 
	C270.138428,393.930145 270.680756,395.500916 271.255585,397.059692 
	C283.220673,429.505096 305.079224,452.265350 337.437042,464.817200 
	C341.532593,466.405884 344.990509,466.043030 347.670349,462.466217 
	C351.199921,457.755280 348.896515,452.169403 342.456299,449.478363 
	C299.784149,431.647705 276.688751,393.607635 282.085571,348.209106 
	C285.385376,320.450500 298.899017,298.195129 322.431671,282.111328 
	C324.205627,281.472504 325.629486,280.853424 327.373291,280.167816 
	C328.123627,279.679810 328.554016,279.258331 328.981995,278.893921 
	C328.979584,278.950958 328.867279,278.930237 329.236359,278.954285 
	C329.698059,278.614227 329.790649,278.250092 329.931030,277.935059 
	C329.978790,277.984100 329.904999,277.868805 330.259521,278.105957 
	C331.043335,277.842468 331.472656,277.341827 331.947876,276.921204 
	C331.993805,277.001221 331.896271,276.842987 332.201996,277.153320 
	C347.347778,271.382874 362.595642,267.269531 378.815948,267.683563 
	C384.934479,267.839783 391.057404,267.821899 397.583984,267.862549 
	C414.843964,270.666473 429.409241,278.318176 441.540894,290.060883 
	C469.589874,317.210663 478.407318,349.912567 468.356934,387.651611 
	C466.731628,393.754669 468.306274,398.225861 472.799347,399.684967 
	C477.791473,401.306122 482.416412,398.829620 483.611237,392.371277 
	C485.776825,380.665863 487.014465,368.788788 488.639465,356.983368 
	C489.428467,360.217804 490.620728,363.412628 490.943237,366.692902 
	C493.791290,395.658722 487.038849,422.117340 469.586365,446.028412 
z"/>
<path fill="#070706" opacity="1.000000" stroke="none" 
	d="
M552.415649,316.385895 
	C556.767822,336.370361 559.472900,356.205902 556.765747,376.208862 
	C554.986145,389.357697 551.894592,402.352325 548.839294,415.285797 
	C548.216980,417.920135 545.131104,419.972504 542.934448,422.544861 
	C533.644836,421.571259 531.465088,418.081848 534.145630,409.195038 
	C534.813721,406.980194 535.373840,404.732819 536.227356,401.855957 
	C537.125732,398.459503 537.888245,395.728058 538.417175,392.952148 
	C541.703674,375.702850 543.237854,358.383362 540.278442,340.907410 
	C538.453247,320.043976 531.885925,300.612610 521.994385,282.312866 
	C503.709656,248.485367 476.719543,224.074921 441.413574,208.856323 
	C440.661102,208.531937 439.852325,208.338242 438.452026,207.792282 
	C410.201477,196.256454 381.521576,192.955795 352.188507,197.642944 
	C340.821899,199.459229 329.827209,203.602951 318.663086,206.686417 
	C308.257507,211.772842 297.199921,215.856018 287.560242,222.120926 
	C247.712479,248.018295 223.554810,284.709473 214.520630,332.160583 
	C213.584625,344.980225 212.102875,357.102509 212.343231,369.190552 
	C212.623962,383.309326 214.857605,397.309845 220.272095,410.570374 
	C225.241714,421.948212 229.161682,433.938416 235.375854,444.590179 
	C254.769501,477.832947 283.043335,500.966400 319.053558,514.575623 
	C322.815552,515.997375 326.138306,517.650940 326.673401,522.172729 
	C327.404114,528.347534 321.510010,533.017822 315.380005,530.211670 
	C302.407990,524.273499 289.139038,518.593750 277.142151,510.992462 
	C247.420975,492.161133 225.913666,465.940186 211.499634,433.438843 
	C203.976334,416.423035 199.091568,399.036346 197.054489,380.865234 
	C194.461777,357.737579 196.381516,334.974854 202.367584,312.154602 
	C207.883224,294.622833 214.695343,278.044556 224.548965,262.841125 
	C244.056686,232.742218 269.977081,210.137970 303.140717,195.443604 
	C320.076508,187.849640 337.397064,182.880142 355.582794,180.782349 
	C387.751923,177.071518 418.621246,181.775879 448.385864,194.310394 
	C450.072418,195.020645 451.764526,195.717804 453.789307,196.459122 
	C465.631744,203.753815 477.812256,210.140579 488.519989,218.429871 
	C520.915466,243.508530 541.748718,276.467285 552.415649,316.385895 
z"/>
<path fill="#040806" opacity="1.000000" stroke="none" 
	d="
M488.432556,356.641174 
	C487.014465,368.788788 485.776825,380.665863 483.611237,392.371277 
	C482.416412,398.829620 477.791473,401.306122 472.799347,399.684967 
	C468.306274,398.225861 466.731628,393.754669 468.356934,387.651611 
	C478.407318,349.912567 469.589874,317.210663 441.540894,290.060883 
	C429.409241,278.318176 414.843964,270.666473 397.434937,267.507080 
	C391.121277,266.297028 385.386169,264.914825 379.598877,264.643219 
	C363.510986,263.888031 348.238678,267.399719 333.874908,274.705536 
	C333.063019,275.118469 332.548950,276.117004 331.896271,276.842987 
	C331.896271,276.842987 331.993805,277.001221 331.638733,276.612915 
	C330.824097,276.772644 330.364532,277.320709 329.904968,277.868805 
	C329.904999,277.868805 329.978790,277.984100 329.559265,277.803894 
	C329.048950,278.059204 328.958099,278.494720 328.867279,278.930237 
	C328.867279,278.930237 328.979584,278.950958 328.727478,278.543457 
	C327.962524,278.319550 327.449738,278.503113 326.591217,278.764587 
	C324.857544,279.938629 323.469574,281.034851 322.081604,282.131042 
	C298.899017,298.195129 285.385376,320.450500 282.085571,348.209106 
	C276.688751,393.607635 299.784149,431.647705 342.456299,449.478363 
	C348.896515,452.169403 351.199921,457.755280 347.670349,462.466217 
	C344.990509,466.043030 341.532593,466.405884 337.437042,464.817200 
	C305.079224,452.265350 283.220673,429.505096 271.255585,397.059692 
	C270.680756,395.500916 270.138428,393.930145 269.273743,392.168518 
	C268.966492,391.972076 269.012085,392.005371 269.136902,391.686981 
	C268.905243,390.239532 268.548798,389.110474 268.192383,387.981415 
	C264.089600,368.434570 263.961395,349.021484 269.439819,329.629730 
	C283.929596,278.340881 332.996613,244.622345 386.862427,249.127365 
	C439.402985,253.521545 482.618713,295.900391 487.979767,348.335663 
	C488.249207,350.970947 488.152069,353.643707 488.432556,356.641174 
z"/>
<path fill="#02BD63" opacity="1.000000" stroke="none" 
	d="
M318.959595,206.919769 
	C329.827209,203.602951 340.821899,199.459229 352.188507,197.642944 
	C381.521576,192.955795 410.201477,196.256454 438.107422,207.768661 
	C420.697601,219.799957 401.020447,224.845490 380.005615,224.955505 
	C358.029541,225.070572 337.716034,219.195221 318.959595,206.919769 
z"/>
<path fill="#F73333" opacity="1.000000" stroke="none" 
	d="
M220.518921,410.189026 
	C214.857605,397.309845 212.623962,383.309326 212.343231,369.190552 
	C212.102875,357.102509 213.584625,344.980225 214.517700,332.591797 
	C225.981033,357.423431 228.042694,383.251953 220.518921,410.189026 
z"/>
<path fill="#EED057" opacity="1.000000" stroke="none" 
	d="
M540.106079,341.256958 
	C543.237854,358.383362 541.703674,375.702850 538.417175,392.952148 
	C537.888245,395.728058 537.125732,398.459503 536.234680,401.460144 
	C531.909790,381.321136 533.531128,361.307312 540.106079,341.256958 
z"/>
<path fill="#00BD62" opacity="1.000000" stroke="none" 
	d="
M268.112061,388.338989 
	C268.548798,389.110474 268.905243,390.239532 269.123230,391.711670 
	C268.667114,390.935333 268.349457,389.815948 268.112061,388.338989 
z"/>
<path fill="#00BF63" opacity="1.000000" stroke="none" 
	d="
M731.078369,569.561829 
	C733.529419,574.857056 736.238464,580.049866 738.387390,585.464966 
	C748.295532,610.432312 755.759644,636.058289 758.618652,662.876953 
	C758.808044,664.653564 758.976501,666.432373 758.743530,668.724243 
	C757.915344,670.313354 757.376953,671.358154 757.099243,672.468201 
	C751.015442,696.781799 738.345459,716.914551 718.949463,732.817017 
	C718.128235,733.490295 717.653320,734.586060 717.017212,735.485107 
	C703.917725,742.003540 690.818237,748.521912 676.925293,755.041016 
	C661.695618,757.979248 647.180969,759.105530 632.498108,757.156860 
	C566.483643,748.395508 518.153442,681.302002 541.213318,610.486023 
	C566.854065,531.744324 665.431946,507.487274 725.604919,564.421387 
	C726.993347,565.735046 728.629395,566.786926 730.149902,567.960876 
	C730.149902,567.960876 730.041016,567.982605 730.051331,568.281616 
	C730.400513,568.907715 730.739441,569.234802 731.078369,569.561829 
z"/>
<path fill="#FDFDFD" opacity="1.000000" stroke="none" 
	d="
M730.445435,567.658875 
	C728.629395,566.786926 726.993347,565.735046 725.604919,564.421387 
	C665.431946,507.487274 566.854065,531.744324 541.213318,610.486023 
	C518.153442,681.302002 566.483643,748.395508 632.498108,757.156860 
	C647.180969,759.105530 661.695618,757.979248 676.551025,755.091431 
	C676.716248,755.547607 676.559875,756.152588 676.194519,756.331909 
	C659.815247,764.370728 643.417542,772.372070 626.548035,780.609314 
	C619.953003,767.296387 607.444092,763.487122 594.802246,759.336365 
	C554.800842,746.202393 515.434326,731.450439 478.392700,711.132324 
	C476.936035,710.333374 475.515259,709.468933 474.042603,708.024780 
	C502.106567,663.891724 496.981293,608.098022 463.912354,571.082336 
	C461.881042,568.808594 459.345947,566.984985 457.045227,564.951904 
	C457.045227,564.951904 456.996063,564.985107 457.050171,564.628052 
	C456.725769,564.007446 456.347321,563.743958 455.968842,563.480408 
	C454.718109,561.535034 453.179871,559.716125 452.260590,557.625000 
	C441.772888,533.768311 431.377838,509.870972 420.970337,485.979095 
	C420.709656,485.380646 420.588837,484.721252 420.867340,483.632629 
	C434.907898,477.741821 447.013641,470.043182 457.432861,459.745789 
	C459.299774,462.454895 461.253296,465.108856 463.018646,467.882568 
	C470.793396,480.097992 478.469849,492.376160 486.292084,504.560883 
	C487.809845,506.925110 489.655762,509.135559 491.634888,511.135254 
	C496.207214,515.755066 501.758911,514.897095 505.519958,509.566650 
	C509.148071,504.424408 512.678589,499.055084 517.135620,494.687164 
	C528.223450,483.820984 540.767883,482.738770 554.022156,490.767853 
	C555.727112,491.800659 557.364990,492.957886 558.961304,494.154510 
	C566.682251,499.942383 568.678711,499.186249 575.622803,492.235352 
	C580.800903,487.052185 587.365540,483.254242 594.001831,478.979248 
	C605.927429,482.734711 617.163879,486.350372 628.400330,489.966064 
	C631.539062,492.401031 634.810852,492.297668 638.710693,491.679474 
	C648.341431,490.152740 658.098999,488.622803 667.809692,488.596985 
	C681.677490,488.560120 692.650574,495.459473 699.293335,507.380219 
	C710.278076,527.092651 720.308472,547.336792 730.445435,567.658875 
z"/>
<path fill="#01BD62" opacity="1.000000" stroke="none" 
	d="
M456.858887,565.311768 
	C459.345947,566.984985 461.881042,568.808594 463.912354,571.082336 
	C496.981293,608.098022 502.106567,663.891724 473.837891,707.733154 
	C441.072205,689.265259 408.367737,670.605530 381.360443,643.829590 
	C376.784393,639.292725 372.553223,634.218994 369.065948,628.810852 
	C360.800568,615.992554 364.445496,608.625488 378.821198,601.238770 
	C384.783630,598.174927 391.616302,598.510620 397.898041,600.484680 
	C406.760437,603.269836 415.526642,606.471130 424.083405,610.087402 
	C432.354431,613.582764 440.306732,617.831970 448.403442,621.740906 
	C449.152527,622.102600 449.916351,622.448914 450.702667,622.716064 
	C456.648682,624.736145 462.761902,626.627502 468.204163,621.891907 
	C473.775299,617.044189 473.512756,610.423889 471.444122,604.305298 
	C467.827240,593.607300 463.416870,583.177673 459.341919,572.634460 
	C458.445831,570.315979 457.562012,567.992676 456.858887,565.311768 
z"/>
<path fill="#00BC62" opacity="1.000000" stroke="none" 
	d="
M457.402771,459.381897 
	C447.013641,470.043182 434.907898,477.741821 420.924805,483.253601 
	C417.794556,478.064178 414.936127,472.861023 412.371063,467.517029 
	C399.612762,440.936676 386.867615,414.349548 374.259186,387.697937 
	C370.020477,378.738129 367.218353,369.336456 367.740417,359.250549 
	C368.063751,353.003265 371.045715,350.636749 377.254089,351.541565 
	C388.555908,353.188751 397.044556,359.205780 402.905914,368.783875 
	C419.857361,396.484131 436.654388,424.278900 453.490509,452.049591 
	C454.868042,454.321777 456.082520,456.692841 457.402771,459.381897 
z"/>
<path fill="#F5F7F6" opacity="1.000000" stroke="none" 
	d="
M717.400879,735.354736 
	C717.653320,734.586060 718.128235,733.490295 718.949463,732.817017 
	C738.345459,716.914551 751.015442,696.781799 757.099243,672.468201 
	C757.376953,671.358154 757.915344,670.313354 758.651245,669.058716 
	C760.405457,683.077332 761.878174,697.271973 763.198608,711.480713 
	C763.295288,712.520813 762.581299,714.274475 761.754883,714.667419 
	C747.143372,721.614807 732.455811,728.402405 717.400879,735.354736 
z"/>
<path fill="#00A656" opacity="1.000000" stroke="none" 
	d="
M353.450043,349.776611 
	C352.973267,359.611359 352.641998,369.075226 352.334351,377.862762 
	C347.862030,375.078644 344.535492,363.433411 346.594696,354.366516 
	C349.815277,340.186127 360.124756,331.181915 374.867554,329.673248 
	C385.303894,328.605255 397.490051,334.902832 401.755798,344.159546 
	C399.786957,343.080963 398.413757,342.319702 397.032440,341.573456 
	C389.742767,337.635284 382.090759,335.235626 373.667267,335.658905 
	C364.113129,336.139038 357.270477,340.419861 353.450043,349.776611 
z"/>
<path fill="#F0D257" opacity="1.000000" stroke="none" 
	d="
M628.316772,489.683472 
	C617.163879,486.350372 605.927429,482.734711 594.373169,478.958740 
	C601.612732,475.275848 609.024109,476.478180 615.901184,480.309448 
	C620.326599,482.774933 624.143616,486.332672 628.316772,489.683472 
z"/>
<path fill="#01BD62" opacity="1.000000" stroke="none" 
	d="
M455.926819,563.861511 
	C456.347321,563.743958 456.725769,564.007446 457.079620,564.625488 
	C456.664948,564.734253 456.274872,564.488403 455.926819,563.861511 
z"/>
<path fill="#FDFDFD" opacity="1.000000" stroke="none" 
	d="
M731.195190,569.134277 
	C730.739441,569.234802 730.400513,568.907715 730.046509,568.226318 
	C730.458252,568.150269 730.885071,568.428528 731.195190,569.134277 
z"/>
<path fill="#D4E4DC" opacity="1.000000" stroke="none" 
	d="
M332.201996,277.153320 
	C332.548950,276.117004 333.063019,275.118469 333.874908,274.705536 
	C348.238678,267.399719 363.510986,263.888031 379.598877,264.643219 
	C385.386169,264.914825 391.121277,266.297028 397.029297,267.527893 
	C391.057404,267.821899 384.934479,267.839783 378.815948,267.683563 
	C362.595642,267.269531 347.347778,271.382874 332.201996,277.153320 
z"/>
<path fill="#C0CEC7" opacity="1.000000" stroke="none" 
	d="
M322.431702,282.111328 
	C323.469574,281.034851 324.857544,279.938629 326.615967,279.151825 
	C327.008698,279.718903 327.031006,279.976593 327.053345,280.234314 
	C325.629486,280.853424 324.205627,281.472504 322.431702,282.111328 
z"/>
<path fill="#D4E4DC" opacity="1.000000" stroke="none" 
	d="
M330.259491,278.105957 
	C330.364532,277.320709 330.824097,276.772644 331.592773,276.532898 
	C331.472656,277.341827 331.043335,277.842468 330.259491,278.105957 
z"/>
<path fill="#D4E4DC" opacity="1.000000" stroke="none" 
	d="
M327.373291,280.167816 
	C327.031006,279.976593 327.008698,279.718903 326.961670,279.073975 
	C327.449738,278.503113 327.962524,278.319550 328.729858,278.486389 
	C328.554016,279.258331 328.123627,279.679810 327.373291,280.167816 
z"/>
<path fill="#D4E4DC" opacity="1.000000" stroke="none" 
	d="
M329.236359,278.954285 
	C328.958099,278.494720 329.048950,278.059204 329.511505,277.754822 
	C329.790649,278.250092 329.698059,278.614227 329.236359,278.954285 
z"/>
</svg>