<?xml version="1.0" encoding="UTF-8"?>
<svg width="1026px" height="1026px" viewBox="0 0 1026 1026" version="1.1" xmlns="http://www.w3.org/2000/svg" xmlns:xlink="http://www.w3.org/1999/xlink">
    <title>mirror horizontal dots</title>
    <g id="mirror-horizontal-dots" stroke="none" stroke-width="1" fill="none" fill-rule="evenodd">
        <g id="Group" transform="translate(60.000000, 34.000000)" stroke="#000000" stroke-width="40">
            <circle id="Oval" fill="#000000" transform="translate(564.000000, 100.000000) rotate(90.000000) translate(-564.000000, -100.000000) " cx="564" cy="100" r="80"></circle>
            <circle id="Oval-Copy-3" fill="#000000" transform="translate(564.000000, 332.000000) rotate(90.000000) translate(-564.000000, -332.000000) " cx="564" cy="332" r="80"></circle>
            <circle id="Oval-Copy" fill="#FFFFFF" transform="translate(564.000000, 858.000000) rotate(90.000000) translate(-564.000000, -858.000000) " cx="564" cy="858" r="80"></circle>
            <circle id="Oval-Copy-10" fill="#FFFFFF" transform="translate(564.000000, 626.000000) rotate(90.000000) translate(-564.000000, -626.000000) " cx="564" cy="626" r="80"></circle>
            <circle id="Oval-Copy-5" fill="#000000" transform="translate(332.000000, 100.000000) rotate(90.000000) translate(-332.000000, -100.000000) " cx="332" cy="100" r="80"></circle>
            <circle id="Oval-Copy-4" fill="#000000" transform="translate(332.000000, 332.000000) rotate(90.000000) translate(-332.000000, -332.000000) " cx="332" cy="332" r="80"></circle>
            <circle id="Oval-Copy-2" fill="#FFFFFF" transform="translate(332.000000, 858.000000) rotate(90.000000) translate(-332.000000, -858.000000) " cx="332" cy="858" r="80"></circle>
            <circle id="Oval-Copy-11" fill="#FFFFFF" transform="translate(332.000000, 626.000000) rotate(90.000000) translate(-332.000000, -626.000000) " cx="332" cy="626" r="80"></circle>
            <circle id="Oval-Copy-6" fill="#000000" transform="translate(100.000000, 332.000000) rotate(90.000000) translate(-100.000000, -332.000000) " cx="100" cy="332" r="80"></circle>
            <circle id="Oval-Copy-12" fill="#FFFFFF" transform="translate(100.000000, 626.000000) rotate(90.000000) translate(-100.000000, -626.000000) " cx="100" cy="626" r="80"></circle>
            <circle id="Oval-Copy-7" fill="#000000" transform="translate(796.000000, 332.000000) rotate(90.000000) translate(-796.000000, -332.000000) " cx="796" cy="332" r="80"></circle>
            <circle id="Oval-Copy-13" fill="#FFFFFF" transform="translate(796.000000, 626.000000) rotate(90.000000) translate(-796.000000, -626.000000) " cx="796" cy="626" r="80"></circle>
        </g>
        <g id="Group-3" transform="translate(508.000000, 513.000000) rotate(90.000000) translate(-508.000000, -513.000000) translate(493.000000, 1.000000)" fill="#000000">
            <rect id="Rectangle" x="0" y="120" width="30" height="60"></rect>
            <rect id="Rectangle-Copy-8" x="0" y="0" width="30" height="60"></rect>
            <rect id="Rectangle-Copy" x="0" y="964" width="30" height="60"></rect>
            <rect id="Rectangle-Copy-2" x="0" y="843" width="30" height="60"></rect>
            <rect id="Rectangle-Copy-3" x="0" y="241" width="30" height="60"></rect>
            <rect id="Rectangle-Copy-4" x="0" y="361" width="30" height="60"></rect>
            <rect id="Rectangle-Copy-5" x="0" y="723" width="30" height="60"></rect>
            <rect id="Rectangle-Copy-6" x="0" y="602" width="30" height="60"></rect>
            <rect id="Rectangle-Copy-7" x="0" y="482" width="30" height="60"></rect>
        </g>
    </g>
</svg>