<?xml version="1.0" encoding="UTF-8"?>
<svg width="1000px" height="1000px" viewBox="0 0 1000 1000" version="1.1" xmlns="http://www.w3.org/2000/svg" xmlns:xlink="http://www.w3.org/1999/xlink">
    <title>diagonal_down_right</title>
    <g id="diagonal_down_right" stroke="none" stroke-width="1" fill="none" fill-rule="evenodd">
        <path d="M452.007564,23.8967235 C482.951541,-6.53526772 517.704773,-6.53526772 548.64875,23.8967235 L548.64875,23.8967235 L709.083004,183.666698 C725.269654,199.833301 726.221237,223.133231 710.035561,238.824603 C693.848911,255.46741 670.998259,253.565514 654.811609,237.874142 L654.811609,237.874142 L609.10933,192.700948 L538.175493,117.09547 L538.175493,633.493826 C538.175493,634.432009 538.147907,635.352394 538.093781,636.255005 L538.092013,974.524168 C538.092013,1007.66685 461.504579,1007.66685 461.504579,977.073454 L461.504579,977.073454 L461.504579,629.07371 L461.528399,629.07273 L461.529238,118.046905 L391.071192,192.700948 L345.369011,237.874142 C329.182848,253.565514 306.807793,255.46741 290.145449,238.824603 C274.435311,223.133231 274.911375,199.833301 291.5737,183.666698 L291.5737,183.666698 Z" id="Shape" fill="#000000" fill-rule="nonzero" transform="translate(500.209399, 500.391064) scale(1, -1) rotate(45.000000) translate(-500.209399, -500.391064) "></path>
    </g>
</svg>