<?xml version="1.0" encoding="UTF-8"?>
<svg width="1000px" height="1000px" viewBox="0 0 1000 1000" version="1.1" xmlns="http://www.w3.org/2000/svg" xmlns:xlink="http://www.w3.org/1999/xlink">
    <title>diagonal_up_right</title>
    <g id="diagonal_up_right" stroke="none" stroke-width="1" fill="none" fill-rule="evenodd">
        <path d="M451.493697,23.2011913 C482.437674,-7.23079993 517.190906,-7.23079993 548.134883,23.2011913 L548.134883,23.2011913 L708.569137,182.971166 C724.755788,199.137769 725.70737,222.437699 709.521695,238.129071 C693.335044,254.771878 670.484393,252.869982 654.297742,237.17861 L654.297742,237.17861 L608.595463,192.005415 L537.661627,116.399937 L537.661627,632.798294 C537.661627,633.736477 537.634041,634.656861 537.579914,635.559473 L537.578147,973.828636 C537.578147,1006.97131 460.990713,1006.97131 460.990713,976.377922 L460.990713,976.377922 L460.990713,628.378177 L461.014532,628.377198 L461.015371,117.351372 L390.557326,192.005415 L344.855144,237.17861 C328.668982,252.869982 306.293926,254.771878 289.631582,238.129071 C273.921444,222.437699 274.397509,199.137769 291.059833,182.971166 L291.059833,182.971166 Z" id="Shape" fill="#000000" fill-rule="nonzero" transform="translate(499.695532, 499.695532) rotate(45.000000) translate(-499.695532, -499.695532) "></path>
    </g>
</svg>