<?xml version="1.0" encoding="UTF-8"?>
<svg width="1000px" height="1000px" viewBox="0 0 1000 1000" version="1.1" xmlns="http://www.w3.org/2000/svg" xmlns:xlink="http://www.w3.org/1999/xlink">
    <title>L_right_up</title>
    <g id="L_right_up" stroke="none" stroke-width="1" fill="none" fill-rule="evenodd">
        <path d="M963.23605,70.5 C1012.92401,70.5 1012.92401,153.5 959.095651,153.5 L823.495582,153.500777 C819.699008,154.10989 815.61088,154.419019 811.237478,154.419019 L376.115877,154.419019 C322.463524,154.419019 292.417854,182.044734 292.417854,236.25322 L292.417854,802.318299 L372.360169,719.441155 L423.86656,669.923244 C442.108888,652.72269 467.861534,650.637872 486.103862,668.881369 C504.345091,686.081923 503.272659,711.622819 485.030332,729.344311 L304.221196,904.480816 C269.347386,937.839728 230.180552,937.839728 195.306742,904.480816 L14.4980455,729.344311 C-4.28036627,711.622819 -4.81688981,686.081923 12.8884089,668.881369 C31.6668427,650.637872 56.8834929,652.72269 75.1252713,669.923244 L126.631553,719.441155 L206.037652,801.275356 L206.037652,232.083583 C206.037652,124.187548 262.909499,70.5 374.506131,70.5 L963.23605,70.5 Z" id="Combined-Shape" fill="#000000" fill-rule="nonzero" transform="translate(500.000000, 500.000000) rotate(180.000000) translate(-500.000000, -500.000000) "></path>
    </g>
</svg>