<?xml version="1.0" encoding="UTF-8"?>
<svg width="1000px" height="1000px" viewBox="0 0 1000 1000" version="1.1" xmlns="http://www.w3.org/2000/svg" xmlns:xlink="http://www.w3.org/1999/xlink">
    <title>L_up_right</title>
    <g id="L_up_right" stroke="none" stroke-width="1" fill="none" fill-rule="evenodd">
        <path d="M963.23605,70 C1012.92401,70 1012.92401,153 959.095651,153 L823.495582,153.000777 C819.699008,153.60989 815.61088,153.919019 811.237478,153.919019 L376.115877,153.919019 C322.463524,153.919019 292.417854,181.544734 292.417854,235.75322 L292.417854,801.818299 L372.360169,718.941155 L423.86656,669.423244 C442.108888,652.22269 467.861534,650.137872 486.103862,668.381369 C504.345091,685.581923 503.272659,711.122819 485.030332,728.844311 L304.221196,903.980816 C269.347386,937.339728 230.180552,937.339728 195.306742,903.980816 L14.4980455,728.844311 C-4.28036627,711.122819 -4.81688981,685.581923 12.8884089,668.381369 C31.6668427,650.137872 56.8834929,652.22269 75.1252713,669.423244 L126.631553,718.941155 L206.037652,800.775356 L206.037652,231.583583 C206.037652,123.687548 262.909499,70 374.506131,70 L963.23605,70 Z" id="Combined-Shape" fill="#000000" fill-rule="nonzero" transform="translate(500.000000, 499.500000) scale(-1, 1) rotate(90.000000) translate(-500.000000, -499.500000) "></path>
    </g>
</svg>