<?xml version="1.0" encoding="UTF-8"?>
<svg width="1000px" height="1000px" viewBox="0 0 1000 1000" version="1.1" xmlns="http://www.w3.org/2000/svg" xmlns:xlink="http://www.w3.org/1999/xlink">
    <title>square_right_down_left</title>
    <g id="square_right_down_left" stroke="none" stroke-width="1" fill="none" fill-rule="evenodd">
        <path d="M1002.79441,792.508336 C1002.79441,891.753004 952.422877,941.135449 852.16806,941.135449 L461.702705,941.135449 C460.147141,941.135449 458.62884,941.090446 457.148687,941.001058 L334.832024,941 C235.057619,941 184.210613,891.624956 184.210613,792.395774 L184.210613,792.395774 L184.210613,268.924876 L113.216569,344.185666 L67.1667152,389.726004 C50.8574186,405.544907 28.312148,407.46226 11.5230478,390.684189 C-4.3066023,374.865286 -3.82691653,351.375987 12.9621641,335.077991 L12.9621641,335.077991 L174.616505,174.009494 C205.795883,143.330169 240.813495,143.330169 271.992874,174.009494 L271.992874,174.009494 L433.647607,335.077991 C449.957395,351.375987 450.916216,374.865286 434.607411,390.684189 C418.297623,407.46226 395.273139,405.544907 378.963351,389.726004 L378.963351,389.726004 L332.913399,344.185666 L261.439944,267.965709 L261.439944,788.561067 C261.439944,838.415204 288.302661,863.821856 336.271239,863.821856 L336.271239,863.821856 L725.297303,863.821856 C726.783395,863.821856 728.232645,863.862923 729.644744,863.944595 L851.208256,863.945409 C899.176842,863.945409 925.560154,838.534721 925.560154,788.673049 L925.560154,210.4624 C925.560154,160.600729 899.176842,135.19004 851.208256,135.19004 L851.208256,135.19004 L461.702705,135.19004 C434.360572,135.19004 419.489996,120.806832 419.010585,96.355358 C418.531174,71.9037858 434.360572,58 461.702705,58 L461.702705,58 L852.16806,58 C952.422877,58 1002.79441,107.382445 1002.79441,206.627114 L1002.79441,206.627114 L1002.79441,792.508336 Z" id="Shape" fill="#000000" fill-rule="nonzero" transform="translate(501.397206, 499.567725) scale(-1, -1) rotate(180.000000) translate(-501.397206, -499.567725) "></path>
    </g>
</svg>