<?xml version="1.0" encoding="UTF-8"?>
<svg width="1000px" height="1000px" viewBox="0 0 1000 1000" version="1.1" xmlns="http://www.w3.org/2000/svg" xmlns:xlink="http://www.w3.org/1999/xlink">
    <title>square_down_left_up</title>
    <g id="square_down_left_up" stroke="none" stroke-width="1" fill="none" fill-rule="evenodd">
        <path d="M1003,792.508336 C1003,891.753004 952.628465,941.135449 852.373648,941.135449 L461.908294,941.135449 C460.352729,941.135449 458.834428,941.090446 457.354275,941.001058 L335.037612,941 C235.263208,941 184.416202,891.624956 184.416202,792.395774 L184.416202,792.395774 L184.416202,268.924876 L113.422157,344.185666 L67.3723035,389.726004 C51.063007,405.544907 28.5177364,407.46226 11.7286362,390.684189 C-4.10101395,374.865286 -3.62132817,351.375987 13.1677524,335.077991 L13.1677524,335.077991 L174.822093,174.009494 C206.001472,143.330169 241.019083,143.330169 272.198462,174.009494 L272.198462,174.009494 L433.853196,335.077991 C450.162983,351.375987 451.121805,374.865286 434.812999,390.684189 C418.503212,407.46226 395.478727,405.544907 379.168939,389.726004 L379.168939,389.726004 L333.118987,344.185666 L261.645532,267.965709 L261.645532,788.561067 C261.645532,838.415204 288.50825,863.821856 336.476827,863.821856 L336.476827,863.821856 L725.502891,863.821856 C726.988983,863.821856 728.438233,863.862923 729.850332,863.944595 L851.413844,863.945409 C899.38243,863.945409 925.765742,838.534721 925.765742,788.673049 L925.765742,210.4624 C925.765742,160.600729 899.38243,135.19004 851.413844,135.19004 L851.413844,135.19004 L461.908294,135.19004 C434.56616,135.19004 419.695584,120.806832 419.216173,96.355358 C418.736762,71.9037858 434.56616,58 461.908294,58 L461.908294,58 L852.373648,58 C952.628465,58 1003,107.382445 1003,206.627114 L1003,206.627114 L1003,792.508336 Z" id="Shape" fill="#000000" fill-rule="nonzero" transform="translate(501.602794, 499.567725) rotate(90.000000) translate(-501.602794, -499.567725) "></path>
    </g>
</svg>