<?xml version="1.0" encoding="UTF-8"?>
<svg width="1000px" height="1000px" viewBox="0 0 1000 1000" version="1.1" xmlns="http://www.w3.org/2000/svg" xmlns:xlink="http://www.w3.org/1999/xlink">
    <title>up</title>
    <g id="up" stroke="none" stroke-width="1" fill="none" fill-rule="evenodd">
        <path d="M451.979831,24.5056591 C482.923808,-5.92633215 517.677039,-5.92633215 548.621016,24.5056591 L548.621016,24.5056591 L709.055271,184.275634 C725.241921,200.442237 726.193503,223.742167 710.007828,239.433539 C693.821178,256.076346 670.970526,254.17445 654.783876,238.483078 L654.783876,238.483078 L609.081597,193.309883 L538.14776,117.704405 L538.14776,634.102762 C538.14776,635.040945 538.120174,635.961329 538.066048,636.863941 L538.06428,975.133104 C538.06428,1008.27578 461.476846,1008.27578 461.476846,977.68239 L461.476846,977.68239 L461.476846,629.682645 L461.500666,629.681666 L461.501505,118.65584 L391.043459,193.309883 L345.341278,238.483078 C329.155115,254.17445 306.780059,256.076346 290.117715,239.433539 C274.407578,223.742167 274.883642,200.442237 291.545966,184.275634 L291.545966,184.275634 Z" id="Shape" fill="#000000" fill-rule="nonzero"></path>
    </g>
</svg>