<?xml version="1.0" encoding="UTF-8"?>
<svg width="1000px" height="1000px" viewBox="0 0 1000 1000" version="1.1" xmlns="http://www.w3.org/2000/svg" xmlns:xlink="http://www.w3.org/1999/xlink">
    <title>zigzag_down_right_left</title>
    <g id="zigzag_down_right_left" stroke="none" stroke-width="1" fill="none" fill-rule="evenodd">
        <path d="M854.793869,195.568759 C897.477722,195.568759 897.477722,266.568759 851.237109,266.568759 L737.738603,266.569198 C733.612979,267.496818 729.037872,267.969976 724.02612,267.969976 L350.70293,267.969976 C304.670585,267.969976 278.89217,291.672131 278.89217,338.181624 L278.89217,823.850964 L347.480629,752.744498 L391.671793,710.259398 C407.323243,695.501763 429.418354,693.713042 445.069804,709.365496 C460.720312,724.12313 459.800193,746.036565 444.148743,761.241151 L289.019135,911.503787 C259.098299,940.12488 225.494159,940.12488 195.573323,911.503787 L40.4440921,761.241151 C24.3326957,746.036565 23.8723723,724.12313 39.0630651,709.365496 C55.1744804,693.713042 76.8097205,695.501763 92.4606991,710.259398 L136.65177,752.744498 L204.780169,822.956146 L204.780169,334.604182 C204.780169,242.032148 253.574757,195.969606 349.321809,195.969606 L369.26014,195.968759 L369.26515,195.568759 L854.793869,195.568759 Z" id="Combined-Shape" fill="#000000" fill-rule="nonzero" transform="translate(457.190322, 564.269183) scale(-1, 1) rotate(-45.000000) translate(-457.190322, -564.269183) "></path>
    </g>
</svg>