<?xml version="1.0" encoding="UTF-8"?>
<svg width="1000px" height="1000px" viewBox="0 0 1000 1000" version="1.1" xmlns="http://www.w3.org/2000/svg" xmlns:xlink="http://www.w3.org/1999/xlink">
    <title>zigzag_up_left_right</title>
    <g id="zigzag_up_left_right" stroke="none" stroke-width="1" fill="none" fill-rule="evenodd">
        <path d="M940.793869,67.4898987 C983.477722,67.4898987 983.477722,138.489899 937.237109,138.489899 L823.738603,138.490338 C819.612979,139.417958 815.037872,139.891115 810.02612,139.891115 L436.70293,139.891115 C390.670585,139.891115 364.89217,163.593271 364.89217,210.102764 L364.89217,695.772104 L433.480629,624.665637 L477.671793,582.180538 C493.323243,567.422903 515.418354,565.634182 531.069804,581.286635 C546.720312,596.04427 545.800193,617.957705 530.148743,633.162291 L375.019135,783.424927 C345.098299,812.046019 311.494159,812.046019 281.573323,783.424927 L126.444092,633.162291 C110.332696,617.957705 109.872372,596.04427 125.063065,581.286635 C141.17448,565.634182 162.80972,567.422903 178.460699,582.180538 L222.65177,624.665637 L290.780169,694.877286 L290.780169,206.525322 C290.780169,113.953288 339.574757,67.8907461 435.321809,67.8907461 L455.26014,67.8898987 L455.26515,67.4898987 L940.793869,67.4898987 Z" id="Combined-Shape" fill="#000000" fill-rule="nonzero" transform="translate(543.190322, 436.190322) scale(1, -1) rotate(-45.000000) translate(-543.190322, -436.190322) "></path>
    </g>
</svg>