<?xml version="1.0" encoding="UTF-8"?>
<svg width="1000px" height="1000px" viewBox="0 0 1000 1000" version="1.1" xmlns="http://www.w3.org/2000/svg" xmlns:xlink="http://www.w3.org/1999/xlink">
    <title>zigzag_right_up_down</title>
    <g id="zigzag_right_up_down" stroke="none" stroke-width="1" fill="none" fill-rule="evenodd">
        <path d="M961.793869,174.568759 C1004.47772,174.568759 1004.47772,245.568759 958.237109,245.568759 L844.738603,245.569198 C840.612979,246.496818 836.037872,246.969976 831.02612,246.969976 L457.70293,246.969976 C411.670585,246.969976 385.89217,270.672131 385.89217,317.181624 L385.89217,802.850964 L454.480629,731.744498 L498.671793,689.259398 C514.323243,674.501763 536.418354,672.713042 552.069804,688.365496 C567.720312,703.12313 566.800193,725.036565 551.148743,740.241151 L396.019135,890.503787 C366.098299,919.12488 332.494159,919.12488 302.573323,890.503787 L147.444092,740.241151 C131.332696,725.036565 130.872372,703.12313 146.063065,688.365496 C162.17448,672.713042 183.80972,674.501763 199.460699,689.259398 L243.65177,731.744498 L311.780169,801.956146 L311.780169,313.604182 C311.780169,221.032148 360.574757,174.969606 456.321809,174.969606 L476.26014,174.968759 L476.26515,174.568759 L961.793869,174.568759 Z" id="Combined-Shape" fill="#000000" fill-rule="nonzero" transform="translate(564.190322, 543.269183) scale(-1, 1) rotate(45.000000) translate(-564.190322, -543.269183) "></path>
    </g>
</svg>