<?xml version="1.0" encoding="UTF-8"?>
<svg width="1000px" height="1000px" viewBox="0 0 1000 1000" version="1.1" xmlns="http://www.w3.org/2000/svg" xmlns:xlink="http://www.w3.org/1999/xlink">
    <title>zigzag_left_down_up</title>
    <g id="zigzag_left_down_up" stroke="none" stroke-width="1" fill="none" fill-rule="evenodd">
        <path d="M833.793869,88.4898987 C876.477722,88.4898987 876.477722,159.489899 830.237109,159.489899 L716.738603,159.490338 C712.612979,160.417958 708.037872,160.891115 703.02612,160.891115 L329.70293,160.891115 C283.670585,160.891115 257.89217,184.593271 257.89217,231.102764 L257.89217,716.772104 L326.480629,645.665637 L370.671793,603.180538 C386.323243,588.422903 408.418354,586.634182 424.069804,602.286635 C439.720312,617.04427 438.800193,638.957705 423.148743,654.162291 L268.019135,804.424927 C238.098299,833.046019 204.494159,833.046019 174.573323,804.424927 L19.4440921,654.162291 C3.33269573,638.957705 2.87237227,617.04427 18.0630651,602.286635 C34.1744804,586.634182 55.8097205,588.422903 71.4606991,603.180538 L115.65177,645.665637 L183.780169,715.877286 L183.780169,227.525322 C183.780169,134.953288 232.574757,88.8907461 328.321809,88.8907461 L348.26014,88.8898987 L348.26515,88.4898987 L833.793869,88.4898987 Z" id="Combined-Shape" fill="#000000" fill-rule="nonzero" transform="translate(436.190322, 457.190322) scale(1, -1) rotate(45.000000) translate(-436.190322, -457.190322) "></path>
    </g>
</svg>