<?xml version="1.0" encoding="UTF-8"?>
<svg width="1000px" height="1000px" viewBox="0 0 1000 1000" version="1.1" xmlns="http://www.w3.org/2000/svg" xmlns:xlink="http://www.w3.org/1999/xlink">
    <title>zigzag_left_up_down</title>
    <g id="zigzag_left_up_down" stroke="none" stroke-width="1" fill="none" fill-rule="evenodd">
        <path d="M833.156171,174.568759 C875.840024,174.568759 875.840024,245.568759 829.599411,245.568759 L716.100905,245.569198 C711.975281,246.496818 707.400174,246.969976 702.388422,246.969976 L329.065233,246.969976 C283.032887,246.969976 257.254472,270.672131 257.254472,317.181624 L257.254472,802.850964 L325.842931,731.744498 L370.034096,689.259398 C385.685546,674.501763 407.780657,672.713042 423.432107,688.365496 C439.082614,703.12313 438.162495,725.036565 422.511045,740.241151 L267.381437,890.503787 C237.460601,919.12488 203.856461,919.12488 173.935625,890.503787 L18.8063943,740.241151 C2.694998,725.036565 2.23467454,703.12313 17.4253674,688.365496 C33.5367826,672.713042 55.1720227,674.501763 70.8230013,689.259398 L115.014072,731.744498 L183.142471,801.956146 L183.142471,313.604182 C183.142471,221.032148 231.937059,174.969606 327.684112,174.969606 L347.622443,174.968759 L347.627452,174.568759 L833.156171,174.568759 Z" id="Combined-Shape" fill="#000000" fill-rule="nonzero" transform="translate(435.552625, 543.269183) rotate(45.000000) translate(-435.552625, -543.269183) "></path>
    </g>
</svg>