<?xml version="1.0" encoding="UTF-8"?>
<svg width="1000px" height="1000px" viewBox="0 0 1000 1000" version="1.1" xmlns="http://www.w3.org/2000/svg" xmlns:xlink="http://www.w3.org/1999/xlink">
    <title>zigzag_down_left_right</title>
    <g id="zigzag_down_left_right" stroke="none" stroke-width="1" fill="none" fill-rule="evenodd">
        <path d="M940.431567,195.489899 C983.11542,195.489899 983.11542,266.489899 936.874806,266.489899 L823.3763,266.490338 C819.250676,267.417958 814.67557,267.891115 809.663818,267.891115 L436.340628,267.891115 C390.308283,267.891115 364.529868,291.593271 364.529868,338.102764 L364.529868,823.772104 L433.118326,752.665637 L477.309491,710.180538 C492.960941,695.422903 515.056052,693.634182 530.707502,709.286635 C546.358009,724.04427 545.43789,745.957705 529.78644,761.162291 L374.656833,911.424927 C344.735997,940.046019 311.131856,940.046019 281.21102,911.424927 L126.08179,761.162291 C109.970393,745.957705 109.51007,724.04427 124.700763,709.286635 C140.812178,693.634182 162.447418,695.422903 178.098397,710.180538 L222.289467,752.665637 L290.417867,822.877286 L290.417867,334.525322 C290.417867,241.953288 339.212455,195.890746 434.959507,195.890746 L454.897838,195.889899 L454.902847,195.489899 L940.431567,195.489899 Z" id="Combined-Shape" fill="#000000" fill-rule="nonzero" transform="translate(542.828020, 564.190322) rotate(-45.000000) translate(-542.828020, -564.190322) "></path>
    </g>
</svg>