<?xml version="1.0" encoding="UTF-8"?>
<svg width="1000px" height="1000px" viewBox="0 0 1000 1000" version="1.1" xmlns="http://www.w3.org/2000/svg" xmlns:xlink="http://www.w3.org/1999/xlink">
    <title>zigzag_up_right_left</title>
    <g id="zigzag_up_right_left" stroke="none" stroke-width="1" fill="none" fill-rule="evenodd">
        <path d="M897.156171,67.5687591 C939.840024,67.5687591 939.840024,138.568759 893.599411,138.568759 L780.100905,138.569198 C775.975281,139.496818 771.400174,139.969976 766.388422,139.969976 L393.065233,139.969976 C347.032887,139.969976 321.254472,163.672131 321.254472,210.181624 L321.254472,695.850964 L389.842931,624.744498 L434.034096,582.259398 C449.685546,567.501763 471.780657,565.713042 487.432107,581.365496 C503.082614,596.12313 502.162495,618.036565 486.511045,633.241151 L331.381437,783.503787 C301.460601,812.12488 267.856461,812.12488 237.935625,783.503787 L82.8063943,633.241151 C66.694998,618.036565 66.2346745,596.12313 81.4253674,581.365496 C97.5367826,565.713042 119.172023,567.501763 134.823001,582.259398 L179.014072,624.744498 L247.142471,694.956146 L247.142471,206.604182 C247.142471,114.032148 295.937059,67.9696065 391.684112,67.9696065 L411.622443,67.9687591 L411.627452,67.5687591 L897.156171,67.5687591 Z" id="Combined-Shape" fill="#000000" fill-rule="nonzero" transform="translate(499.552625, 436.269183) scale(-1, -1) rotate(-45.000000) translate(-499.552625, -436.269183) "></path>
    </g>
</svg>