<?xml version="1.0" encoding="UTF-8"?>
<svg width="1000px" height="1000px" viewBox="0 0 1000 1000" version="1.1" xmlns="http://www.w3.org/2000/svg" xmlns:xlink="http://www.w3.org/1999/xlink">
    <title>zigzag_right_down_up</title>
    <g id="zigzag_right_down_up" stroke="none" stroke-width="1" fill="none" fill-rule="evenodd">
        <path d="M961.431567,88.4898987 C1004.11542,88.4898987 1004.11542,159.489899 957.874806,159.489899 L844.3763,159.490338 C840.250676,160.417958 835.67557,160.891115 830.663818,160.891115 L457.340628,160.891115 C411.308283,160.891115 385.529868,184.593271 385.529868,231.102764 L385.529868,716.772104 L454.118326,645.665637 L498.309491,603.180538 C513.960941,588.422903 536.056052,586.634182 551.707502,602.286635 C567.358009,617.04427 566.43789,638.957705 550.78644,654.162291 L395.656833,804.424927 C365.735997,833.046019 332.131856,833.046019 302.21102,804.424927 L147.08179,654.162291 C130.970393,638.957705 130.51007,617.04427 145.700763,602.286635 C161.812178,586.634182 183.447418,588.422903 199.098397,603.180538 L243.289467,645.665637 L311.417867,715.877286 L311.417867,227.525322 C311.417867,134.953288 360.212455,88.8907461 455.959507,88.8907461 L475.897838,88.8898987 L475.902847,88.4898987 L961.431567,88.4898987 Z" id="Combined-Shape" fill="#000000" fill-rule="nonzero" transform="translate(563.828020, 457.190322) scale(-1, -1) rotate(45.000000) translate(-563.828020, -457.190322) "></path>
    </g>
</svg>